<?xml version="1.0" encoding="utf-8"?>
<!-- Generator: Adobe Illustrator 27.4.0, SVG Export Plug-In . SVG Version: 6.00 Build 0)  -->
<svg version="1.1" id="Layer_1" xmlns="http://www.w3.org/2000/svg" xmlns:xlink="http://www.w3.org/1999/xlink" x="0px" y="0px"
	 viewBox="0 0 168 134" style="enable-background:new 0 0 168 134;" xml:space="preserve">
<style type="text/css">
	.st0{fill:url(#SVGID_1_);}
	.st1{fill:#DEDEDE;fill-opacity:0.13;filter:url(#Adobe_OpacityMaskFilter);}
	.st2{mask:url(#mask0_824_2480_00000158717576560044778110000004553579980694581912_);}
	.st3{fill:#696969;}
	.st4{fill:#DEDEDE;}
	.st5{fill:#FEFFFF;}
	.st6{fill:#FFFFFF;}
	.st7{fill:#896686;}
</style>
<g>
	
		<linearGradient id="SVGID_1_" gradientUnits="userSpaceOnUse" x1="67.9277" y1="162.968" x2="102.1344" y2="-28.5114" gradientTransform="matrix(1 0 0 -1 0 140)">
		<stop  offset="0" style="stop-color:#696969;stop-opacity:0.52"/>
		<stop  offset="1" style="stop-color:#D9D9D9;stop-opacity:0"/>
	</linearGradient>
	<path shape-rendering="crispEdges" class="st0" d="M10,0h148c5.5,0,10,4.5,10,10v114c0,5.5-4.5,10-10,10H10c-5.5,0-10-4.5-10-10V10
		C0,4.5,4.5,0,10,0z"/>
</g>
<defs>
	<filter id="Adobe_OpacityMaskFilter" filterUnits="userSpaceOnUse" x="-262" y="52.9" width="764" height="81.4">
		<feColorMatrix  type="matrix" values="1 0 0 0 0  0 1 0 0 0  0 0 1 0 0  0 0 0 1 0"/>
	</filter>
</defs>
<mask maskUnits="userSpaceOnUse" x="-262" y="52.9" width="764" height="81.4" id="mask0_824_2480_00000158717576560044778110000004553579980694581912_">
	<path class="st1" d="M10,0h148c5.5,0,10,4.5,10,10v114c0,5.5-4.5,10-10,10H10c-5.5,0-10-4.5-10-10V10C0,4.5,4.5,0,10,0z"/>
</mask>
<g class="st2">
	<path class="st3" d="M469.5,86.5V64h-25.7v14.7h-21V52.9h-34v15.4h-27.3V86h-21.3V62.4h-34v14.2h-22.7V66h-26.8v19.6h-27.9V64
		h-25.7v14.7h-21V52.9h-34v15.4h-27.3V86H99.4V62.4h-34v14.2H42.7V66H15.9v19.6h-26V64h-25.7v14.7h-21V52.9h-34v15.4h-27.3V86h-21.3
		V62.4h-34v14.2h-22.8V66h-26.8v19.6h-29.7V134h238.9h27.6H227h25.7h240.8V86.5H469.5z"/>
	<path class="st4" d="M484.5,119.4c0,0-1.6-12.8-15.7-8.2c0,0-8.6-11.8-20.9,0c0,0-7.9-9.9-17.6,0c0,0-11-8.4-18.1,2.5
		c0,0-10.9-6.4-18.2,3.9c0,0-11.7-9.9-21.2,2.5c0,0-5.2-5.2-11,0c0,0-8.7-13.3-20.3,0c0,0-11.6-7.5-19.2,3.3c0,0-7.7-11.3-19.9-1.6
		c0,0-4.4-10.9-15.5-4.9c0,0-2.6-11.4-15.5-8.7c0,0-9.3-13-21,0.5c0,0-12.2-5.4-20.2,2.5c-2.7-2.2-8.9-5.6-16.2,1.3
		c0,0-11-7.9-18.1,2.4c0,0-10.9-6.1-18.2,3.7c0,0-11.7-9.3-21.2,2.3c0,0-5.2-4.9-11,0c0,0-8.7-12.5-20.3,0c0,0-11.6-7-19.2,3.2
		c0,0-7.7-10.6-19.9-1.5c0,0-4.4-10.2-15.5-4.6c0,0-2.6-10.8-15.5-8.2c0,0-9.3-12.3-21,0.4c0,0-17.6-7.3-24.4,8.4c0,0,0,0-0.1,0
		c-1-3.1-4.5-9.4-15.3-6.1c0,0-8.6-11.1-20.9,0c0,0-7.9-9.3-17.6,0c0,0-11-7.9-18.1,2.4c0,0-10.9-6.1-18.2,3.7
		c0,0-11.7-9.3-21.2,2.3c0,0-5.2-4.9-11,0c0,0-8.7-12.5-20.3,0c0,0-11.6-7-19.2,3.2c0,0-7.7-10.6-19.9-1.5c0,0-4.4-10.2-15.5-4.6
		c0,0-2.6-10.8-15.5-8.2c0,0-9.3-12.3-21,0.4c0,0-17.6-7.3-24.4,8.4c0,0-14.7,1.5-13,15.7H502C502,134.3,502.8,119.4,484.5,119.4
		L484.5,119.4z"/>
	<path class="st5" d="M32.7,124.2C32.7,124.2,32.7,124.2,32.7,124.2c-0.2,0-0.3-0.2-0.3-0.4c0-0.1,0.6-2.4,3-3.7
		c1.9-1,4.2-1.1,7.1-0.2c0.7-0.7,3.9-3.9,8.3-4c3-0.1,6,1.3,8.7,4.1c0.1,0.1,0.1,0.3,0,0.4c-0.1,0.1-0.3,0.1-0.4,0
		c-2.6-2.7-5.4-4-8.2-3.9c-4.6,0.1-8,3.9-8,3.9c-0.1,0.1-0.2,0.1-0.3,0.1c-2.8-0.9-5.1-0.8-6.8,0.1c-2.1,1.2-2.7,3.3-2.7,3.3
		C32.9,124.2,32.8,124.2,32.7,124.2L32.7,124.2z"/>
	<path class="st6" d="M152.7,116.4c0,0-1.3-2.9,4.1-2.2c0,0-1.1,0.2-1.7,1.4C154.8,116.1,153.9,117,152.7,116.4z"/>
	<path class="st6" d="M152.4,117l-0.2-0.1c0.2-0.4,0.5-0.6,0.6-0.6l0.1,0.2C152.9,116.4,152.6,116.6,152.4,117z"/>
	<path class="st6" d="M87.6,117.5c0,0-1.3-2.9,4.1-2.2c0,0-1.1,0.2-1.7,1.4C89.6,117.2,88.8,118.1,87.6,117.5z"/>
	<path class="st6" d="M87.3,118.1l-0.2-0.1c0.2-0.4,0.5-0.6,0.6-0.6l0.1,0.2C87.8,117.5,87.5,117.7,87.3,118.1z"/>
	<path class="st6" d="M148.9,114c0,0,2.2-2.3-3-3.5c0,0,0.9,0.6,1.1,1.9C147.1,113,147.6,114.2,148.9,114z"/>
	<path class="st6" d="M149,114.6l0.2,0c0-0.5-0.3-0.8-0.3-0.8l-0.2,0.1C148.7,114,148.9,114.2,149,114.6z"/>
</g>
<g>
	<path class="st7" d="M124.1,84.3c-0.9,2.2-5.2,12.2-15.3,17.3c-6.2,3.1-12.7,2.5-25.8,1.2c0,0-21.9-2.2-34.7-11.3
		c-2.5-1.8-4.3-4-4.3-4c-1.6-1.9-2.7-4.1-3.3-6.5c-1.5-6.3,1.8-15.2,1.8-15.2c4.2-11.1,12.1-17.5,15.2-20c2.8-2.3,5.2-3.6,5.7-3.9
		c1.3-0.8,8.9-5,19-5.7c3.1-0.2,20.3-1.1,33.2,11.6c2.6,2.5,10.6,10.4,11.2,22.3C127.3,76.6,125.2,81.6,124.1,84.3L124.1,84.3z"/>
	<path class="st6" d="M70,77.7c3.3,2.6,7,4.5,11.3,4.1c0.4,0,0.8,0.3,0.8,0.8c0,0.3-0.2,0.6-0.4,0.7c-4.5,2.3-11.1,0-12.5-5
		C69,77.8,69.6,77.4,70,77.7L70,77.7z"/>
	<path class="st6" d="M48.4,69.6c1.7,2.1,3.9,3.7,6.6,4.1c0.9,0.2,1.8,0.2,2.8,0.3c0.7,0,0.9,0.9,0.4,1.3c-3.1,2-7.5,0.9-9.8-1.8
		c-0.7-0.8-2.6-3.6-1-4.1C47.8,69.2,48.2,69.3,48.4,69.6L48.4,69.6z"/>
	<path class="st7" d="M43.3,50.1c2.4,0,4.3-1.9,4.3-4.3c0-2.4-1.9-4.3-4.3-4.3c-2.4,0-4.3,1.9-4.3,4.3C39,48.2,40.9,50.1,43.3,50.1z
		"/>
	<path class="st7" d="M54.8,38.8c0,1.4-1.1,2.5-2.5,2.5c-1.4,0-2.5-1.1-2.5-2.5c0-1.4,1.1-2.5,2.5-2.5
		C53.7,36.3,54.8,37.5,54.8,38.8z"/>
</g>
</svg>
