<?xml version="1.0" encoding="utf-8"?>
<!-- Generator: Adobe Illustrator 27.4.0, SVG Export Plug-In . SVG Version: 6.00 Build 0)  -->
<svg version="1.1" id="Layer_1" xmlns="http://www.w3.org/2000/svg" xmlns:xlink="http://www.w3.org/1999/xlink" x="0px" y="0px"
	 viewBox="0 0 168 134" style="enable-background:new 0 0 168 134;" xml:space="preserve">
<style type="text/css">
	.st0{fill:#8B4A51;}
	.st1{fill:#FFFFFF;}
</style>
<g>
	<path class="st0" d="M125.1,84.3c-0.9,2.2-5.2,12.2-15.3,17.3c-6.2,3.1-12.7,2.5-25.8,1.2c0,0-21.9-2.2-34.7-11.3
		c-2.5-1.8-4.3-4-4.3-4c-1.6-1.9-2.7-4.1-3.3-6.5c-1.5-6.3,1.8-15.2,1.8-15.2c4.2-11.1,12.1-17.5,15.2-20c2.8-2.3,5.2-3.6,5.7-3.9
		c1.3-0.8,8.9-5,19-5.7c3.1-0.2,20.3-1.1,33.2,11.6c2.6,2.5,10.6,10.4,11.2,22.3C128.3,76.6,126.2,81.6,125.1,84.3L125.1,84.3z"/>
	<path class="st1" d="M71,77.7c3.3,2.6,7,4.5,11.3,4.1c0.4,0,0.8,0.3,0.8,0.8c0,0.3-0.2,0.6-0.4,0.7c-4.5,2.3-11.1,0-12.5-5
		C70,77.8,70.6,77.4,71,77.7L71,77.7z"/>
	<path class="st1" d="M49.4,69.6c1.7,2.1,3.9,3.7,6.6,4.1c0.9,0.2,1.8,0.2,2.8,0.3c0.7,0,0.9,0.9,0.4,1.3c-3.1,2-7.5,0.9-9.8-1.8
		c-0.7-0.8-2.6-3.6-1-4.1C48.8,69.2,49.2,69.3,49.4,69.6L49.4,69.6z"/>
	<path class="st0" d="M44.3,50.1c2.4,0,4.3-1.9,4.3-4.3c0-2.4-1.9-4.3-4.3-4.3c-2.4,0-4.3,1.9-4.3,4.3C40,48.2,41.9,50.1,44.3,50.1z
		"/>
	<path class="st0" d="M55.8,38.8c0,1.4-1.1,2.5-2.5,2.5s-2.5-1.1-2.5-2.5s1.1-2.5,2.5-2.5S55.8,37.5,55.8,38.8z"/>
</g>
</svg>
