<?xml version="1.0" encoding="UTF-8"?>
<svg xmlns="http://www.w3.org/2000/svg" xmlns:xlink="http://www.w3.org/1999/xlink" viewBox="0 0 427.33 378.51">
  <defs>
    <style>
      .cls-1 {
        fill: none;
      }

      .cls-2 {
        fill: url(#linear-gradient);
      }

      .cls-3 {
        clip-path: url(#clippath);
      }

      .cls-4 {
        fill: #633535;
      }

      .cls-5 {
        fill: #7f58a0;
        mix-blend-mode: multiply;
        opacity: .22;
      }

      .cls-6 {
        fill: url(#linear-gradient-3);
      }

      .cls-7 {
        fill: url(#linear-gradient-2);
      }

      .cls-8 {
        isolation: isolate;
      }
    </style>
    <linearGradient id="linear-gradient" x1="78.05" y1="372.27" x2="376.17" y2="74.16" gradientUnits="userSpaceOnUse">
      <stop offset=".12" stop-color="#c68955"/>
      <stop offset="1" stop-color="#ebc590"/>
    </linearGradient>
    <clipPath id="clippath">
      <path class="cls-1" d="m296.57,80.26c-48.77-15.98-89.12-10.25-116.69-6.34-25.37,3.6-69.07,10.33-110.44,42.28-.57.44-.99.77-1.12.87C57.35,125.69,3.77,170.22.29,236.13c-.37,6.96-5.44,79.73,46.73,116.74,26.02,18.46,54.29,22.4,114.76,25.16,24.56,1.12,104.23,3.14,190.36-31.43,22.5-9.03,38.76-17.88,52.09-34.53,24.81-30.97,23.36-68.76,22.92-80.32-1.81-47.44-27.78-79.63-38.9-93.01-31.87-38.38-71.03-51.72-91.68-58.48Z"/>
    </clipPath>
    <linearGradient id="linear-gradient-2" x1="310.88" y1="35.59" x2="340.36" y2="6.11" xlink:href="#linear-gradient"/>
    <linearGradient id="linear-gradient-3" x1="367.75" y1="65.67" x2="387.03" y2="46.39" xlink:href="#linear-gradient"/>
  </defs>
  <g class="cls-8">
    <g id="Layer_2" data-name="Layer 2">
      <g id="Bubble">
        <g>
          <path class="cls-2" d="m296.57,80.26c-48.77-15.98-89.12-10.25-116.69-6.34-25.37,3.6-69.07,10.33-110.44,42.28-.57.44-.99.77-1.12.87C57.35,125.69,3.77,170.22.29,236.13c-.37,6.96-5.44,79.73,46.73,116.74,26.02,18.46,54.29,22.4,114.76,25.16,24.56,1.12,104.23,3.14,190.36-31.43,22.5-9.03,38.76-17.88,52.09-34.53,24.81-30.97,23.36-68.76,22.92-80.32-1.81-47.44-27.78-79.63-38.9-93.01-31.87-38.38-71.03-51.72-91.68-58.48Z"/>
          <g class="cls-3">
            <path class="cls-5" d="m-5.57,261.35c13.37,21.89,38.37,54.79,80.22,76.62,38.3,19.98,74.32,22.15,101.58,23.78,31.18,1.87,58.07-1.35,77.62-3.7,23.74-2.85,43.49-6.76,57.82-10.04-5.71,5.48-104.2,97.18-207.85,64.47-14.31-4.52-56.43-17.83-84.91-60.77-24.37-36.75-25.06-74.95-24.48-90.36Z"/>
          </g>
          <path class="cls-4" d="m320.45,189.66c1.99-1.75,10.36,10.72,27.03,12.83,2.78.35,9.95.95,18.02-1.91,12.13-4.3,17.23-13.22,18.29-12.38,1.33,1.05-4.38,16.89-18.84,24.11-3.81,1.9-14.64,6.41-25.93,1.91-14.47-5.76-20.68-22.71-18.56-24.57Z"/>
          <circle class="cls-7" cx="325.62" cy="20.85" r="20.85"/>
          <circle class="cls-6" cx="377.39" cy="56.03" r="13.63"/>
        </g>
      </g>
    </g>
  </g>
</svg>