<?xml version="1.0" encoding="utf-8"?>
<!-- Generator: Adobe Illustrator 27.4.0, SVG Export Plug-In . SVG Version: 6.00 Build 0)  -->
<svg version="1.1" id="Layer_1" xmlns="http://www.w3.org/2000/svg" xmlns:xlink="http://www.w3.org/1999/xlink" x="0px" y="0px"
	 viewBox="0 0 427.3 378.5" style="enable-background:new 0 0 427.3 378.5;" xml:space="preserve">
<style type="text/css">
	.st0{fill:url(#SVGID_1_);}
	.st1{clip-path:url(#SVGID_00000045594512641827562790000009924005816994429583_);}
	.st2{opacity:0.22;fill:#756345;enable-background:new    ;}
	.st3{fill:#633535;}
	.st4{fill:url(#SVGID_00000010285130740452426860000005240750523386357694_);}
	.st5{fill:url(#SVGID_00000106110143325933392540000007347637467365951678_);}
</style>
<g>
	<g id="Layer_2_00000127016977543747319730000013344319015993853590_">
		<g id="Bubble">
			<g>
				
					<linearGradient id="SVGID_1_" gradientUnits="userSpaceOnUse" x1="78.1943" y1="-114.4143" x2="376.3143" y2="183.6956" gradientTransform="matrix(1 0 0 -1 0 258)">
					<stop  offset="0.12" style="stop-color:#9E8255"/>
					<stop  offset="1" style="stop-color:#9E907A"/>
				</linearGradient>
				<path class="st0" d="M296.6,80.3c-48.8-16-89.1-10.2-116.7-6.3c-25.4,3.6-69.1,10.3-110.4,42.3c-0.6,0.4-1,0.8-1.1,0.9
					c-11,8.6-64.6,53.2-68,119.1C0,243.3-5,316,47.1,353c26,18.5,54.3,22.4,114.8,25.2c24.6,1.1,104.2,3.1,190.4-31.4
					c22.5-9,38.8-17.9,52.1-34.5c24.8-31,23.4-68.8,22.9-80.3c-1.8-47.4-27.8-79.6-38.9-93C356.4,100.4,317.2,87,296.6,80.3
					L296.6,80.3z"/>
				<g>
					<g>
						<g>
							<defs>
								<path id="SVGID_00000152981086027511418290000013433831359119786373_" d="M296.6,80.3c-48.8-16-89.1-10.2-116.7-6.3
									c-25.4,3.6-69.1,10.3-110.4,42.3c-0.6,0.4-1,0.8-1.1,0.9c-11,8.6-64.6,53.2-68,119.1C0,243.3-5,316,47.1,353
									c26,18.5,54.3,22.4,114.8,25.2c24.6,1.1,104.2,3.1,190.4-31.4c22.5-9,38.8-17.9,52.1-34.5c24.8-31,23.4-68.8,22.9-80.3
									c-1.8-47.4-27.8-79.6-38.9-93C356.4,100.4,317.2,87,296.6,80.3L296.6,80.3z"/>
							</defs>
							<clipPath id="SVGID_00000004544733996648109680000006712239459224393101_">
								<use xlink:href="#SVGID_00000152981086027511418290000013433831359119786373_"  style="overflow:visible;"/>
							</clipPath>
							<g style="clip-path:url(#SVGID_00000004544733996648109680000006712239459224393101_);">
								<path class="st2" d="M-5.6,261.4c13.4,21.9,38.4,54.8,80.2,76.6c38.3,20,74.3,22.1,101.6,23.8c31.2,1.9,58.1-1.4,77.6-3.7
									c23.7-2.9,43.5-6.8,57.8-10c-5.7,5.5-104.2,97.2-207.9,64.5c-14.3-4.5-56.4-17.8-84.9-60.8C-5.5,315-6.1,276.8-5.6,261.4
									L-5.6,261.4z"/>
							</g>
						</g>
					</g>
				</g>
				<path class="st3" d="M320.5,189.7c2-1.8,10.4,10.7,27,12.8c2.8,0.4,10,0.9,18-1.9c12.1-4.3,17.2-13.2,18.3-12.4
					c1.3,1.1-4.4,16.9-18.8,24.1c-3.8,1.9-14.6,6.4-25.9,1.9C324.6,208.5,318.3,191.5,320.5,189.7L320.5,189.7z"/>
				
					<linearGradient id="SVGID_00000137106636882159404430000013791715441845157304_" gradientUnits="userSpaceOnUse" x1="310.8918" y1="222.3918" x2="340.3782" y2="251.8782" gradientTransform="matrix(1 0 0 -1 0 258)">
					<stop  offset="0.12" style="stop-color:#9E8255"/>
					<stop  offset="1" style="stop-color:#9E907A"/>
				</linearGradient>
				<circle style="fill:url(#SVGID_00000137106636882159404430000013791715441845157304_);" cx="325.6" cy="20.9" r="20.9"/>
				
					<linearGradient id="SVGID_00000124134594593343580130000008722369566421218949_" gradientUnits="userSpaceOnUse" x1="367.7421" y1="192.3421" x2="387.0179" y2="211.6179" gradientTransform="matrix(1 0 0 -1 0 258)">
					<stop  offset="0.12" style="stop-color:#9E8255"/>
					<stop  offset="1" style="stop-color:#9E907A"/>
				</linearGradient>
				<circle style="fill:url(#SVGID_00000124134594593343580130000008722369566421218949_);" cx="377.4" cy="56" r="13.6"/>
			</g>
		</g>
	</g>
</g>
</svg>
