<?xml version="1.0" encoding="UTF-8"?>
<svg id="Layer_2" data-name="Layer 2" xmlns="http://www.w3.org/2000/svg" viewBox="0 0 50 50">
  <g id="Layer_1-2" data-name="Layer 1">
    <path d="m25,22.5c3.32,0,6.49,1.32,8.84,3.66,2.34,2.34,3.66,5.52,3.66,8.84v15H12.5v-15c0-3.32,1.32-6.49,3.66-8.84,2.34-2.34,5.52-3.66,8.84-3.66Zm-16.78,7.52c-.4,1.34-.63,2.73-.7,4.13l-.02.86v15H0v-11.25c0-2.16.8-4.24,2.23-5.84,1.44-1.61,3.42-2.62,5.56-2.86l.42-.04Zm33.56,0c2.22.14,4.31,1.11,5.84,2.74,1.53,1.62,2.38,3.77,2.38,6v11.25h-7.5v-15c0-1.73-.25-3.4-.72-4.99ZM8.75,15c1.66,0,3.25.66,4.42,1.83,1.17,1.17,1.83,2.76,1.83,4.42s-.66,3.25-1.83,4.42c-1.17,1.17-2.76,1.83-4.42,1.83s-3.25-.66-4.42-1.83c-1.17-1.17-1.83-2.76-1.83-4.42s.66-3.25,1.83-4.42c1.17-1.17,2.76-1.83,4.42-1.83Zm32.5,0c1.66,0,3.25.66,4.42,1.83,1.17,1.17,1.83,2.76,1.83,4.42s-.66,3.25-1.83,4.42c-1.17,1.17-2.76,1.83-4.42,1.83s-3.25-.66-4.42-1.83c-1.17-1.17-1.83-2.76-1.83-4.42s.66-3.25,1.83-4.42c1.17-1.17,2.76-1.83,4.42-1.83ZM25,0c2.65,0,5.2,1.05,7.07,2.93,1.88,1.88,2.93,4.42,2.93,7.07s-1.05,5.2-2.93,7.07c-1.88,1.88-4.42,2.93-7.07,2.93s-5.2-1.05-7.07-2.93c-1.88-1.88-2.93-4.42-2.93-7.07s1.05-5.2,2.93-7.07c1.88-1.88,4.42-2.93,7.07-2.93Z"/>
  </g>
</svg>