<svg width="63" height="39" viewBox="0 0 63 39" fill="none" xmlns="http://www.w3.org/2000/svg">
<g clip-path="url(#clip0_489_2945)">
<path d="M57.6171 6.72637C56.5911 5.49795 56.2348 4.66567 55.7004 4.51903C53.7132 3.96483 51.6917 3.27731 49.6252 3.24115C44.0908 2.96125 38.9537 4.49829 34.0399 6.9019C25.6564 10.9815 18.8376 17.0038 12.6755 23.9231C12.0147 24.6621 11.3367 25.3344 10.6093 26.0905C10.5428 26.1077 10.3926 26.0753 10.1587 25.9934C10.1799 24.4241 10.1839 22.7881 10.1387 21.2358C10.0656 20.4017 9.82507 19.4684 9.35286 18.7371C9.09957 18.3047 8.19607 17.8267 7.73043 17.9467C7.13174 18.101 6.52026 18.7562 6.09115 19.2932C5.84444 19.7122 5.93252 20.3293 5.9369 20.8969C5.96973 25.1536 5.86951 29.4445 5.98604 33.7507C6.08102 37.4227 7.50389 38.2644 10.8449 37.1902C14.319 36.0817 17.8274 35.1066 21.2522 34.0819C22.2993 33.741 23.3786 33.2496 24.5417 32.8077C22.5563 30.3337 22.5563 30.3337 11.5223 32.1108C15.0965 26.7114 19.4307 22.6089 23.9494 18.6721C28.4681 14.7354 33.4762 11.5966 39.0231 9.17206C44.7695 6.69607 50.7157 6.37221 57.6171 6.72637Z" fill="white"/>
</g>
<defs>
<clipPath id="clip0_489_2945">
<rect width="24.4261" height="56.9941" fill="white" transform="matrix(0.249538 0.968365 0.968365 -0.249538 0.785339 14.582)"/>
</clipPath>
</defs>
</svg>
