<svg width="25" height="19" viewBox="0 0 25 19" fill="none" xmlns="http://www.w3.org/2000/svg">
<path d="M12.605 17.738C11.6245 17.2759 9.98043 16.6538 7.86536 16.556C6.73377 16.5027 5.70881 16.6094 4.82309 16.7871C3.33603 17.0863 1.9408 15.9902 1.9408 14.4736V3.96635C1.9408 2.93844 2.59547 2.01421 3.57598 1.71206C4.69276 1.36547 6.15612 1.08108 7.86536 1.16106C9.98043 1.26178 11.6245 1.88385 12.605 2.34597V17.738Z" stroke="white" stroke-width="2" stroke-linecap="round" stroke-linejoin="round"/>
<path d="M12.6046 17.738C13.5851 17.2759 15.2292 16.6538 17.3443 16.556C18.4759 16.5027 19.5008 16.6094 20.3865 16.7871C21.8736 17.0863 23.2688 15.9902 23.2688 14.4736V3.96635C23.2688 2.93844 22.6142 2.01421 21.6336 1.71206C20.5169 1.36547 19.0535 1.08108 17.3443 1.16106C15.2292 1.26178 13.5851 1.88385 12.6046 2.34597" stroke="white" stroke-width="2" stroke-linecap="round" stroke-linejoin="round"/>
</svg>
