<?xml version="1.0" encoding="UTF-8"?>
<svg id="Layer_2" data-name="Layer 2" xmlns="http://www.w3.org/2000/svg" viewBox="0 0 50 50">
  <defs>
    <style>
      .cls-1 {
        fill: #896686;
      }
    </style>
  </defs>
  <g id="Layer_1-2" data-name="Layer 1">
    <path class="cls-1" d="m31.24,25L48.69,7.54c.83-.83,1.29-1.95,1.3-3.12,0-1.17-.46-2.29-1.29-3.12C47.87.47,46.75,0,45.58,0c-1.17,0-2.29.46-3.12,1.29l-17.46,17.46L7.54,1.29c-.83-.83-1.95-1.29-3.12-1.29S2.12.47,1.29,1.29c-.83.83-1.29,1.95-1.29,3.12s.47,2.3,1.29,3.12l17.46,17.46L1.29,42.46c-.83.83-1.29,1.95-1.29,3.12s.47,2.3,1.29,3.12c.83.83,1.95,1.29,3.12,1.29s2.3-.47,3.12-1.29l17.46-17.46,17.46,17.46c.83.83,1.95,1.29,3.12,1.29s2.3-.47,3.12-1.29,1.29-1.95,1.29-3.12-.47-2.3-1.29-3.12l-17.47-17.46Z"/>
  </g>
</svg>