<?xml version="1.0" encoding="utf-8"?>
<!-- Generator: Adobe Illustrator 27.4.0, SVG Export Plug-In . SVG Version: 6.00 Build 0)  -->
<svg version="1.1" id="Layer_1" xmlns="http://www.w3.org/2000/svg" xmlns:xlink="http://www.w3.org/1999/xlink" x="0px" y="0px"
	 viewBox="0 0 14 24" style="enable-background:new 0 0 14 24;" xml:space="preserve">
<style type="text/css">
	.st0{fill:#896686;enable-background:new    ;}
</style>
<path class="st0" d="M11.2,22.7L1.1,12.7c-0.1-0.1-0.2-0.2-0.3-0.4c-0.1-0.1-0.1-0.3-0.1-0.4c0-0.2,0-0.3,0.1-0.4
	c0-0.1,0.1-0.3,0.3-0.4L11.2,0.9c0.3-0.3,0.6-0.4,1-0.4c0.4,0,0.8,0.1,1.1,0.4c0.3,0.3,0.4,0.6,0.4,1c0,0.4-0.1,0.7-0.4,1l-8.8,8.8
	l8.8,8.8c0.3,0.3,0.4,0.6,0.4,1s-0.1,0.8-0.4,1.1c-0.3,0.3-0.6,0.4-1,0.4C11.8,23.2,11.5,23,11.2,22.7z"/>
</svg>
