<svg width="14" height="24" viewBox="0 0 14 24" fill="none" xmlns="http://www.w3.org/2000/svg">
<path opacity="0.2" d="M11.174 22.7211L1.07951 12.6566C0.959695 12.5367 0.874627 12.4069 0.824304 12.2672C0.773982 12.1274 0.74922 11.9776 0.750019 11.8179C0.750019 11.6581 0.77478 11.5083 0.824304 11.3685C0.873828 11.2288 0.958897 11.099 1.07951 10.9791L11.174 0.884686C11.4535 0.605117 11.803 0.465332 12.2224 0.465332C12.6417 0.465332 13.0012 0.615101 13.3007 0.91464C13.6002 1.21418 13.75 1.56364 13.75 1.96303C13.75 2.36241 13.6002 2.71187 13.3007 3.01141L4.49425 11.8179L13.3007 20.6243C13.5803 20.9039 13.72 21.2485 13.72 21.6583C13.72 22.0681 13.5703 22.4223 13.2707 22.7211C12.9712 23.0206 12.6217 23.1704 12.2224 23.1704C11.823 23.1704 11.4735 23.0206 11.174 22.7211Z" fill="#896686"/>
</svg>
