<svg width="62" height="52" viewBox="0 0 62 52" fill="none" xmlns="http://www.w3.org/2000/svg">
<g clip-path="url(#clip0_489_2935)">
<path d="M9.65144 46.0471C11.0076 46.8971 11.6044 47.5779 12.1578 47.5517C14.219 47.4627 16.354 47.4898 18.33 46.8837C23.6786 45.4345 28.0863 42.381 32.0132 38.5727C38.7194 32.0956 43.3359 24.2565 47.0499 15.768C47.4492 14.8606 47.8854 14.0113 48.3426 13.0669C48.4005 13.03 48.5534 13.0143 48.8012 13.0196C49.2674 14.5183 49.7706 16.075 50.2948 17.5367C50.6228 18.3071 51.1407 19.1199 51.8163 19.6689C52.1911 20.0014 53.1983 20.1758 53.6038 19.9174C54.1252 19.5852 54.5035 18.7728 54.745 18.1291C54.8497 17.6543 54.5747 17.0949 54.3947 16.5567C53.0441 12.5198 51.8095 8.40907 50.364 4.35105C49.1356 0.889338 47.5219 0.530021 44.6783 2.58685C41.7189 4.71752 38.6855 6.73205 35.747 8.76775C34.8571 9.41645 33.9832 10.2182 33.0144 10.9987C35.6688 12.7356 35.6688 12.7356 45.6087 7.62609C43.8839 13.8675 41.0347 19.1112 37.9587 24.2547C34.8827 29.3981 31.094 33.9345 26.5718 37.9589C21.8758 42.094 16.3227 44.2449 9.65144 46.0471Z" fill="white"/>
</g>
<defs>
<clipPath id="clip0_489_2935">
<rect width="24.4261" height="56.9941" fill="white" transform="matrix(-0.537386 -0.843337 -0.843337 0.537386 61.2498 20.9639)"/>
</clipPath>
</defs>
</svg>
