<svg width="62" height="39" viewBox="0 0 62 39" fill="none" xmlns="http://www.w3.org/2000/svg">
<g clip-path="url(#clip0_489_2938)">
<path d="M4.94391 7.33447C5.95822 6.09644 6.30672 5.26085 6.83967 5.10918C8.82157 4.53628 10.8365 3.82974 12.9026 3.77411C18.4341 3.44207 23.5855 4.93064 28.5217 7.28784C36.9433 11.2883 43.8185 17.2461 50.0455 24.107C50.7133 24.8397 51.3976 25.5056 52.132 26.2549C52.1987 26.2714 52.3486 26.2376 52.5817 26.1535C52.5457 24.5844 52.5263 22.9485 52.5569 21.3959C52.6222 20.5611 52.8539 19.6256 53.3192 18.8899C53.5683 18.4552 54.4673 17.9687 54.9341 18.0843C55.5342 18.2329 56.1518 18.8823 56.5859 19.4153C56.8366 19.832 56.7543 20.4498 56.7553 21.0174C56.7626 25.2742 56.9032 29.564 56.8273 33.8711C56.7669 37.5438 55.352 38.399 52.001 37.3563C48.5167 36.2806 44.9992 35.3385 41.565 34.3461C40.5146 34.0151 39.4307 33.5339 38.2636 33.103C40.2256 30.6104 40.2256 30.6104 51.2759 32.2835C47.6509 26.9179 43.2783 22.8565 38.7226 18.9625C34.167 15.0685 29.1296 11.977 23.5601 9.60485C17.7907 7.18312 11.8416 6.9153 4.94391 7.33447Z" fill="white"/>
</g>
<defs>
<clipPath id="clip0_489_2938">
<rect width="24.4261" height="56.9941" fill="white" transform="translate(61.8471 14.6543) rotate(103.91)"/>
</clipPath>
</defs>
</svg>
