<?xml version="1.0" encoding="UTF-8"?>
<svg id="Layer_2" data-name="Layer 2" xmlns="http://www.w3.org/2000/svg" viewBox="0 0 50 47.8">
  <g id="Layer_1-2" data-name="Layer 1">
    <g>
      <path d="m0,47.8l3.01-11.47L30.97,9.69c1.18-1.12,3.08-1.12,4.26,0l4.77,4.55c1.18,1.12,1.18,2.94,0,4.06l-27.96,26.64-12.04,2.87Z"/>
      <path d="m46.72,12.12c-.81,0-1.63-.3-2.26-.91l-5.84-5.56c-1.31-1.25-1.36-3.33-.11-4.64,1.25-1.31,3.33-1.36,4.64-.11l5.84,5.56c1.31,1.25,1.36,3.33.11,4.64-.65.68-1.51,1.02-2.38,1.02Z"/>
    </g>
  </g>
</svg>