<?xml version="1.0" encoding="UTF-8"?>
<svg id="Layer_2" data-name="Layer 2" xmlns="http://www.w3.org/2000/svg" viewBox="0 0 50 35.37">
  <g id="Layer_1-2" data-name="Layer 1">
    <g>
      <path d="m2.21,2.37c-1.33.39-2.21,1.54-2.21,2.86v26.17c0,1.15.67,1.87,1.07,2.21.82.68,1.94.95,3.05.74,2.3-.44,4.63-.66,6.96-.66.56,0,1.11.01,1.66.04,3.2.14,6.34.69,9.38,1.65V3.11c-3.09-1.18-6.32-1.85-9.64-2-3.48-.16-6.92.27-10.27,1.26Z"/>
      <path d="m37.26,32.64c2.86-.13,5.77.08,8.62.62,1.12.21,2.23-.06,3.05-.74.4-.33,1.07-1.06,1.07-2.21V4.15c0-1.32-.89-2.47-2.21-2.86C44.44.3,40.99-.12,37.52.03c-3.32.15-6.55.85-9.64,2.03v32.26c3.04-.96,6.18-1.54,9.39-1.68Z"/>
      <path d="m27.87,34.32V2.06c-.57.22-1.14.42-1.7.67-.38.17-.78.24-1.18.24v32.39c.95-.39,1.9-.74,2.87-1.05Z"/>
    </g>
  </g>
</svg>