<?xml version="1.0" encoding="UTF-8"?>
<svg id="Layer_2" data-name="Layer 2" xmlns="http://www.w3.org/2000/svg" viewBox="0 0 38.89 50">
  <g id="Layer_1-2" data-name="Layer 1">
    <path d="m33.33,0H5.56C2.49,0,0,2.49,0,5.56v38.89c0,3.07,2.49,5.56,5.56,5.56h27.78c3.07,0,5.56-2.49,5.56-5.56V5.56c0-3.07-2.49-5.56-5.56-5.56Zm-6.95,37.95h-13.89c-1.02,0-1.84-.82-1.84-1.84s.82-1.84,1.84-1.84h13.89c1.02,0,1.84.82,1.84,1.84s-.82,1.84-1.84,1.84Zm0-11.11h-13.89c-1.02,0-1.84-.82-1.84-1.84s.82-1.84,1.84-1.84h13.89c1.02,0,1.84.82,1.84,1.84s-.82,1.84-1.84,1.84Zm0-11.11h-13.89c-1.02,0-1.84-.82-1.84-1.84s.82-1.84,1.84-1.84h13.89c1.02,0,1.84.82,1.84,1.84s-.82,1.84-1.84,1.84Z"/>
  </g>
</svg>