<svg width="23" height="18" viewBox="0 0 23 18" fill="none" xmlns="http://www.w3.org/2000/svg">
<path d="M11.2166 16.8942C10.2773 16.4515 8.70221 15.8555 6.67591 15.7619C5.59181 15.7108 4.60987 15.813 3.76132 15.9832C2.33667 16.2699 1 15.2198 1 13.7668V3.70058C1 2.71581 1.62719 1.83037 2.56656 1.5409C3.63647 1.20886 5.03841 0.936401 6.67591 1.01303C8.70221 1.10952 10.2773 1.70549 11.2166 2.14821V16.8942Z" fill="black" stroke="#DEDEDE" stroke-width="2" stroke-linecap="round" stroke-linejoin="round"/>
<path d="M11.2167 16.8942C12.156 16.4515 13.7311 15.8555 15.7574 15.7619C16.8415 15.7108 17.8234 15.813 18.672 15.9832C20.0966 16.2699 21.4333 15.2198 21.4333 13.7668V3.70058C21.4333 2.71581 20.8061 1.83037 19.8668 1.5409C18.7968 1.20886 17.3949 0.936401 15.7574 1.01303C13.7311 1.10952 12.156 1.70549 11.2167 2.14821" fill="black"/>
<path d="M11.2167 16.8942C12.156 16.4515 13.7311 15.8555 15.7574 15.7619C16.8415 15.7108 17.8234 15.813 18.672 15.9832C20.0966 16.2699 21.4333 15.2198 21.4333 13.7668V3.70058C21.4333 2.71581 20.8061 1.83037 19.8668 1.5409C18.7968 1.20886 17.3949 0.936401 15.7574 1.01303C13.7311 1.10952 12.156 1.70549 11.2167 2.14821" stroke="#DEDEDE" stroke-width="2" stroke-linecap="round" stroke-linejoin="round"/>
</svg>
