<svg width="14" height="24" viewBox="0 0 14 24" fill="none" xmlns="http://www.w3.org/2000/svg">
<path opacity="0.2" d="M3.32603 0.914678L13.4205 10.9792C13.5403 11.099 13.6254 11.2288 13.6757 11.3686C13.726 11.5084 13.7508 11.6581 13.75 11.8179C13.75 11.9776 13.7252 12.1274 13.6757 12.2672C13.6262 12.407 13.5411 12.5368 13.4205 12.6566L3.32603 22.7511C3.04646 23.0306 2.697 23.1704 2.27765 23.1704C1.85829 23.1704 1.49885 23.0206 1.19931 22.7211C0.89977 22.4216 0.75 22.0721 0.75 21.6727C0.75 21.2733 0.89977 20.9239 1.19931 20.6243L10.0057 11.8179L1.19931 3.01145C0.919741 2.73188 0.779956 2.38721 0.779956 1.97744C0.779956 1.56767 0.929725 1.21342 1.22926 0.914677C1.5288 0.61514 1.87826 0.465369 2.27765 0.465369C2.67703 0.465369 3.0265 0.61514 3.32603 0.914678Z" fill="#896686"/>
</svg>
