<?xml version="1.0" encoding="utf-8"?>
<!-- Generator: Adobe Illustrator 27.4.0, SVG Export Plug-In . SVG Version: 6.00 Build 0)  -->
<svg version="1.1" id="Layer_1" xmlns="http://www.w3.org/2000/svg" xmlns:xlink="http://www.w3.org/1999/xlink" x="0px" y="0px"
	 viewBox="0 0 14 24" style="enable-background:new 0 0 14 24;" xml:space="preserve">
<style type="text/css">
	.st0{fill:#896686;enable-background:new    ;}
</style>
<path class="st0" d="M3.3,0.9L13.4,11c0.1,0.1,0.2,0.2,0.3,0.4c0.1,0.1,0.1,0.3,0.1,0.4c0,0.2,0,0.3-0.1,0.4c0,0.1-0.1,0.3-0.3,0.4
	L3.3,22.8c-0.3,0.3-0.6,0.4-1,0.4c-0.4,0-0.8-0.1-1.1-0.4s-0.4-0.6-0.4-1c0-0.4,0.1-0.7,0.4-1l8.8-8.8L1.2,3C0.9,2.7,0.8,2.4,0.8,2
	s0.1-0.8,0.4-1.1c0.3-0.3,0.6-0.4,1-0.4C2.7,0.5,3,0.6,3.3,0.9z"/>
</svg>
