<svg width="63" height="39" viewBox="0 0 63 39" fill="none" xmlns="http://www.w3.org/2000/svg">
<g clip-path="url(#clip0_489_2942)">
<path d="M5.23044 7.33447C6.24475 6.09644 6.59325 5.26085 7.1262 5.10918C9.1081 4.53628 11.1231 3.82974 13.1892 3.77411C18.7206 3.44207 23.872 4.93064 28.8082 7.28784C37.2298 11.2883 44.1051 17.2461 50.332 24.107C50.9998 24.8397 51.6841 25.5056 52.4185 26.2549C52.4852 26.2714 52.6351 26.2376 52.8683 26.1535C52.8323 24.5844 52.8128 22.9485 52.8435 21.3959C52.9087 20.5611 53.1404 19.6256 53.6057 18.8899C53.8549 18.4552 54.7538 17.9687 55.2206 18.0843C55.8207 18.2329 56.4383 18.8823 56.8725 19.4153C57.1231 19.832 57.0409 20.4498 57.0418 21.0174C57.0491 25.2742 57.1898 29.564 57.1138 33.8711C57.0534 37.5438 55.6386 38.399 52.2876 37.3563C48.8032 36.2806 45.2857 35.3385 41.8515 34.3461C40.8012 34.0151 39.7173 33.5339 38.5501 33.103C40.5121 30.6104 40.5121 30.6104 51.5624 32.2835C47.9374 26.9179 43.5648 22.8565 39.0092 18.9625C34.4536 15.0685 29.4161 11.977 23.8467 9.60485C18.0772 7.18312 12.1281 6.9153 5.23044 7.33447Z" fill="white"/>
</g>
<defs>
<clipPath id="clip0_489_2942">
<rect width="24.4261" height="56.9941" fill="white" transform="translate(62.1337 14.6543) rotate(103.91)"/>
</clipPath>
</defs>
</svg>
