<?xml version="1.0" encoding="UTF-8"?>
<svg id="Layer_2" data-name="Layer 2" xmlns="http://www.w3.org/2000/svg" viewBox="0 0 47.62 50">
  <g id="Layer_1-2" data-name="Layer 1">
    <path d="m5.95,0h27.38c1.58,0,3.09.63,4.21,1.74,1.12,1.12,1.74,2.63,1.74,4.21v16.22c-2.71-.88-5.62-.99-8.39-.32-2.77.67-5.31,2.09-7.32,4.1-2.02,2.02-3.44,4.55-4.1,7.32-.67,2.77-.55,5.68.32,8.39H3.57c0,.63.25,1.24.7,1.68.45.45,1.05.7,1.68.7h14.84c.68,1.31,1.55,2.51,2.57,3.57H5.95c-1.58,0-3.09-.63-4.21-1.74-1.12-1.12-1.74-2.63-1.74-4.21V5.95c0-1.58.63-3.09,1.74-4.21C2.86.63,4.37,0,5.95,0Zm3.57,7.14c-.63,0-1.24.25-1.68.7-.45.45-.7,1.05-.7,1.68v2.38c0,.63.25,1.24.7,1.68s1.05.7,1.68.7h19.05c.63,0,1.24-.25,1.68-.7.45-.45.7-1.05.7-1.68v-2.38c0-.63-.25-1.24-.7-1.68-.45-.45-1.05-.7-1.68-.7H9.52Zm38.1,29.76c0-3.47-1.38-6.8-3.84-9.26s-5.79-3.84-9.26-3.84-6.8,1.38-9.26,3.84c-2.46,2.46-3.84,5.79-3.84,9.26s1.38,6.8,3.84,9.26c2.46,2.46,5.79,3.84,9.26,3.84s6.8-1.38,9.26-3.84c2.46-2.46,3.84-5.79,3.84-9.26Zm-14.49-5.72l6.68,4.38c.21.13.38.32.49.53.12.22.18.46.17.71,0,.25-.06.49-.17.71-.11.22-.27.4-.47.54l-6.68,4.56c-.12.08-.24.14-.38.18-.31.1-.64.08-.94-.05-.17-.08-.33-.19-.46-.32-.13-.14-.23-.3-.31-.48-.07-.18-.11-.37-.11-.56v-8.95c0-.29.08-.57.24-.81.16-.24.38-.43.64-.55.21-.1.44-.14.67-.12.23.02.45.1.64.23h0Z"/>
  </g>
</svg>