<?xml version="1.0" encoding="utf-8"?>
<!-- Generator: Adobe Illustrator 27.4.0, SVG Export Plug-In . SVG Version: 6.00 Build 0)  -->
<svg version="1.1" id="Layer_1" xmlns="http://www.w3.org/2000/svg" xmlns:xlink="http://www.w3.org/1999/xlink" x="0px" y="0px"
	 viewBox="0 0 169.7 144.8" style="enable-background:new 0 0 169.7 144.8;" xml:space="preserve">
<style type="text/css">
	.st0{fill:#FFFFFF;}
</style>
<path class="st0" d="M52.6,92.1c-1.5,0-3-0.7-4-2l-45-60.9c-2.9-3.9-4.1-8.8-3.4-13.6c0.7-4.9,3.3-9.1,7.3-12
	c3.9-2.9,8.8-4.1,13.6-3.4c4.9,0.7,9.1,3.3,12,7.3L49.9,30c1.3-2.6,3.2-4.8,5.5-6.6c3.9-2.9,8.8-4.1,13.6-3.4c2.5,0.4,4.9,1.3,7,2.6
	c1.3-3.1,3.4-5.9,6.1-7.9c3.9-2.9,8.8-4.1,13.6-3.4c4.9,0.7,9.1,3.3,12,7.3l7.9,10.8c1.6,2.2,1.2,5.4-1.1,7c-2.2,1.6-5.4,1.2-7-1.1
	l-7.6-10.8c-1.3-1.8-3.3-3-5.5-3.3s-4.4,0.2-6.2,1.5s-3,3.3-3.3,5.5s0.2,4.4,1.5,6.2l0,0l7.9,10.7c1.6,2.2,1.2,5.4-1.1,7
	c-2.2,1.6-5.4,1.2-7-1.1L73,33.1c-1.3-1.8-3.3-3-5.5-3.3s-4.4,0.2-6.2,1.5s-3,3.3-3.3,5.5s0.2,4.4,1.5,6.2l10.6,14.3c0,0,0,0,0,0.1
	l2.6,3.5c1.6,2.2,1.2,5.4-1.1,7c-2.2,1.6-5.4,1.2-7-1.1L25.1,13.2c-1.3-1.8-3.3-3-5.5-3.3s-4.4,0.2-6.2,1.5s-3,3.3-3.3,5.5
	s0.2,4.4,1.5,6.2l45,60.9c1.6,2.2,1.2,5.4-1.1,7C54.7,91.7,53.6,92.1,52.6,92.1z"/>
<path class="st0" d="M98.7,144.8c-6.9,0-13.7-1.2-20.2-3.6l-3-1.1c-4.9-1.8-22.6-9.6-54.2-23.8c-4.4-2-7.8-5.5-9.5-10
	c-1.8-4.5-1.7-9.4,0.1-13.8s5.2-8.2,9.3-10.5c4.2-2.4,9.1-3.3,13.8-2.6l18.3,2.8c2.7,0.4,4.6,3,4.2,5.7s-3,4.6-5.7,4.2l-18.3-2.8
	c-2.5-0.4-5.2,0.1-7.4,1.4s-4,3.3-5,5.7c-0.8,2-0.9,4.3-0.1,6.3s2.4,3.7,4.3,4.6c30.9,13.9,48.9,21.8,53.6,23.6l3,1.1
	c7.5,2.8,15.6,3.6,23.6,2.5c7.9-1.1,15.4-4.2,21.8-8.9l12.9-9.6c10.4-7.7,17.2-19,19.1-31.8c1.9-12.8-1.2-25.6-8.9-36l-23.8-32.3
	c-1.3-1.8-3.3-3-5.5-3.3s-4.4,0.2-6.2,1.5s-3,3.3-3.3,5.5s0.2,4.4,1.5,6.2c1.6,2.2,1.2,5.4-1.1,7c-2.2,1.6-5.4,1.2-7-1.1
	c-2.9-3.9-4.1-8.8-3.4-13.6s3.3-9.1,7.3-12c3.9-2.9,8.8-4.1,13.6-3.4c4.9,0.7,9.1,3.3,12,7.3l23.8,32.3c9.3,12.6,13.1,28,10.8,43.4
	S158.6,114.8,146,124l-12.8,9.5l0,0l0,0l-1.5,1.1c-0.2,0.2-0.4,0.3-0.7,0.4c-7.3,4.9-15.6,8.1-24.3,9.3
	C104.2,144.6,101.4,144.8,98.7,144.8z"/>
</svg>
