<?xml version="1.0" encoding="utf-8"?>
<!-- Generator: Adobe Illustrator 27.4.0, SVG Export Plug-In . SVG Version: 6.00 Build 0)  -->
<svg version="1.1" id="Layer_1" xmlns="http://www.w3.org/2000/svg" xmlns:xlink="http://www.w3.org/1999/xlink" x="0px" y="0px"
	 viewBox="0 0 117.4 109.4" style="enable-background:new 0 0 117.4 109.4;" xml:space="preserve">
<style type="text/css">
	.st0{fill:#FFFFFF;}
</style>
<path class="st0" d="M24.5,109.4c-1.5,0-3-0.7-4-2c-1.6-2.2-1.2-5.4,1.1-7l7.2-5.3c2.2-1.6,5.4-1.2,7,1.1c1.6,2.2,1.2,5.4-1.1,7
	l-7.2,5.3C26.5,109.1,25.5,109.4,24.5,109.4z"/>
<path class="st0" d="M17.6,70.2c-0.2,0-0.5,0-0.8-0.1L4.3,68.2c-2.7-0.4-4.6-3-4.2-5.7s3-4.6,5.7-4.2l12.5,1.9
	c2.7,0.4,4.6,3,4.2,5.7C22.2,68.4,20.1,70.2,17.6,70.2z"/>
<path class="st0" d="M105.2,38.8c-1.5,0-3-0.7-4-2c-1.6-2.2-1.2-5.4,1.1-7l7.2-5.3c2.2-1.6,5.4-1.2,7,1.1c1.6,2.2,1.2,5.4-1.1,7
	l-7.2,5.3C107.3,38.4,106.2,38.8,105.2,38.8z"/>
<path class="st0" d="M82.2,22.6c-0.2,0-0.5,0-0.8-0.1c-2.7-0.4-4.6-3-4.2-5.7l1.9-12.5c0.4-2.7,3-4.6,5.7-4.2s4.6,3,4.2,5.7
	l-1.9,12.5C86.7,20.8,84.6,22.6,82.2,22.6z"/>
</svg>
