<svg width="17" height="16" viewBox="0 0 17 16" fill="none" xmlns="http://www.w3.org/2000/svg">
<g clip-path="url(#clip0_701_6100)">
<path d="M5.3047 1.46508C3.45726 1.19134 1.72501 2.55481 1.43518 4.51082C1.14536 6.46682 2.4078 8.27402 4.25524 8.54776C4.90338 8.6438 5.537 8.53786 6.09977 8.27562C5.47772 11.264 2.76803 11.5229 0.562649 11.1962L0.316897 12.8547C2.64777 13.2001 4.47064 12.8036 5.80682 11.7772C6.87251 10.9584 8.07139 8.48829 8.35161 5.57421C8.5322 3.69151 7.28043 1.65984 5.3047 1.46508Z" fill="black"/>
<path d="M16.25 6.74176C16.431 4.86144 15.1792 2.82977 13.2035 2.635C11.3561 2.36126 9.62381 3.72473 9.33399 5.68074C9.04416 7.63674 10.3066 9.44394 12.154 9.71768C12.8022 9.81372 13.4358 9.70778 13.9986 9.44554C13.3765 12.434 10.6668 12.6929 8.46145 12.3661L8.2157 14.0246C10.5466 14.37 12.3694 13.9735 13.7056 12.9472C14.7713 12.1284 15.9702 9.65821 16.2504 6.74413L16.25 6.74176Z" fill="black"/>
</g>
<defs>
<clipPath id="clip0_701_6100">
<rect width="15" height="12" fill="white" transform="translate(1.96045 0.965332) rotate(8.42828)"/>
</clipPath>
</defs>
</svg>
