<?xml version="1.0" encoding="utf-8"?>
<!-- Generator: Adobe Illustrator 27.4.0, SVG Export Plug-In . SVG Version: 6.00 Build 0)  -->
<svg version="1.1" id="Layer_1" xmlns="http://www.w3.org/2000/svg" xmlns:xlink="http://www.w3.org/1999/xlink" x="0px" y="0px"
	 viewBox="0 0 276.5 284.9" style="enable-background:new 0 0 276.5 284.9;" xml:space="preserve">
<style type="text/css">
	.st0{fill:none;stroke:#FFFFFF;stroke-width:9.373;stroke-miterlimit:10;}
</style>
<path class="st0" d="M195.9,94.7c-4.7-9.4-12.2-15.9-21.6-20.6s-19.7-7.5-31.9-7.5c-21.6,0-38.4,7.5-51.6,21.6s-19.7,32.8-19.7,55.3
	c0,25.3,6.6,44.1,19.7,58.1c13.1,14.1,31.9,20.6,56.2,20.6c15.9,0,30-3.7,40.3-12.2c11.2-8.4,19.7-19.7,24.4-35.6h-83.4v-48.7h143.4
	v60.9c-4.7,16.9-13.1,31.9-25.3,45.9c-11.2,14.1-26.2,25.3-44.1,34.7c-17.8,8.4-38.4,13.1-60.9,13.1c-27.2,0-50.6-5.6-71.2-17.8
	c-20.6-12.2-37.5-28.1-48.7-48.7s-16.9-45-16.9-71.2s5.6-50.6,16.9-71.2c12.2-20.6,28.1-37.5,48.7-48.7c20.6-12.2,45-17.8,71.2-17.8
	c31.9,0,59,7.5,81.5,23.4s37.5,37.5,44.1,64.7L195.9,94.7L195.9,94.7z"/>
</svg>
