<?xml version="1.0" encoding="utf-8"?>
<!-- Generator: Adobe Illustrator 27.4.0, SVG Export Plug-In . SVG Version: 6.00 Build 0)  -->
<svg version="1.1" id="Layer_1" xmlns="http://www.w3.org/2000/svg" xmlns:xlink="http://www.w3.org/1999/xlink" x="0px" y="0px"
	 viewBox="0 0 1173.1 324.4" style="enable-background:new 0 0 1173.1 324.4;" xml:space="preserve">
<style type="text/css">
	.st0{fill:#FFFFFF;}
	.st1{fill:url(#SVGID_1_);}
	.st2{fill:url(#SVGID_00000181790052574914110090000008803186301384775326_);}
	.st3{fill:url(#SVGID_00000132056051348860377020000004412297762165721239_);}
	.st4{fill:#692E2E;}
	.st5{fill:url(#SVGID_00000096742303297632685310000003165842788692041919_);}
	.st6{fill:url(#SVGID_00000165221878192706493450000005612006973597566099_);}
</style>
<g>
	<path class="st0" d="M114.6,315.5c-21,0-40-4.5-56.9-13.5c-16.7-9-29.8-21.8-39.6-38.4C8.7,247,3.9,227.5,3.9,205.2
		c0-22,4.9-41.4,14.6-58c9.7-16.9,23.1-29.8,40-38.8c16.9-9,35.9-13.5,56.9-13.5c21,0,40,4.5,56.9,13.5c16.9,9,30.2,21.9,40,38.8
		c9.7,16.7,14.6,36,14.6,58s-5,41.5-15,58.4c-9.7,16.7-23.2,29.5-40.4,38.4C154.6,311,135.6,315.5,114.6,315.5z M114.6,258.6
		c12.6,0,23.2-4.6,31.9-13.8c9-9.2,13.5-22.4,13.5-39.6s-4.4-30.4-13.1-39.6c-8.5-9.2-19-13.8-31.5-13.8c-12.8,0-23.4,4.6-31.9,13.8
		c-8.5,9-12.7,22.2-12.7,39.6c0,17.2,4.1,30.4,12.3,39.6C91.5,254,102,258.6,114.6,258.6z M433.1,256.7v55.7h-33.4
		c-23.8,0-42.4-5.8-55.7-17.3c-13.3-11.8-20-30.9-20-57.3v-85.3h-26.1V98h26.1V45.7h65.7V98h43v54.6h-43v86.1c0,6.4,1.5,11,4.6,13.8
		c3.1,2.8,8.2,4.2,15.4,4.2H433.1z M456.6,205.2c0-22.3,4.5-41.8,13.5-58.4c9.2-16.7,21.9-29.5,38-38.4c16.4-9,35.1-13.5,56.1-13.5
		c26.9,0,49.3,7,67.3,21.1c18.2,14.1,30.1,33.9,35.7,59.6h-69.9c-5.9-16.4-17.3-24.6-34.2-24.6c-12,0-21.6,4.7-28.8,14.2
		c-7.2,9.2-10.8,22.5-10.8,40s3.6,30.9,10.8,40.4c7.2,9.2,16.8,13.8,28.8,13.8c16.9,0,28.3-8.2,34.2-24.6h69.9
		c-5.6,25.1-17.5,44.8-35.7,59.2c-18.2,14.3-40.6,21.5-67.3,21.5c-21,0-39.7-4.5-56.1-13.5c-16.1-9-28.8-21.8-38-38.4
		C461.1,247,456.6,227.5,456.6,205.2z M834.2,95.7c24.6,0,44.3,8.2,59.2,24.6c14.9,16.1,22.3,38.4,22.3,66.9v125.3h-65.3V196
		c0-14.3-3.7-25.5-11.1-33.4c-7.4-7.9-17.4-11.9-30-11.9c-12.6,0-22.6,4-30,11.9c-7.4,7.9-11.1,19.1-11.1,33.4v116.4h-65.7V28.1
		h65.7v98.8c6.7-9.5,15.8-17,27.3-22.7C806.9,98.5,819.8,95.7,834.2,95.7z M1173.1,98v214.4h-65.7v-29.2
		c-6.7,9.5-15.8,17.2-27.3,23.1c-11.3,5.6-23.8,8.5-37.7,8.5c-16.4,0-30.9-3.6-43.4-10.8c-12.6-7.4-22.3-18.1-29.2-31.9
		c-6.9-13.8-10.4-30.1-10.4-48.8V98h65.3v116.4c0,14.3,3.7,25.5,11.1,33.4c7.4,7.9,17.4,11.9,30,11.9c12.8,0,22.9-4,30.4-11.9
		c7.4-7.9,11.1-19.1,11.1-33.4V98H1173.1z"/>
	
		<linearGradient id="SVGID_1_" gradientUnits="userSpaceOnUse" x1="-0.2151" y1="-887.906" x2="52.6096" y2="-942.9597" gradientTransform="matrix(1 0 0 -1 0 -747.4797)">
		<stop  offset="0" style="stop-color:#D3A262"/>
		<stop  offset="0.66" style="stop-color:#CC7A54"/>
		<stop  offset="1" style="stop-color:#B55B3F"/>
	</linearGradient>
	<path class="st1" d="M65.6,184.6c-1.7,9-10.6,13.7-12.5,14.7c-14.2,7-30.1-2.3-35.3-5.7c-0.5-0.4-0.9-0.7-1.2-0.9
		c-4.5-3.2-14.6-10.4-16.3-22.9c-2.2-16.2,11-33.4,20.2-32.7c0.2,0,0.4,0,0.5,0.1c3.4,0.6,3.9,3.9,11.5,10.3c2.2,1.9,4.2,3.3,6,4.4
		c5.1,3.1,8.7,3.9,12.6,6.4c1.5,1,3.1,2.2,4.8,3.9C58.6,165,67.6,174.1,65.6,184.6L65.6,184.6z"/>
	
		<linearGradient id="SVGID_00000016045917517532723430000014153752215853084087_" gradientUnits="userSpaceOnUse" x1="115.5831" y1="-926.7972" x2="249.5139" y2="-1016.0987" gradientTransform="matrix(1 0 0 -1 0 -747.4797)">
		<stop  offset="0" style="stop-color:#D3A262"/>
		<stop  offset="0.66" style="stop-color:#CC7A54"/>
		<stop  offset="1" style="stop-color:#B55B3F"/>
	</linearGradient>
	<path style="fill:url(#SVGID_00000016045917517532723430000014153752215853084087_);" d="M271.7,203.4c0,28.1-10.1,57.7-30.2,80.4
		c-26.2,29.7-58.2,35.1-81.7,39.2c-1.7,0.3-6.1,1.7-11.9,1.4c-4.3-0.3-13.2-0.8-18.6-7.6c-5.5-6.9-5.1-17.5-0.7-24
		c3-4.5,4.7-2.3,17.6-10.7c10-6.5,15.5-12.3,19.1-19.6c0.2-0.4,0.3-0.7,0.5-1c2.6-6.7,3.9-17.8-2.2-24c-4-4.1-9.6-4.2-18.5-4.4
		c-10.1-0.2-11.5,2.2-20.5,2.4c-7.6,0.2-19.6,0.4-26.1-7.6c-4.7-5.8-6.1-15.3-2.2-22.1c3.7-6.4,10.7-8.3,14.5-9.4
		c11.3-3.2,15.1,2.1,24-1.1c6.9-2.5,15.7-9.6,15.3-18.9c-0.5-9.2-9.9-14.7-10.9-15.3c5.4,1.2,12.6,2.6,21.2,3.7c0,0,1.2,0.2,2.5,0.3
		c22.2,2.5,40.6,4.5,59.7-3.9c1.8-0.8,3.6-1.7,5.4-2.7c8.5-4.6,16.2-10.9,22.8-18.4c8.5,8.6,12.4,19.9,15.3,28.2
		C269.8,179.3,271.6,191.2,271.7,203.4L271.7,203.4z"/>
	
		<linearGradient id="SVGID_00000047043790119270267870000001314464428301101444_" gradientUnits="userSpaceOnUse" x1="107.336" y1="-839.4963" x2="274.7493" y2="-821.6411" gradientTransform="matrix(1 0 0 -1 0 -747.4797)">
		<stop  offset="0" style="stop-color:#D3A262"/>
		<stop  offset="0.66" style="stop-color:#CC7A54"/>
		<stop  offset="1" style="stop-color:#B55B3F"/>
	</linearGradient>
	<path style="fill:url(#SVGID_00000047043790119270267870000001314464428301101444_);" d="M264.4,119.3
		c-2.3,5.4-12.9,30.2-37.8,42.8c-15.2,7.7-31.4,6.1-63.8,2.9c0,0-54-5.3-85.7-28c-6.3-4.5-10.5-10-10.5-10c-3.9-4.7-6.7-10.1-8.1-16
		c-3.7-15.7,4.4-37.6,4.4-37.6c10.4-27.4,29.8-43.2,37.7-49.5c7-5.6,12.9-9,14.1-9.7C118,12.5,136.8,2,161.6,0.2
		c7.7-0.5,50.1-2.7,82.1,28.6c6.4,6.3,26.2,25.6,27.8,55C272.3,100.3,267.1,112.8,264.4,119.3L264.4,119.3z"/>
	<path class="st4" d="M130.7,103c8.3,6.5,17.3,11.1,28,10.2c1.1,0,2,0.8,2,1.9c0,0.8-0.4,1.4-1.1,1.8c-11.2,5.6-27.4,0-31-12.4
		C128.3,103.2,129.8,102.2,130.7,103L130.7,103z"/>
	<path class="st4" d="M77.2,83c4.2,5.3,9.7,9.2,16.4,10.2c2.2,0.4,4.5,0.5,7,0.6c1.6,0,2.3,2.3,0.9,3.1c-7.6,5-18.5,2.3-24.1-4.5
		c-1.6-2-6.5-8.9-2.4-10.2C75.8,82,76.7,82.3,77.2,83L77.2,83z"/>
	
		<linearGradient id="SVGID_00000163762274526763019570000008324766459255227803_" gradientUnits="userSpaceOnUse" x1="54.057" y1="-771.7637" x2="75.2567" y2="-771.7637" gradientTransform="matrix(1 0 0 -1 0 -747.4797)">
		<stop  offset="0" style="stop-color:#D3A262"/>
		<stop  offset="0.66" style="stop-color:#CC7A54"/>
		<stop  offset="1" style="stop-color:#B55B3F"/>
	</linearGradient>
	<path style="fill:url(#SVGID_00000163762274526763019570000008324766459255227803_);" d="M64.7,34.9c5.9,0,10.6-4.7,10.6-10.6
		s-4.7-10.6-10.6-10.6c-5.9,0-10.6,4.7-10.6,10.6S58.8,34.9,64.7,34.9z"/>
	
		<linearGradient id="SVGID_00000020389217733387082570000005050114253666948285_" gradientUnits="userSpaceOnUse" x1="80.8282" y1="-754.4573" x2="93.111" y2="-754.4573" gradientTransform="matrix(1 0 0 -1 0 -747.4797)">
		<stop  offset="0" style="stop-color:#D3A262"/>
		<stop  offset="0.66" style="stop-color:#CC7A54"/>
		<stop  offset="1" style="stop-color:#B55B3F"/>
	</linearGradient>
	<path style="fill:url(#SVGID_00000020389217733387082570000005050114253666948285_);" d="M93.1,7c0,3.4-2.8,6.1-6.1,6.1
		s-6.1-2.8-6.1-6.1c0-3.4,2.8-6.1,6.1-6.1S93.1,3.6,93.1,7z"/>
</g>
</svg>
