<svg width="83" height="196" viewBox="0 0 83 196" fill="none" xmlns="http://www.w3.org/2000/svg">
<g clip-path="url(#clip0_174_147)">
<path d="M68.4504 108.677L71.4309 106.325L72.638 107.612C72.638 107.612 68.7958 109.75 68.4512 108.676L68.4504 108.677Z" fill="#FE9B74"/>
<path d="M68.9591 109.031C68.8593 109.027 68.7687 109.012 68.6917 108.985C68.5384 108.931 68.4386 108.833 68.3928 108.692L68.3818 108.659L68.4106 108.636L71.4368 106.25L72.7286 107.627L72.6693 107.66C72.5568 107.722 70.1036 109.079 68.9591 109.031ZM68.5198 108.694C68.5579 108.784 68.6282 108.846 68.734 108.883C69.572 109.178 72.1234 107.828 72.5466 107.599L71.425 106.403L68.5207 108.694H68.5198Z" fill="#FE9B74"/>
<path d="M68.6569 110.21L72.2782 107.612L73.4853 108.899C73.4853 108.899 69.0023 111.283 68.6578 110.21H68.6569Z" fill="#FE9B74"/>
<path d="M69.1471 110.539C69.0429 110.535 68.9507 110.519 68.8728 110.491C68.7314 110.44 68.64 110.35 68.5994 110.224L68.5884 110.189L72.2859 107.537L73.5768 108.913L73.5158 108.946C73.3796 109.018 70.405 110.591 69.1479 110.539H69.1471ZM68.7272 110.228C68.7611 110.303 68.8237 110.357 68.9168 110.39C69.8116 110.716 72.9157 109.132 73.3931 108.884L72.2706 107.687L68.728 110.228H68.7272Z" fill="#FE9B74"/>
<path d="M64.548 95.4346L68.0805 100.949C68.0805 100.949 67.1146 102.611 67.0697 103.632L67.0249 104.653C67.0249 104.653 68.4411 110.14 69.3511 110.094C70.2602 110.048 69.3587 105.978 69.3587 105.978C69.3587 105.978 71.7272 106.995 71.579 108.642C71.5223 109.275 70.0384 109.817 69.1708 110.424C68.8719 110.633 68.8457 111.032 69.1149 111.275L69.379 111.513L69.3011 111.58C69.0294 111.816 69.2359 112.231 69.6126 112.208C70.7342 112.142 72.4586 111.93 73.3719 111.263C73.3719 111.263 74.2768 107.889 74.2523 107.511C74.2277 107.132 70.3093 96.6548 70.3093 96.6548L68.5782 92.4971L64.5472 95.4346H64.548Z" fill="#FDB88E"/>
<path d="M69.5644 112.263C69.3883 112.256 69.2326 112.161 69.1589 112.012C69.0785 111.849 69.1183 111.664 69.2596 111.541L69.2935 111.511L69.0726 111.312C68.932 111.186 68.8584 111.011 68.8694 110.833C68.8813 110.655 68.9769 110.489 69.1335 110.38C69.4103 110.187 69.7506 109.998 70.0807 109.817C70.7698 109.436 71.4825 109.043 71.5189 108.637C71.6442 107.246 69.8979 106.3 69.4408 106.077C69.5661 106.674 70.1112 109.425 69.6025 110.021C69.5356 110.1 69.4518 110.142 69.3544 110.147C69.346 110.147 69.3384 110.147 69.3299 110.147C68.3988 110.109 67.1112 105.225 66.9665 104.664L66.9648 104.65L67.0096 103.628C67.052 102.666 67.8832 101.175 68.0119 100.95L64.4702 95.4213L68.6061 92.4082L70.3669 96.6373C70.5277 97.0673 74.2887 107.128 74.3141 107.509C74.3386 107.891 73.4684 111.139 73.432 111.277L73.427 111.295L73.4109 111.307C72.5085 111.966 70.8502 112.191 69.6177 112.264C69.5999 112.265 69.5822 112.265 69.5644 112.264V112.263ZM69.2766 105.882L69.3841 105.929C69.4078 105.939 71.789 106.981 71.6391 108.646C71.5977 109.107 70.8917 109.497 70.1442 109.909C69.8175 110.09 69.4797 110.276 69.208 110.466C69.0793 110.556 68.9998 110.693 68.9905 110.84C68.9811 110.987 69.0421 111.131 69.1581 111.236L69.4662 111.514L69.3443 111.62C69.2165 111.731 69.2215 111.873 69.269 111.969C69.3164 112.066 69.4306 112.166 69.6092 112.155C70.598 112.097 72.3908 111.899 73.3194 111.233C73.6327 110.064 74.2125 107.806 74.1939 107.515C74.1753 107.222 71.6087 100.295 70.2543 96.6734L68.5528 92.5879L64.6259 95.449L68.149 100.95L68.1338 100.976C68.1245 100.992 67.1739 102.638 67.1299 103.634L67.085 104.648C67.6454 106.815 68.6984 110.013 69.3299 110.039C69.3358 110.039 69.3409 110.039 69.3468 110.039C69.4095 110.036 69.462 110.008 69.5077 109.955C70.0342 109.337 69.307 106.022 69.2994 105.988L69.2757 105.882H69.2766Z" fill="#FDB88E"/>
<path d="M69.39 111.537L69.3688 111.486C69.39 111.479 71.5274 110.767 72.2969 110.144C72.7447 109.781 73.2627 107.675 73.3008 107.519L72.4933 105.989L72.5474 105.966L73.3635 107.513L73.3609 107.522C73.3389 107.615 72.8141 109.798 72.3367 110.185C71.5587 110.815 69.4112 111.531 69.3892 111.537H69.39Z" fill="#E59467"/>
<path d="M69.3553 111.607L69.2918 111.454L69.3477 111.436C69.4357 111.406 71.5054 110.713 72.2562 110.105C72.6025 109.824 73.0333 108.361 73.2373 107.527L72.4128 105.964L72.5754 105.895L73.4261 107.508L73.4219 107.527C73.3973 107.629 72.87 109.828 72.3773 110.227C71.6011 110.856 69.5 111.56 69.4112 111.59L69.3553 111.608V111.607Z" fill="#E59467"/>
<path d="M55.5244 35.8663C55.5244 35.8663 61.1375 34.5184 61.6945 42.6517C62.2523 50.7849 63.3435 73.6143 63.3435 73.6143L71.039 97.7277C71.039 97.7277 66.9428 100.068 63.2012 99.8221C63.2012 99.8221 54.4967 78.5959 53.2964 76.2378C52.0952 73.8797 49.1688 41.7741 50.9076 38.4133C52.6454 35.0525 55.5244 35.8671 55.5244 35.8671V35.8663Z" fill="#75AFC9"/>
<path d="M64.3533 99.8858C63.9673 99.9101 63.5796 99.9118 63.197 99.8866L63.1564 99.8841L63.1411 99.8463C63.054 99.6338 54.4248 78.5957 53.238 76.2662C52.659 75.1299 51.6262 66.8035 50.9346 57.7054C50.6316 53.7198 49.7301 40.5462 50.8491 38.3821C52.5227 35.1456 55.2831 35.7393 55.5252 35.7989C55.7191 35.7578 57.5568 35.411 59.1821 36.5917C60.6922 37.6893 61.5599 39.7266 61.7605 42.6465C62.3073 50.6294 63.3824 73.0557 63.4086 73.6024L71.1177 97.7569L71.072 97.783C71.0347 97.8039 67.7199 99.6758 64.3533 99.8849V99.8858ZM63.247 99.7598C66.7041 99.9689 70.5015 97.9492 70.9603 97.6965L63.2783 73.6259V73.6175C63.2673 73.3891 62.1804 50.6958 61.6293 42.6566C61.4321 39.7761 60.5822 37.7716 59.1042 36.6975C57.4442 35.4907 55.5582 35.9257 55.5396 35.9299L55.5227 35.9341L55.5057 35.9291C55.4778 35.9215 52.6573 35.1708 50.9651 38.4426C50.2202 39.8828 50.2574 47.0805 51.0642 57.6961C51.7549 66.78 52.7817 75.0846 53.3539 76.2082C54.5187 78.4949 62.8296 98.7453 63.2453 99.7598H63.247Z" fill="#75AFC9"/>
<path d="M56.7357 171.458C56.7357 171.458 56.8101 171.721 56.938 172.173C57.5889 174.476 59.6273 181.683 60.2867 183.967C60.6558 185.25 60.6778 187.457 60.5991 189.438C60.5635 190.29 60.511 191.099 60.4577 191.778C60.4154 192.322 60.5991 192.834 60.9343 193.219C61.1349 193.451 61.3914 193.638 61.6851 193.756C61.8384 193.82 62.0043 193.865 62.1761 193.887L67.4862 194.134L67.8366 194.15C69.0141 194.205 70.1814 194.404 71.3107 194.738C75.3027 195.918 79.6114 196.013 81.3628 195.879C82.09 195.822 82.5081 195.467 82.7409 195.02C83.2649 194.013 82.6283 193.356 81.5609 192.949L70.3719 188.173C70.2195 188.109 70.0689 188.03 69.9233 187.938C68.607 187.135 67.5751 185.481 67.5751 185.481C66.4831 184.399 66.1326 180.228 66.0446 176.533C65.9659 173.227 66.0971 170.3 66.0971 170.3L60.2071 171.028L56.7357 171.457V171.458Z" fill="#F8AD83"/>
<path d="M79.9263 195.954C77.816 195.954 74.4876 195.707 71.3014 194.765C70.1704 194.43 69.004 194.233 67.8341 194.178L67.4837 194.162L62.1736 193.915C61.9967 193.891 61.8291 193.847 61.6733 193.782C61.3829 193.665 61.1197 193.477 60.9123 193.237C60.5593 192.83 60.3875 192.311 60.4289 191.775C60.4899 191.005 60.539 190.195 60.5703 189.435C60.6719 186.883 60.5669 185.046 60.2588 183.974C59.6536 181.878 57.9005 175.685 56.91 172.18C56.7831 171.728 56.7077 171.465 56.7077 171.465L56.6984 171.434L66.125 170.268L66.1233 170.301C66.1216 170.33 65.993 173.264 66.0709 176.531C66.1894 181.503 66.715 184.591 67.5929 185.46L67.5971 185.466C67.6072 185.482 68.64 187.122 69.936 187.913C70.0833 188.006 70.2331 188.084 70.3812 188.146L81.5702 192.923C82.2804 193.193 82.7232 193.543 82.8849 193.964C83.0076 194.282 82.967 194.642 82.7646 195.031C82.4904 195.56 82.0189 195.854 81.3637 195.906C80.9963 195.934 80.507 195.953 79.9263 195.953V195.954ZM56.7712 171.482C56.7949 171.564 56.8626 171.804 56.9642 172.166C57.9555 175.671 59.7077 181.864 60.313 183.96C60.6228 185.037 60.7278 186.881 60.6262 189.439C60.5949 190.199 60.5458 191.009 60.484 191.78C60.4433 192.301 60.6101 192.806 60.9538 193.201C61.1561 193.433 61.4117 193.616 61.6936 193.731C61.8451 193.794 62.0077 193.837 62.1778 193.86L67.4854 194.107L67.8358 194.122C69.0099 194.177 70.1806 194.375 71.3166 194.711C75.373 195.911 79.6588 195.981 81.3586 195.851C81.9926 195.801 82.4489 195.517 82.7139 195.006C82.9086 194.632 82.9483 194.288 82.8315 193.985C82.6758 193.579 82.244 193.24 81.5491 192.976L70.3592 188.198C70.2085 188.135 70.0562 188.055 69.9063 187.962C68.6247 187.18 67.6005 185.576 67.5514 185.498C66.4315 184.383 66.0979 180.008 66.015 176.533C65.9413 173.452 66.0522 170.665 66.0658 170.332L56.7704 171.482H56.7712Z" fill="#F8AD83"/>
<path d="M60.5686 193.926C60.5686 194.4 60.9462 194.786 61.4194 194.803C61.4312 194.805 61.4439 194.805 61.4558 194.805H66.6236C67.041 194.805 67.3897 194.519 67.4845 194.134L67.835 194.15C69.0125 194.205 70.1798 194.404 71.309 194.738C75.3011 195.918 79.6098 196.013 81.3612 195.879C82.0883 195.822 82.5065 195.467 82.7393 195.019C83.2633 194.013 82.6267 193.356 81.5593 192.949L70.3702 188.173C70.2179 188.109 70.0672 188.03 69.9216 187.938C68.8575 189.215 66.7709 190.281 62.6883 189.791C62.0441 189.715 61.3483 189.597 60.5991 189.437C60.5636 190.29 60.5111 191.099 60.4577 191.778C60.4154 192.322 60.6008 192.832 60.9352 193.218L60.9335 193.22C60.7134 193.379 60.5686 193.636 60.5686 193.928V193.926Z" fill="#433245"/>
<path d="M71.2878 194.809C70.1603 194.474 68.9972 194.278 67.8316 194.223L67.5404 194.211C67.4159 194.607 67.0477 194.879 66.6245 194.879H61.4566C61.4447 194.879 61.4287 194.879 61.4117 194.877C60.8979 194.856 60.4958 194.439 60.4958 193.927C60.4958 193.651 60.6194 193.386 60.831 193.207C60.5026 192.799 60.3443 192.293 60.3849 191.772C60.4459 191.003 60.495 190.195 60.5263 189.434L60.5297 189.348L60.6152 189.366C61.3516 189.523 62.0517 189.642 62.6976 189.719C66.1022 190.128 68.5138 189.513 69.8657 187.892L69.9072 187.843L69.9622 187.877C70.107 187.968 70.2542 188.045 70.4007 188.106L81.5872 192.882C82.3109 193.158 82.7621 193.516 82.9289 193.95C83.0558 194.281 83.0152 194.653 82.8061 195.053C82.5234 195.597 82.04 195.9 81.3679 195.952C80.9997 195.981 80.5096 196 79.9272 196C77.8135 196 74.48 195.752 71.2887 194.809H71.2878ZM62.6789 189.864C62.0542 189.789 61.3779 189.677 60.6685 189.527C60.6363 190.264 60.5889 191.042 60.5305 191.784C60.4916 192.29 60.655 192.783 60.9902 193.17L61.0316 193.221L60.9876 193.269L60.9766 193.279C60.7675 193.429 60.6423 193.672 60.6423 193.927C60.6423 194.362 60.9842 194.715 61.421 194.731L61.4337 194.732C61.4337 194.732 61.4481 194.733 61.4549 194.733H66.6228C66.9986 194.733 67.3228 194.48 67.4117 194.118L67.4261 194.059L67.8375 194.077C69.015 194.132 70.1899 194.331 71.3293 194.668C75.3789 195.865 79.658 195.937 81.3544 195.806C81.9715 195.758 82.415 195.482 82.6724 194.986C82.8611 194.623 82.9001 194.292 82.7883 194.001C82.6377 193.608 82.2144 193.277 81.5296 193.017L70.3414 188.24C70.2068 188.184 70.0714 188.114 69.9368 188.034C68.5435 189.659 66.1013 190.276 62.6789 189.864Z" fill="#433245"/>
<path d="M66.2766 100.961L68.4529 139.97C68.4529 139.97 68.2447 176.431 69.82 179.739C69.82 179.739 62.8643 180.985 56.9592 179.739L38.1821 97.8887L65.927 99.0098L66.2766 100.961Z" fill="#746587"/>
<path d="M62.9016 180.355C60.9919 180.355 58.907 180.217 56.9456 179.804L56.905 179.796L56.8957 179.755L38.1 97.8223L38.1855 97.8256L65.9828 98.9493L66.3426 100.96L68.519 139.968C68.5173 140.337 68.3293 176.457 69.8793 179.713L69.9157 179.79L69.831 179.805C69.7845 179.813 66.6888 180.356 62.9007 180.356L62.9016 180.355ZM57.0142 179.685C62.4885 180.828 68.9287 179.822 69.7269 179.69C68.2007 175.969 68.3801 141.449 68.3886 139.97L66.2122 100.969L65.872 99.0727L38.2659 97.9566L57.0142 179.684V179.685Z" fill="#746587"/>
<path d="M0.983612 173.984C0.947213 176.596 3.42661 177.391 3.65601 178.867C3.71103 179.213 3.75843 179.758 3.816 180.417C3.81938 180.461 3.82361 180.505 3.82785 180.551C3.83885 180.685 3.85239 180.824 3.86594 180.966C3.87948 181.108 3.89303 181.255 3.90742 181.405C3.92604 181.603 3.9472 181.807 3.97006 182.014C3.98191 182.119 3.99291 182.224 4.00476 182.329C4.02 182.458 4.03524 182.586 4.05217 182.717C4.06317 182.8 4.07333 182.883 4.08434 182.968C4.08603 182.973 4.08603 182.979 4.08772 182.986C4.09957 183.075 4.11227 183.166 4.12412 183.256C4.12581 183.267 4.12751 183.279 4.12835 183.29C4.1402 183.369 4.15121 183.449 4.16306 183.528C4.17491 183.609 4.1893 183.692 4.20115 183.775C4.20285 183.782 4.20454 183.791 4.20538 183.799C4.22655 183.933 4.2494 184.069 4.27395 184.203C4.28157 184.248 4.28919 184.292 4.2985 184.337C4.31374 184.416 4.32897 184.494 4.34421 184.573C4.3459 184.584 4.3476 184.593 4.35014 184.602C4.35775 184.645 4.36707 184.689 4.37638 184.734C4.53975 185.521 4.74884 186.259 5.01887 186.861C5.04765 186.925 5.07643 186.986 5.10775 187.047C5.12468 187.082 5.14246 187.117 5.16108 187.15C5.17632 187.182 5.19325 187.212 5.21018 187.24C5.22118 187.26 5.23303 187.28 5.24404 187.299C5.26351 187.333 5.28213 187.366 5.30329 187.397C5.32276 187.431 5.34477 187.464 5.36593 187.496C6.73134 189.54 9.9548 194.192 12.7034 194.079C15.452 193.965 14.3058 192.546 14.3058 192.546C14.3058 192.546 10.1842 183.749 10.1842 181.988C10.1842 181.863 10.2341 181.637 10.3306 181.325C10.8284 179.714 12.2522 175.18 15.1396 171.641C19.0995 166.787 26.7349 162.725 26.7349 162.725L20.3456 155.279C20.3456 155.279 18.347 156.725 15.2708 160.543C13.119 163.214 12.226 164.193 9.52478 168.053C8.64104 169.317 8.12213 169.148 6.27931 169.935C5.29229 170.358 4.42971 170.707 3.70172 171.044C1.9664 171.846 1.00393 172.567 0.983612 173.985V173.984Z" fill="#F8AD83"/>
<path d="M12.6043 194.12C9.74572 194.12 6.43083 189.159 5.33292 187.517C5.31092 187.485 5.28975 187.45 5.26944 187.417C5.25505 187.395 5.24066 187.37 5.22627 187.346L5.21018 187.318C5.20426 187.307 5.19833 187.298 5.19325 187.289C5.18733 187.279 5.1814 187.269 5.17632 187.259C5.15939 187.23 5.14246 187.199 5.12638 187.166C5.1086 187.134 5.08998 187.099 5.07305 187.063C5.04258 187.003 5.01379 186.941 4.98417 186.877C4.73445 186.321 4.51775 185.603 4.33914 184.741C4.32982 184.697 4.32051 184.652 4.31289 184.608C4.31035 184.603 4.30866 184.592 4.30697 184.579L4.26126 184.345C4.25195 184.299 4.24433 184.255 4.23671 184.209C4.21216 184.076 4.18931 183.939 4.16814 183.805L4.16391 183.782C4.15798 183.74 4.15121 183.7 4.14529 183.659C4.13852 183.618 4.13174 183.576 4.12582 183.534C4.11989 183.494 4.11397 183.453 4.10804 183.413C4.10212 183.374 4.09704 183.334 4.09111 183.296L4.04963 182.991C4.04963 182.991 4.04879 182.986 4.04794 182.982L4.04625 182.973L4.01408 182.721C3.99715 182.591 3.98191 182.463 3.96668 182.333C3.96075 182.283 3.95567 182.233 3.94975 182.182C3.94382 182.128 3.9379 182.073 3.93112 182.019C3.90573 181.787 3.88457 181.587 3.86848 181.408C3.85494 181.259 3.84139 181.112 3.827 180.97L3.82193 180.918C3.81007 180.794 3.79822 180.672 3.78891 180.553L3.78722 180.54C3.78299 180.499 3.77875 180.46 3.77621 180.42L3.77198 180.375C3.71696 179.749 3.66956 179.21 3.61623 178.872C3.52565 178.285 3.07531 177.812 2.55472 177.265C1.78948 176.462 0.921822 175.551 0.943831 173.982C0.964147 172.543 1.96386 171.801 3.68479 171.006C4.18846 170.772 4.74207 170.539 5.38371 170.269C5.66475 170.151 5.95849 170.027 6.26323 169.896C6.76351 169.683 7.1749 169.537 7.50589 169.419C8.40402 169.1 8.8552 168.94 9.49262 168.029C11.7071 164.864 12.6915 163.654 14.1814 161.824C14.5056 161.426 14.8526 160.999 15.2403 160.517C18.2843 156.74 20.3024 155.261 20.3227 155.246L20.3523 155.225L26.7976 162.736L26.7536 162.759C26.6774 162.799 19.0801 166.873 15.1709 171.665C12.2497 175.246 10.8343 179.829 10.3687 181.336C10.2739 181.642 10.224 181.867 10.224 181.987C10.224 183.704 14.2313 192.291 14.3405 192.524C14.3795 192.574 14.7172 193.023 14.525 193.443C14.3388 193.848 13.7268 194.074 12.7059 194.117C12.6729 194.119 12.6391 194.119 12.6052 194.119L12.6043 194.12ZM4.12413 182.962C4.12413 182.962 4.12497 182.967 4.12582 182.972L4.12751 182.98L4.16899 183.284C4.17491 183.323 4.18084 183.362 4.18592 183.402C4.19184 183.442 4.19777 183.482 4.2037 183.522C4.20962 183.564 4.21639 183.606 4.22317 183.648C4.22994 183.688 4.23586 183.728 4.24179 183.769L4.24602 183.791C4.26803 183.927 4.29089 184.063 4.31459 184.196C4.32221 184.241 4.32982 184.285 4.33914 184.33L4.38485 184.566C4.38654 184.577 4.38739 184.583 4.38993 184.59C4.39924 184.64 4.4077 184.682 4.41701 184.726C4.59478 185.582 4.80979 186.294 5.05697 186.845C5.08575 186.908 5.11453 186.969 5.145 187.03C5.16193 187.064 5.17971 187.098 5.19748 187.131C5.21357 187.164 5.22965 187.193 5.24574 187.221C5.25166 187.232 5.25674 187.241 5.26266 187.25C5.26859 187.26 5.27452 187.271 5.27959 187.281L5.29568 187.307C5.30922 187.331 5.32277 187.354 5.33716 187.376C5.35747 187.41 5.37864 187.443 5.3998 187.474C6.50448 189.126 9.86677 194.157 12.7017 194.039C13.6904 193.998 14.2787 193.787 14.4514 193.412C14.6309 193.02 14.2779 192.576 14.2745 192.571L14.2694 192.563C14.101 192.203 10.1436 183.737 10.1436 181.988C10.1436 181.859 10.1935 181.632 10.2917 181.313C10.7581 179.803 12.1769 175.208 15.1083 171.615C18.8735 167 26.045 163.053 26.6723 162.713L20.3388 155.333C20.0789 155.529 18.1379 157.047 15.3013 160.567C14.9127 161.049 14.5657 161.476 14.2415 161.874C12.7525 163.703 11.7697 164.912 9.5561 168.075C8.9043 169.006 8.4455 169.17 7.53128 169.495C7.18506 169.618 6.79229 169.758 6.2937 169.97C5.98811 170.101 5.69438 170.225 5.41334 170.343C4.77254 170.613 4.21978 170.846 3.71696 171.079C1.98418 171.879 1.04202 172.579 1.02256 173.984C1.00139 175.52 1.85636 176.42 2.61143 177.213C3.11933 177.746 3.5993 178.25 3.6941 178.861C3.74828 179.201 3.79314 179.717 3.85071 180.369L3.85494 180.415C3.85748 180.454 3.86171 180.493 3.86594 180.533L3.86764 180.547C3.87695 180.667 3.8888 180.787 3.90065 180.912L3.90573 180.963C3.91927 181.105 3.93366 181.252 3.94721 181.402C3.96329 181.58 3.98445 181.78 4.00985 182.011C4.01662 182.066 4.02255 182.12 4.02847 182.175C4.03355 182.224 4.03948 182.275 4.0454 182.325C4.06064 182.454 4.07587 182.582 4.0928 182.711L4.12497 182.962H4.12413Z" fill="#F8AD83"/>
<path d="M0.179447 174.885L2.26268 179.404C2.43536 179.779 2.80867 180 3.19975 180C3.34281 180 3.48925 179.972 3.62893 179.908C3.67633 179.887 3.72035 179.861 3.76352 179.834C3.78299 180.055 3.805 180.295 3.82955 180.551C3.84055 180.685 3.8541 180.825 3.86764 180.967C3.87949 181.109 3.89388 181.256 3.90912 181.405C3.92774 181.603 3.9489 181.807 3.97176 182.015C3.98361 182.119 3.99461 182.224 4.00647 182.33C4.0217 182.458 4.03694 182.587 4.05387 182.717C4.06487 182.8 4.07503 182.883 4.08604 182.968C4.08773 182.974 4.08773 182.98 4.08942 182.986C4.10127 183.075 4.11397 183.166 4.12582 183.257C4.12751 183.268 4.12921 183.279 4.13005 183.29C4.1419 183.369 4.15291 183.449 4.16476 183.528C4.17661 183.61 4.191 183.693 4.20285 183.775C4.20455 183.783 4.20624 183.792 4.20709 183.799C4.22825 183.934 4.2511 184.07 4.27565 184.203C4.28327 184.249 4.29089 184.292 4.3002 184.338C4.31544 184.417 4.33067 184.495 4.34591 184.574C4.3476 184.584 4.3493 184.593 4.35184 184.602C4.35946 184.646 4.36877 184.689 4.37808 184.734C4.54145 185.521 4.75054 186.259 5.02057 186.861C5.04935 186.925 5.07813 186.986 5.10945 187.048C5.12638 187.082 5.14416 187.117 5.16278 187.15C5.17802 187.182 5.19495 187.212 5.21188 187.241C5.22288 187.26 5.23473 187.28 5.24574 187.3C5.26521 187.333 5.28383 187.366 5.30499 187.398C5.32446 187.431 5.34647 187.464 5.36763 187.496C6.73304 189.54 9.9565 194.192 12.7051 194.079C15.4537 193.966 14.3075 192.546 14.3075 192.546C14.3075 192.546 10.1859 183.749 10.1859 181.988C10.1859 181.864 10.2358 181.637 10.3323 181.325C8.5801 178.777 7.28157 174.196 6.57051 171.203C6.45877 170.737 6.36312 170.309 6.28016 169.935C5.19833 170.344 4.28835 170.692 3.54512 171.035C2.0646 171.716 1.24688 172.373 1.03949 173.443C0.921826 173.452 0.804162 173.481 0.689885 173.532C0.172675 173.766 -0.0567263 174.374 0.180293 174.886L0.179447 174.885Z" fill="#433245"/>
<path d="M5.29484 187.542C5.27283 187.509 5.25082 187.475 5.2322 187.444C5.21612 187.419 5.20173 187.394 5.18649 187.37L5.13655 187.283C5.11877 187.251 5.10099 187.22 5.0866 187.19C5.06713 187.156 5.04851 187.12 5.03158 187.084C5.00026 187.023 4.97063 186.96 4.94101 186.895C4.69044 186.335 4.47205 185.614 4.29343 184.751C4.28412 184.706 4.27481 184.661 4.27058 184.63C4.2655 184.615 4.26296 184.601 4.26127 184.589L4.21556 184.353C4.20624 184.307 4.19863 184.263 4.19101 184.217C4.16646 184.084 4.1436 183.947 4.1199 183.802L4.00393 183.006C4.00224 183 4.00139 182.994 3.99885 182.979L3.96669 182.728C3.94976 182.597 3.93452 182.468 3.91928 182.34L3.88458 182.025C3.86172 181.817 3.84056 181.612 3.82193 181.414C3.8067 181.264 3.79231 181.117 3.78046 180.975L3.77622 180.93C3.76437 180.804 3.75168 180.679 3.74236 180.559C3.72289 180.354 3.70512 180.158 3.68903 179.974C3.68057 179.978 3.6721 179.981 3.66449 179.986C3.51973 180.052 3.36313 180.086 3.19976 180.086C2.76381 180.086 2.36511 179.832 2.18481 179.44L0.101575 174.921C-0.154067 174.366 0.0931103 173.708 0.653492 173.454C0.753379 173.409 0.859191 173.378 0.966696 173.364C1.21641 172.223 2.16449 171.574 3.50788 170.956C4.23672 170.621 5.10353 170.288 6.248 169.855L6.34111 169.819L6.36228 169.916C6.4664 170.39 6.55782 170.792 6.65178 171.184C7.4204 174.419 8.69522 178.795 10.4009 181.276L10.4238 181.31L10.4119 181.349C10.2943 181.732 10.2689 181.907 10.2689 181.987C10.2689 183.685 14.2279 192.178 14.3786 192.501C14.4328 192.571 14.7638 193.029 14.5648 193.462C14.371 193.885 13.7454 194.12 12.7059 194.163C12.6721 194.165 12.6382 194.165 12.6044 194.165C9.72033 194.165 6.39529 189.189 5.29399 187.541L5.29484 187.542ZM6.48502 171.223C6.39783 170.857 6.31149 170.482 6.21583 170.049C5.12046 170.463 4.28412 170.787 3.57984 171.111C1.99773 171.838 1.30868 172.497 1.12245 173.458L1.10975 173.522L1.04457 173.527C0.933683 173.535 0.826178 173.563 0.723751 173.608C0.249713 173.823 0.0397809 174.38 0.256484 174.85L2.33972 179.368C2.49209 179.7 2.82899 179.914 3.19891 179.914C3.33689 179.914 3.46894 179.886 3.59253 179.829C3.62978 179.813 3.66872 179.791 3.71612 179.761L3.83548 179.686L3.85579 179.914C3.87357 180.11 3.89219 180.321 3.91336 180.543C3.92267 180.663 3.93452 180.787 3.94722 180.913L3.95145 180.959C3.9633 181.101 3.97769 181.247 3.99293 181.397C4.01155 181.596 4.03271 181.799 4.05557 182.005L4.09027 182.32C4.10551 182.449 4.12075 182.577 4.13768 182.707L4.16815 182.948C4.16985 182.955 4.17069 182.961 4.17239 182.975L4.28666 183.762L4.20201 183.775L4.29174 183.786C4.3129 183.919 4.33576 184.055 4.36031 184.189C4.36793 184.233 4.37554 184.276 4.38401 184.321L4.43649 184.588C4.44411 184.631 4.45258 184.673 4.46189 184.717C4.63881 185.569 4.85297 186.279 5.09845 186.826C5.12723 186.888 5.15517 186.949 5.18649 187.01C5.20257 187.044 5.22035 187.077 5.23982 187.113C5.25421 187.142 5.26945 187.171 5.28638 187.199L5.33547 187.285C5.34817 187.307 5.36087 187.329 5.3778 187.354C5.39727 187.386 5.41758 187.418 5.4379 187.449C6.53835 189.096 9.89133 194.107 12.7 193.994C13.6557 193.955 14.2466 193.747 14.4099 193.394C14.5784 193.029 14.2423 192.604 14.2389 192.6L14.2279 192.582C14.0595 192.222 10.0979 183.747 10.0979 181.988C10.0979 181.86 10.1444 181.642 10.2359 181.339C8.52677 178.83 7.25364 174.457 6.48417 171.223L6.48502 171.223Z" fill="#433245"/>
<path d="M36.4866 98.7109L35.6554 137.602L13.7827 160.065C13.7827 160.065 15.3572 168.13 19.9943 170.473L53.69 149.114L64.7732 100.138L36.4858 98.7109H36.4866Z" fill="#AF9CAF"/>
<path d="M19.9986 170.547L19.9647 170.53C17.5513 169.312 15.9819 166.533 15.0889 164.416C14.1239 162.128 13.7218 160.098 13.7184 160.078L13.7116 160.044L13.7353 160.02L35.5902 137.575L36.4223 98.6421L64.8545 100.076L64.8376 100.152L53.7484 149.154L53.7256 149.168L19.9977 170.547H19.9986ZM13.8547 160.086C13.9723 160.65 15.6112 168.152 19.9918 170.398L53.6333 149.073L64.6937 100.199L36.5518 98.7798L35.7214 137.63L35.7036 137.648L13.8555 160.086H13.8547Z" fill="#AF9CAF"/>
<path d="M67.9501 18.0084C67.6775 18.2335 66.9656 18.9733 66.5068 19.5268C66.048 20.0802 66.0226 23.5972 65.9489 24.4697C65.8508 25.6303 63.495 28.2621 59.9972 27.6012L59.9955 27.6029H59.9938C59.9346 27.6382 58.9738 28.2218 58.2737 29.6091C58.1239 29.9056 57.9682 30.3003 57.8158 30.7437C57.2359 32.4425 56.7094 34.8687 56.7619 35.3331C56.8279 35.9184 59.9972 39.8208 59.9972 39.8208L62.2083 47.4964L55.6462 49.6429L41.2761 32.021C41.2761 32.021 41.607 31.9857 42.142 31.879C44.2794 31.4566 49.6894 29.9047 50.5283 24.9484C50.5283 24.9484 48.561 23.9247 46.6124 21.9587C44.4428 19.7669 42.2944 16.4053 42.9166 11.9822C44.0974 3.59112 48.8598 1.7898 53.6908 1.77048C53.6908 1.77048 59.8982 1.51435 63.5356 7.83116C64.2052 8.99258 64.647 10.2648 64.9111 11.5774C65.1372 12.6985 65.7238 14.4461 67.2382 15.2783C69.0818 16.2902 68.397 17.6406 67.9492 18.0093L67.9501 18.0084Z" fill="#FDB88E"/>
<path d="M55.6335 49.6882L55.6158 49.6672L41.1999 31.989L41.2727 31.9815C41.2727 31.9815 41.6079 31.9454 42.1353 31.8404C44.3666 31.3995 49.6403 29.8468 50.4851 24.9693C50.2473 24.8409 48.396 23.8138 46.5845 21.9865C44.5419 19.9223 42.2402 16.5103 42.8777 11.9771C43.4177 8.14103 44.7747 5.35801 46.9112 3.70617C48.6152 2.38855 50.833 1.74276 53.6917 1.73101C53.7052 1.73101 55.2729 1.67474 57.2639 2.39527C59.1008 3.05954 61.6868 4.53838 63.572 7.81184C64.2086 8.91699 64.6724 10.1809 64.9518 11.5707C65.2007 12.8052 65.8025 14.4444 67.2585 15.2447C68.2049 15.7645 68.4495 16.3574 68.4876 16.7639C68.5392 17.3097 68.2582 17.8086 67.9755 18.0412C67.7148 18.2562 67.0147 18.9792 66.5373 19.5545C66.1894 19.9735 66.0937 22.2149 66.0361 23.5543C66.0184 23.9599 66.0048 24.2799 65.9887 24.4764C65.9456 24.9861 65.4444 25.8763 64.4456 26.6279C63.71 27.1813 62.1566 28.048 60.0048 27.6466C59.8906 27.7171 58.9764 28.3108 58.3102 29.6301C58.1679 29.9114 58.0147 30.291 57.8539 30.7596C57.2851 32.4266 56.7492 34.8695 56.8017 35.3322C56.8652 35.8999 59.9964 39.7612 60.0277 39.7998L60.0353 39.8141L62.2574 47.5258L55.6327 49.6924L55.6335 49.6882ZM41.3531 32.0512L55.6606 49.5958L62.16 47.4695L59.9617 39.8385C59.7729 39.6058 56.789 35.9201 56.723 35.3364C56.6688 34.8602 57.1911 32.4509 57.7786 30.7302C57.9402 30.2583 58.0951 29.8753 58.2391 29.5906C58.9332 28.2176 59.8669 27.6331 59.9744 27.5685L59.9837 27.5592L60.0057 27.5617C62.1355 27.964 63.6719 27.1074 64.3982 26.5607C65.3767 25.8242 65.8677 24.9584 65.91 24.4663C65.9261 24.2715 65.9405 23.9364 65.9574 23.5476C66.0192 22.1107 66.1115 19.9408 66.4772 19.5007C66.9571 18.9221 67.6623 18.1949 67.9264 17.9774C68.149 17.7943 68.4622 17.3206 68.4097 16.7689C68.3573 16.2138 67.9458 15.71 67.2212 15.3119C65.7382 14.4965 65.1262 12.8346 64.8748 11.5841C64.5971 10.2035 64.1358 8.94722 63.5043 7.84963C61.6318 4.59801 59.0652 3.12924 57.2419 2.46917C55.2653 1.75368 53.7111 1.80827 53.6951 1.80911C47.3438 1.83514 43.9324 5.06913 42.9589 11.9872C42.3257 16.4884 44.613 19.8786 46.6437 21.9302C48.5653 23.8684 50.53 24.9022 50.5495 24.9122L50.5749 24.9257L50.5698 24.9542C49.7326 29.9022 44.4047 31.4726 42.1522 31.9177C41.7637 31.9949 41.4801 32.0352 41.3548 32.0512H41.3531Z" fill="#FDB88E"/>
<path d="M59.9945 27.6025C59.9353 27.6378 58.9745 28.2214 58.2744 29.6087C58.1246 29.9052 57.9688 30.2999 57.8165 30.7433L42.1436 31.8787C44.281 31.4563 49.6909 29.9043 50.5298 24.948C50.5298 24.948 48.5626 23.9243 46.6139 21.9584L47.6864 20.2788C47.6864 20.2788 54.6565 25.7416 59.9962 27.6025H59.9945Z" fill="#FF966E"/>
<path d="M42.1463 31.9183L42.1353 31.8402C44.3666 31.3993 49.6403 29.8466 50.4851 24.9692C50.2472 24.8407 48.396 23.8136 46.5844 21.9863L46.5624 21.9636L47.6756 20.2202L47.7103 20.2479C47.7797 20.3025 54.7362 25.7275 60.0082 27.5658L60.0886 27.5935L60.0158 27.6371C59.9752 27.6615 59.0077 28.2477 58.3101 29.6266C58.1679 29.9079 58.0147 30.2875 57.8539 30.7561L57.8454 30.7813L57.8192 30.7829L42.1463 31.9183ZM46.664 21.9527C48.5788 23.8766 50.5283 24.902 50.5478 24.9121L50.5731 24.9255L50.5681 24.954C49.7935 29.5342 45.1708 31.2196 42.7016 31.7982L57.787 30.7048C57.9453 30.2446 58.0977 29.8701 58.2382 29.5905C58.8511 28.377 59.6518 27.7791 59.9041 27.6128C54.8226 25.8131 48.2343 20.7543 47.6951 20.3369L46.6632 21.9527H46.664Z" fill="#FE9B74"/>
<path d="M49.741 34.8126L58.4464 42.856L56.7619 35.3324C56.7619 35.3324 68.4351 44.9781 68.4529 52.1137C68.4707 59.2493 66.0201 76.7654 66.2765 81.8385C66.533 86.9116 69.6888 95.9107 66.2765 96.7446C66.2765 96.7446 47.3158 101.817 36.4866 95.0851C36.4866 95.0851 35.8619 94.834 35.7103 94.2504C34.9925 91.4926 33.5839 82.601 34.9561 71.8644C36.6186 58.8554 34.9561 37.3479 38.1059 33.7923C41.2558 30.2366 45.7921 29.7596 49.7419 34.8109L49.741 34.8126Z" fill="#533B50"/>
<path d="M51.6093 98.6431C49.515 98.6431 47.5385 98.5121 45.7016 98.2493C42.0447 97.7269 38.9347 96.6822 36.457 95.1438C36.3892 95.1152 35.7992 94.8524 35.6469 94.267C34.8071 91.0414 33.5679 82.207 34.8909 71.8567C35.5614 66.6123 35.6892 60.052 35.8136 53.7083C35.9931 44.5446 36.1615 35.889 38.0568 33.7501C39.699 31.8967 41.6172 30.9486 43.6082 31.0091C45.7811 31.0754 47.9185 32.3745 49.791 34.7679L58.3381 42.6652L56.6578 35.1601L56.8059 35.2819C56.8356 35.3062 59.7619 37.7349 62.6518 41.0041C65.3242 44.0265 68.5113 48.4076 68.5198 52.1135C68.5282 55.6398 67.9365 61.6862 67.3634 67.5335C66.7726 73.5699 66.2139 79.2719 66.3434 81.835C66.4204 83.3566 66.7523 85.1949 67.1027 87.1407C67.9069 91.5991 68.739 96.2094 66.2935 96.8074C66.2478 96.82 61.4786 98.0813 55.4481 98.5037C54.131 98.5961 52.8494 98.6423 51.6093 98.6423V98.6431ZM43.4287 31.1367C41.5419 31.1367 39.7219 32.0672 38.155 33.8358C36.2919 35.9394 36.1234 44.5715 35.9448 53.7108C35.8204 60.0587 35.6926 66.6224 35.0213 71.8735C33.7016 82.2045 34.9366 91.0179 35.7747 94.2351C35.916 94.7793 36.506 95.0237 36.512 95.0262L36.5221 95.0312C42.1014 98.4987 49.8883 98.764 55.4388 98.3752C61.4566 97.9537 66.2131 96.6948 66.2605 96.6822C68.5875 96.1129 67.7672 91.5638 66.9732 87.1642C66.6211 85.2142 66.2892 83.3717 66.2122 81.8417C66.0819 79.2686 66.6414 73.5623 67.2331 67.5209C67.8053 61.6769 68.397 55.633 68.3886 52.1135C68.3792 48.4479 65.21 44.0953 62.5528 41.0898C60.0395 38.2471 57.5001 36.0427 56.8694 35.5069L58.5573 43.0456L49.6903 34.8511C47.8415 32.4871 45.7371 31.2031 43.6039 31.1384C43.5455 31.1367 43.4871 31.1359 43.4296 31.1359L43.4287 31.1367Z" fill="#533B50"/>
<path d="M36.4866 95.2059V99.9213C36.4866 99.9213 51.3164 103.615 61.9458 101.865L66.2765 100.962L66.2147 96.8477C66.2147 96.8477 56.9109 98.1989 52.3 97.8966C47.6891 97.5943 44.4081 97.5867 36.4857 95.2051L36.4866 95.2059Z" fill="#746587"/>
<path d="M55.5573 102.397C46.2865 102.397 36.5907 100.015 36.4713 99.9852L36.4214 99.9726V95.1187L36.506 95.1438C43.686 97.3021 47.1 97.5112 51.0523 97.7539C51.462 97.7791 51.8776 97.8043 52.3051 97.8328C56.8567 98.1318 66.1132 96.7982 66.2063 96.7848L66.2799 96.7739L66.3434 101.016L66.2901 101.026L61.9594 101.93C59.9388 102.263 57.7591 102.397 55.5565 102.397H55.5573ZM36.5526 99.871C37.5083 100.103 51.7464 103.479 61.9357 101.802L66.2105 100.911L66.1512 96.9242C65.2616 97.0501 56.6451 98.2485 52.2966 97.963C51.8691 97.9353 51.4535 97.9092 51.0446 97.884C47.0991 97.6422 43.6903 97.4331 36.5526 95.2942V99.871Z" fill="#746587"/>
<path d="M58.129 103.662L62.0627 106.815C62.0627 106.815 62.662 108.681 62.7619 110.223C62.7873 110.619 62.3243 110.848 62.0195 110.591C61.5175 110.168 60.9436 109.461 60.9504 108.442L58.73 107.076L58.1282 103.662H58.129Z" fill="#FDB88E"/>
<path d="M62.3115 110.765C62.1922 110.765 62.0745 110.723 61.9772 110.641C61.4811 110.222 60.892 109.51 60.8852 108.478L58.6716 107.116L58.035 103.503L62.1194 106.778L62.1253 106.796C62.1312 106.815 62.728 108.687 62.8279 110.219C62.8415 110.428 62.7331 110.616 62.5452 110.71C62.4707 110.746 62.3911 110.765 62.3124 110.765H62.3115ZM58.7901 107.036L61.0164 108.406V108.442C61.0096 109.443 61.581 110.137 62.0618 110.542C62.1829 110.643 62.3454 110.663 62.4859 110.593C62.6256 110.523 62.706 110.383 62.6959 110.228C62.6027 108.792 62.0677 107.052 62.0051 106.854L58.223 103.822L58.7893 107.036L58.7901 107.036Z" fill="#FDB88E"/>
<path d="M48.7574 95.954L51.4924 103.174C51.4924 103.174 51.8344 109.006 53.2692 111.44C53.513 111.854 54.0675 112.071 54.4179 111.781C54.4179 111.781 55.4794 113.537 56.7737 112.8C56.7737 112.8 56.9955 113.779 57.8682 113.788C58.7207 113.796 59.1583 113.309 59.1583 113.158C59.1583 113.158 60.7988 113.809 61.3567 112.052C61.3567 112.052 62.3081 108.735 61.3567 107.498C60.4052 106.262 57.682 102.913 56.5011 100.831C55.3203 98.7496 53.6925 93.3843 53.6925 93.3843L48.7582 95.9532L48.7574 95.954Z" fill="#FDB88E"/>
<path d="M57.8911 113.853C57.8835 113.853 57.875 113.853 57.8666 113.853C57.1064 113.845 56.8118 113.139 56.7331 112.896C55.5726 113.481 54.6042 112.176 54.401 111.874C54.2613 111.965 54.0887 111.998 53.9084 111.967C53.6315 111.919 53.3657 111.729 53.2134 111.472C51.815 109.1 51.445 103.462 51.4281 103.188L48.6761 95.9237L53.7314 93.291L53.7543 93.3666C53.7704 93.4203 55.3931 98.7496 56.5579 100.801C57.5356 102.524 59.5706 105.116 60.7862 106.664C61.0342 106.979 61.2466 107.251 61.4083 107.461C62.3683 108.708 61.4583 111.934 61.4193 112.071C61.2441 112.624 60.9461 113.001 60.5339 113.195C59.9845 113.453 59.4021 113.307 59.204 113.244C59.1787 113.304 59.1296 113.37 59.0601 113.437C58.9315 113.563 58.5616 113.855 57.892 113.855L57.8911 113.853ZM56.8178 112.7L56.8372 112.786C56.8457 112.823 57.059 113.714 57.8683 113.723C57.8759 113.723 57.8827 113.723 57.8903 113.723C58.5302 113.723 58.8756 113.433 58.967 113.343C59.0576 113.254 59.0915 113.182 59.0915 113.158V113.062L59.1812 113.097C59.188 113.1 59.8685 113.363 60.4772 113.076C60.8547 112.898 61.129 112.547 61.2924 112.032C61.3008 112.001 62.2235 108.734 61.3025 107.539C61.1408 107.329 60.9284 107.058 60.6812 106.743C59.4631 105.192 57.4247 102.596 56.4419 100.863C55.3474 98.9335 53.8533 94.1384 53.6502 93.4783L48.8378 95.9842L51.5568 103.159V103.169C51.561 103.227 51.9148 109.013 53.326 111.406C53.4589 111.631 53.69 111.796 53.9304 111.838C54.0497 111.859 54.2232 111.857 54.3756 111.731L54.4349 111.682L54.4747 111.748C54.4848 111.764 55.5184 113.441 56.7407 112.744L56.8178 112.7Z" fill="#FDB88E"/>
<path d="M61.6335 111.06L61.5378 111.037C61.5429 111.016 62.0551 108.804 61.3702 107.616C61.3338 107.552 61.2881 107.493 61.2492 107.442L60.4069 106.366L60.4848 106.306L61.3271 107.383C61.3685 107.436 61.4159 107.499 61.4557 107.568C62.1592 108.789 61.6555 110.968 61.6335 111.06Z" fill="#FDB88E"/>
<path d="M61.6462 111.079L61.5184 111.049L61.5218 111.033C61.5269 111.011 62.039 108.809 61.3559 107.624C61.3195 107.561 61.2746 107.501 61.2357 107.452L60.3832 106.362L60.4874 106.282L60.4975 106.294L61.3398 107.371C61.3821 107.425 61.4295 107.489 61.4701 107.558C62.1761 108.784 61.6716 110.969 61.6496 111.062L61.6462 111.078V111.079ZM61.5573 111.026L61.6217 111.041C61.6716 110.822 62.1186 108.752 61.4422 107.577C61.4033 107.509 61.3559 107.446 61.3144 107.394L60.4823 106.33L60.4306 106.369L61.2627 107.433C61.3025 107.483 61.3482 107.544 61.3855 107.609C62.0441 108.752 61.6039 110.823 61.5582 111.026H61.5573Z" fill="#FDB88E"/>
<path d="M59.2055 113.166L59.109 113.151L59.3384 111.644L59.4358 111.658L59.2055 113.166Z" fill="#FDB88E"/>
<path d="M59.2202 113.184L59.0906 113.165L59.0932 113.149L59.3251 111.625L59.4546 111.645L59.4521 111.661L59.2202 113.184ZM59.1279 113.137L59.1931 113.146L59.4182 111.672L59.353 111.662L59.1279 113.137Z" fill="#FDB88E"/>
<path d="M57.1073 111.374L56.6849 112.638L56.7781 112.668L57.2005 111.405L57.1073 111.374Z" fill="#FDB88E"/>
<path d="M56.7881 112.69L56.6637 112.649L56.6688 112.634L57.0971 111.355L57.2215 111.396L57.2165 111.411L56.7881 112.69ZM56.7052 112.629L56.7678 112.649L57.1801 111.416L57.1174 111.396L56.7052 112.629Z" fill="#FDB88E"/>
<path d="M54.5725 111.045L54.4242 111.735L54.5202 111.756L54.6685 111.065L54.5725 111.045Z" fill="#FDB88E"/>
<path d="M54.5314 111.766L54.4027 111.739L54.5576 111.016L54.6863 111.043L54.5314 111.766ZM54.4417 111.713L54.506 111.727L54.6473 111.068L54.583 111.054L54.4417 111.713Z" fill="#FDB88E"/>
<path d="M44.0983 33.0124C44.0983 33.0124 49.7851 32.0148 49.8291 40.1673C49.8731 48.3199 49.5226 71.1719 49.5226 71.1719L55.6835 95.7153C55.6835 95.7153 51.4476 97.7971 47.7289 97.3201C47.7289 97.3201 40.3796 75.5951 39.33 73.1673C38.2803 70.7386 37.383 38.5146 39.33 35.2681C41.2769 32.0215 44.0983 33.0133 44.0983 33.0133V33.0124Z" fill="#746587"/>
<path d="M48.8751 97.4546C48.4882 97.4546 48.1014 97.4328 47.7213 97.3841L47.6807 97.379L47.668 97.3404C47.5943 97.1229 40.3077 75.5901 39.2707 73.1926C38.7645 72.0228 38.2583 63.6485 38.1415 54.5251C38.0907 50.5286 38.0213 37.3248 39.2741 35.2346C41.1483 32.1089 43.8664 32.8723 44.1042 32.9462C44.2998 32.9177 46.1561 32.685 47.7035 33.964C49.1417 35.1531 49.879 37.24 49.8951 40.1675C49.9383 48.1689 49.5972 70.6178 49.5887 71.1645L55.7597 95.7507L55.7123 95.7742C55.6742 95.7927 52.2467 97.4554 48.8742 97.4554L48.8751 97.4546ZM47.7789 97.2598C51.2165 97.683 55.1332 95.9027 55.6073 95.6793L49.4575 71.1788V71.1704C49.4609 70.942 49.8071 48.226 49.7639 40.1675C49.7487 37.2803 49.0266 35.227 47.6197 34.0631C46.0385 32.7564 44.1296 33.073 44.1102 33.0755L44.0932 33.0789L44.0771 33.073C44.0492 33.0638 41.282 32.1392 39.3875 35.3001C38.5537 36.6908 38.1373 43.8768 38.2727 54.5226C38.3895 63.6317 38.8906 71.9833 39.3909 73.1405C40.4093 75.4952 47.4276 96.221 47.7789 97.2598Z" fill="#746587"/>
<path d="M47.9914 0.230029C47.9914 0.230029 38.3675 2.66371 38.1051 13.0249C37.8427 23.3861 30.8438 22.6916 29.7933 29.283C28.7437 35.8744 28.8309 37.6086 27.6932 39.8634C26.5555 42.1182 24.4562 43.5928 27.6932 45.7603L30.9302 47.9286C30.9302 47.9286 35.3286 48.3619 36.9784 43.9388L38.6291 39.5157C38.6291 39.5157 39.854 31.4614 45.3655 32.0198C50.8771 32.5783 54.5627 25.9986 54.8641 24.0848C55.1646 22.1709 52.3026 14.6255 53.69 10.5501C55.0774 6.47378 59.9007 3.08276 61.289 4.80094C61.289 4.80094 57.9648 -0.98429 47.9905 0.230029H47.9914Z" fill="#48324E"/>
<path d="M31.2468 48.0051C31.0462 48.0051 30.9285 47.9942 30.9251 47.9942L30.909 47.9925L27.6585 45.815C25.0208 44.0481 25.8851 42.6859 26.8865 41.1088C27.143 40.7041 27.4088 40.2859 27.6365 39.8341C28.444 38.2326 28.6353 36.8621 29.0535 33.8582C29.2211 32.654 29.4302 31.1558 29.7299 29.2722C30.1802 26.443 31.72 24.9448 33.3495 23.3601C35.5817 21.1885 37.8901 18.9429 38.0408 13.0225C38.1009 10.6484 38.6604 8.49522 39.7041 6.62251C40.5396 5.12435 41.6841 3.80086 43.1071 2.69067C45.5289 0.800333 47.9524 0.173018 47.9761 0.1663L47.9846 0.164621C53.1558 -0.464373 56.5122 0.817968 58.4168 2.00457C60.4848 3.29279 61.3398 4.75317 61.3483 4.76828L61.2399 4.84135C60.9419 4.47268 60.4518 4.3358 59.822 4.44665C57.8226 4.79684 54.8031 7.49084 53.7543 10.5712C52.8706 13.1669 53.7399 17.2633 54.374 20.2538C54.7464 22.0098 55.041 23.3962 54.931 24.0949C54.6584 25.8308 51.2961 32.119 46.036 32.119C45.8142 32.119 45.5898 32.1081 45.3613 32.0846C43.1062 31.8562 41.2998 33.0344 39.9928 35.5856C39.0134 37.4978 38.6994 39.5057 38.6968 39.5259L38.6934 39.5385L37.0428 43.9616C36.181 46.2701 34.5642 47.2434 33.3596 47.6541C32.4734 47.9556 31.6734 48.0043 31.2485 48.0043L31.2468 48.0051ZM30.9539 47.8657C31.0936 47.8766 32.1263 47.9371 33.3207 47.5298C34.4973 47.1284 36.0761 46.1761 36.9183 43.9171L38.5665 39.4998C38.5876 39.3688 38.9135 37.4046 39.8734 35.5294C41.1889 32.9596 43.091 31.7243 45.374 31.9553C50.9346 32.5179 54.5204 25.8585 54.8006 24.0748C54.9064 23.3996 54.6 21.9543 54.2453 20.2798C53.6079 17.2743 52.7343 13.1577 53.629 10.5283C54.6914 7.40603 57.7625 4.67423 59.7983 4.31732C60.263 4.23587 60.6592 4.28121 60.969 4.44917C60.5796 3.93438 59.7433 2.98292 58.339 2.11039C56.453 0.937216 53.1296 -0.329169 48.0041 0.293946C47.8932 0.323339 45.5382 0.957371 43.1833 2.79649C40.9714 4.52475 38.3057 7.70247 38.1711 13.0267C38.0196 18.9992 35.5868 21.3657 33.4409 23.4533C31.8275 25.0229 30.3029 26.5059 29.8585 29.2932C29.5589 31.1751 29.3498 32.6733 29.1822 33.8767C28.7615 36.8948 28.5702 38.2721 27.7524 39.8928C27.5222 40.3497 27.2547 40.7713 26.9957 41.1785C25.9909 42.7615 25.1977 44.0111 27.7304 45.7075L30.953 47.8665L30.9539 47.8657Z" fill="#48324E"/>
<path d="M57.8734 1.7627C55.879 1.91805 52.6082 4.72375 51.506 7.96194C50.1186 12.0382 52.9806 19.5828 52.6801 21.4966C52.3796 23.4105 48.694 29.9902 43.1816 29.4317C37.67 28.8733 36.4451 36.9276 36.4451 36.9276L34.7945 41.3507C33.1438 45.7738 28.7462 45.3405 28.7462 45.3405C28.7462 45.3405 27.8204 44.7204 25.9689 43.4804C25.9926 44.1942 26.4471 44.9256 27.6932 45.7612L30.9302 47.9295C30.9302 47.9295 35.3286 48.3628 36.9784 43.9397L38.6291 39.5166C38.6291 39.5166 39.854 31.4623 45.3655 32.0207C50.8771 32.5792 54.5627 25.9995 54.8641 24.0857C55.1646 22.1718 52.3026 14.6264 53.69 10.551C55.0774 6.47469 59.9008 3.08367 61.289 4.80185C61.289 4.80185 60.3232 3.1223 57.8725 1.76354L57.8734 1.7627Z" fill="#533B50"/>
<path d="M31.2465 47.9799C31.0467 47.9799 30.9307 47.969 30.9265 47.969H30.9163L30.9079 47.9623L27.6708 45.794C26.5086 45.0155 25.955 44.2807 25.9287 43.4821L25.9262 43.4048L25.9914 43.4485C28.3624 45.0365 28.7095 45.2691 28.7594 45.3027C28.872 45.312 29.9225 45.3825 31.1415 44.9668C32.324 44.5637 33.9104 43.6072 34.7569 41.3381L36.4059 36.9192C36.4219 36.8159 36.7453 34.8399 37.7103 32.9538C39.0207 30.395 40.9135 29.1639 43.1855 29.3931C48.763 29.9583 52.359 23.2795 52.64 21.4917C52.7467 20.8114 52.4394 19.3645 52.0838 17.6883C51.4473 14.6853 50.5745 10.5737 51.4676 7.95023C52.5765 4.69106 55.877 1.87948 57.8697 1.72412H57.8815L57.8917 1.72916C60.3237 3.07784 61.3141 4.7658 61.3234 4.78259L61.2574 4.8271C60.9535 4.45088 60.454 4.31064 59.8149 4.42317C57.8087 4.77503 54.7791 7.4766 53.7278 10.5645C52.8423 13.1669 53.7117 17.2667 54.3465 20.2605C54.7182 22.014 55.0119 23.3988 54.9035 24.0924C54.6318 25.8232 51.2788 32.0947 46.0339 32.0947C45.813 32.0947 45.5895 32.0838 45.3618 32.0603C42.537 31.7739 40.8686 33.8154 39.9662 35.5773C38.9851 37.4928 38.6719 39.5024 38.6685 39.5225L38.6669 39.5301L37.0162 43.9532C36.1578 46.2525 34.5478 47.2216 33.3483 47.6306C32.4654 47.9312 31.6689 47.9799 31.2456 47.9799H31.2465ZM30.9443 47.8909C31.0568 47.9002 32.1073 47.9699 33.3263 47.555C34.5089 47.1519 36.0952 46.1954 36.9417 43.9263L38.5907 39.5074C38.6068 39.4041 38.9301 37.4273 39.8951 35.542C41.2055 32.9832 43.0983 31.7512 45.3703 31.9813C50.9495 32.5465 54.5438 25.8677 54.8248 24.0798C54.9315 23.3996 54.6242 21.9519 54.2687 20.2765C53.6321 17.2734 52.7594 13.1619 53.6524 10.5384C54.7122 7.42453 57.7732 4.70029 59.8014 4.34423C60.3177 4.25353 60.7478 4.32155 61.066 4.54074C60.6792 4.00748 59.6778 2.81247 57.8637 1.8039C55.8939 1.96766 52.6408 4.74984 51.5438 7.97543C50.6583 10.5779 51.5277 14.6777 52.1626 17.6715C52.5342 19.425 52.8279 20.8098 52.7196 21.5034C52.436 23.3073 48.8071 30.0414 43.1778 29.4721C40.3539 29.1865 38.6846 31.2272 37.7823 32.9891C36.8012 34.9046 36.488 36.9142 36.4846 36.9343L36.4829 36.9419L34.8322 41.365C33.9739 43.6643 32.3638 44.6334 31.1643 45.0424C29.865 45.4849 28.7535 45.3817 28.7417 45.3808H28.7315L28.723 45.3741C28.723 45.3741 28.6951 45.3556 26.0126 43.5585C26.071 44.3 26.6144 44.992 27.7157 45.7285L30.9443 47.8909Z" fill="#533B50"/>
</g>
<defs>
<clipPath id="clip0_174_147">
<rect width="83" height="196" fill="white"/>
</clipPath>
</defs>
</svg>
