<svg width="270" height="172" viewBox="0 0 270 172" fill="none" xmlns="http://www.w3.org/2000/svg">
<ellipse cx="135" cy="158.288" rx="135" ry="12.7269" fill="#654B59" fill-opacity="0.2"/>
<path d="M37.2631 142.341C36.8113 144.752 30.6369 147.915 25.3239 150.616C23.5755 151.505 13.4058 160.794 28.3222 157.826C30.9396 157.305 39.8337 155.234 43.948 153.332C48.121 151.404 45.9057 145.139 46.6331 142.706C46.6331 142.706 38.9768 133.2 37.2631 142.341Z" fill="#FDB98D"/>
<path d="M25.3239 150.616C19.3317 153.04 14.5594 156.109 16.0834 159.705C17.7987 163.749 27.0241 162.657 30.3628 161.139C32.167 160.318 35.4108 158.409 37.8233 157.481C40.7193 156.366 43.0655 154.952 45.0308 154.095C47.7566 152.906 48.1828 148.962 46.5247 145.791C46.3274 146.962 45.3365 148.819 44.1152 149.538C38.9904 152.558 32.6715 155.836 29.5647 156.223C26.4564 156.61 24.6628 156.148 24.0198 154.626C23.0319 152.287 24.1192 151.547 25.3239 150.615V150.616Z" fill="#533B50"/>
<path d="M25.0649 129.687C24.9143 133.453 22.3541 134.658 13.8847 139.929C12.2191 140.966 2.79333 151.002 17.4327 146.885C20.0003 146.162 28.7078 143.406 32.6624 141.19C36.6742 138.944 34.0539 132.852 34.59 130.37C34.59 130.37 25.4353 120.394 25.0634 129.686L25.0649 129.687Z" fill="#FDB98D"/>
<path d="M13.8863 139.929C8.15159 142.612 3.57952 146.241 5.37913 149.708C7.40313 153.606 16.5156 151.802 19.7278 150.029C21.4642 149.071 24.5499 146.916 26.8811 145.803C29.6822 144.467 31.911 142.873 33.804 141.868C36.4304 140.472 36.6081 136.502 34.7091 133.47C34.6036 134.652 33.6986 136.585 32.539 137.397C27.6642 140.806 21.6178 144.566 18.5502 145.193C15.4811 145.82 13.6574 145.499 12.8984 144.031C11.7312 141.776 12.7583 140.954 13.8863 139.929Z" fill="#533B50"/>
<path d="M101.06 46.587C101.492 56.9935 58.0678 98.8186 51.169 70.6676C48.8634 61.2568 38.6937 71.0909 38.9422 48.4851C39.031 40.3412 24.5408 32.1311 40.3247 19.8701C46.1045 15.3808 49.2534 -1.07413 64.8732 15.9834C71.1048 22.7896 101.06 46.587 101.06 46.587Z" fill="#48324E"/>
<path d="M59.6927 71.3848C65.7662 106.044 69.9136 145.754 95.1232 145.793C120.333 145.834 123.054 114.71 126.598 114.188C130.433 113.615 132.15 107.187 131.879 98.049C131.859 97.3861 131.838 96.6932 131.799 96.0002C130.213 68.7335 112.452 21.1793 81.5907 27.6269C56.9232 32.779 53.7502 37.4897 59.6942 71.3848H59.6927Z" fill="#746587"/>
<path d="M114.07 109.65C114.07 109.65 72.546 96.8512 58.5828 52.5675C52.9536 34.7146 43.448 70.1764 45.8967 101.834C46.9794 115.828 50.4507 127.854 57.0241 137.378C68.3353 153.765 112.669 159.747 114.07 109.65Z" fill="#533B50"/>
<path d="M35.1668 132.417C35.1668 132.417 85.9897 45.2583 51.8814 46.1712C26.9398 46.8385 23.565 129.576 23.565 129.576C23.2487 132.102 34.3777 133.642 35.1668 132.418V132.417Z" fill="#533B50"/>
<path d="M36.2541 140.416C36.2541 140.416 37.2706 42.878 68.364 49.2186C71.5807 49.8739 74.0595 51.168 75.9088 52.9742C76.8169 53.86 77.5759 54.8678 78.1933 55.9871C81.6148 61.6634 85.2186 71.3409 89.4473 80.4805C92.1249 86.2683 95.0525 91.8391 98.3445 96.0406C110.175 111.14 126.593 114.189 126.593 114.189C129.444 154.422 90.512 159.858 76.8651 144.261C69.894 136.293 65.1774 123.673 62.8627 114.478C55.0288 129.695 48.0909 143.449 48.0909 143.449C46.4162 144.824 35.6592 143.928 36.2511 140.418L36.2541 140.416Z" fill="#AF9CAF"/>
<path d="M48.0939 143.447C63.9199 114.477 104.633 55.6273 68.3655 49.2189C37.117 43.6978 36.2556 140.416 36.2556 140.416C35.6637 143.926 46.4208 144.823 48.0954 143.447H48.0939Z" fill="#AF9CAF"/>
<path d="M122.132 97.1869C121.837 100.352 121.542 103.518 121.247 106.684C121.161 107.604 119.712 107.613 119.798 106.684C120.093 103.518 120.389 100.352 120.684 97.1869C120.77 96.2664 122.218 96.2574 122.132 97.1869Z" fill="white"/>
<path d="M69.9437 30.0762L88.9037 38.4596C92.9908 42.643 83.2548 53.5256 79.7701 51.2975C77.5608 49.8845 70.8849 45.7237 70.8849 45.7237L69.9437 30.0762Z" fill="#ED715D"/>
<path d="M142.891 130.173C142.089 135.788 148.907 135.475 153.249 137.159C156.596 138.457 163.87 143.008 163.218 144.997C162.572 146.969 154.428 140.547 148.678 141.43C149.594 143.189 154.399 145.818 153.435 147.943C153.093 148.697 150.898 146.979 148.362 145.967C147.167 145.491 143.389 144.899 141.086 143.346C136.873 140.505 137.278 136.189 133.269 133.515L142.891 130.173Z" fill="#FDB88E"/>
<path d="M134.539 138.128C126.387 127.835 118.359 121.551 111.811 106.578C105.805 92.8452 100.993 85.1924 96.4425 71.6886L104.716 41.1709C126.946 43.6339 128.436 62.7146 132.739 78.7945C132.874 79.3007 133.013 79.8023 133.155 80.3009C134.293 84.3171 135.661 88.1013 137.636 91.3357C143.613 101.123 140.46 113.476 142.132 123.752C142.231 124.354 142.345 124.951 142.479 125.538C143.002 127.826 143.818 129.991 145.095 131.978C146.165 133.449 137.078 140.267 134.539 138.128Z" fill="#746587"/>
<path d="M128.524 100.618C128.423 100.618 128.321 100.592 128.226 100.538C125.22 98.8205 124.041 96.3002 124.617 92.8353C124.672 92.5069 124.983 92.2855 125.31 92.3397C125.638 92.3939 125.86 92.7043 125.806 93.0327C125.315 95.9808 126.274 98.0326 128.823 99.4908C129.113 99.6565 129.212 100.024 129.048 100.313C128.936 100.508 128.733 100.618 128.524 100.618Z" fill="white"/>
<path d="M124.458 120.955C124.357 120.955 124.254 120.929 124.16 120.875C121.154 119.157 119.975 116.637 120.551 113.172C120.606 112.844 120.917 112.622 121.244 112.677C121.572 112.731 121.794 113.041 121.74 113.37C121.249 116.318 122.208 118.369 124.757 119.828C125.047 119.993 125.146 120.361 124.982 120.65C124.87 120.845 124.667 120.955 124.458 120.955Z" fill="white"/>
<path d="M94.4893 79.5273C94.3884 79.5273 94.286 79.5017 94.1911 79.4475C91.1852 77.7301 90.006 75.2098 90.5828 71.745C90.637 71.4166 90.9488 71.1951 91.2756 71.2494C91.6039 71.3036 91.8252 71.6139 91.771 71.9423C91.2801 74.8905 92.2394 76.9423 94.7889 78.4005C95.0781 78.5662 95.1775 78.9338 95.0133 79.223C94.9019 79.4174 94.6986 79.5273 94.4893 79.5273Z" fill="white"/>
<path d="M133.155 80.3016C129.848 79.1371 129.055 75.9856 128.531 72.8477C128.477 72.5193 128.698 72.2089 129.027 72.1532C129.355 72.099 129.665 72.3204 129.721 72.6488C130.227 75.6903 130.924 77.7557 132.739 78.7951C132.874 79.3013 133.013 79.8029 133.155 80.3016Z" fill="white"/>
<path d="M142.479 125.539C139.847 123.833 138.831 121.407 139.374 118.144C139.43 117.815 139.74 117.595 140.068 117.648C140.397 117.704 140.618 118.014 140.564 118.342C140.18 120.644 140.68 122.399 142.132 123.752C142.231 124.355 142.345 124.951 142.479 125.539Z" fill="white"/>
<path d="M112.259 81.1842C112.159 81.1842 112.056 81.1586 111.961 81.1043C108.955 79.387 107.776 76.8667 108.353 73.4019C108.407 73.0735 108.719 72.8535 109.046 72.9062C109.374 72.9605 109.595 73.2708 109.541 73.5992C109.05 76.5473 110.01 78.5991 112.559 80.0574C112.848 80.2231 112.948 80.5906 112.783 80.8799C112.672 81.0742 112.469 81.1842 112.259 81.1842Z" fill="white"/>
<path d="M106.537 102.576C106.436 102.576 106.334 102.551 106.239 102.496C103.233 100.779 102.054 98.2587 102.631 94.7938C102.685 94.4654 102.997 94.244 103.323 94.2982C103.652 94.3524 103.873 94.6628 103.819 94.9912C103.328 97.9393 104.287 99.9911 106.837 101.449C107.126 101.615 107.225 101.983 107.061 102.272C106.95 102.466 106.746 102.576 106.537 102.576Z" fill="white"/>
<path d="M114.972 59.7927C114.931 59.7927 114.89 59.7882 114.85 59.7806C109.382 58.6538 108.263 51.7498 108.218 51.4575C108.168 51.1291 108.392 50.8203 108.722 50.7706C109.05 50.7209 109.358 50.9453 109.409 51.2752C109.422 51.3581 110.457 57.646 115.092 58.6011C115.418 58.6689 115.628 58.9867 115.561 59.3121C115.502 59.5969 115.25 59.7927 114.972 59.7927Z" fill="white"/>
<path d="M112.893 108.894C112.246 107.455 111.57 104.795 110.901 101.847C110.145 98.516 108.722 96.5094 107.213 94.3868C105.346 91.758 103.415 89.0404 102.439 83.3942C102.401 83.1758 102.194 83.0282 101.975 83.0673C101.757 83.105 101.611 83.3129 101.648 83.5313C102.656 89.3568 104.73 92.2763 106.558 94.8523C108.019 96.9086 109.398 98.8504 110.118 102.025C110.794 105.004 111.341 107.455 112.139 109.174C112.374 109.804 113.125 109.525 112.892 108.894H112.893Z" fill="#AF9CAF"/>
<path d="M70.3955 25.0326C82.3558 31.5269 80.6676 42.0645 76.0609 48.1686C72.8638 52.4048 65.9063 51.4557 62.6534 50.7462C62.6414 50.7432 62.6248 50.7417 62.6128 50.7386C61.1309 50.4554 59.7003 49.9176 58.4112 49.196C57.8434 48.8752 57.3359 48.5136 56.8314 48.1295C56.4504 47.8417 56.0694 47.542 55.6688 47.2407C55.0243 46.7586 54.2894 46.3217 53.4596 45.8095C50.8754 44.2097 50.0772 43.0106 49.5321 41.9169C46.9268 36.6895 52.0922 34.4042 47.5231 26.5029C44.582 21.4096 62.5781 20.7904 70.3925 25.0326H70.3955Z" fill="#FDB88E"/>
<path d="M79.4689 38.7942C73.2312 34.4164 75.1016 24.9348 66.5749 25.4109C57.2109 25.9336 53.9942 37.0437 45.1347 29.882L39.7961 29.3909C39.7961 29.3909 27.4684 9.35661 56.3299 4.29645C63.3929 3.05814 66.7059 -2.96766 78.0006 3.66072C83.154 6.68417 83.7383 6.85741 92.6234 7.1587C99.9739 7.40727 105.109 12.5488 106.163 22.1901C107.034 30.1501 120.47 31.6807 115.199 44.1842C108.724 40.7194 101.555 43.7323 101.103 52.9216C100.554 64.1055 91.0105 60.6844 92.0225 71.6348C92.5195 77.0249 92.8357 79.0751 89.5226 80.7322C86.9625 74.7064 80.3363 73.8026 80.9779 64.1025C81.6872 53.3781 89.5618 45.8745 79.4719 38.7942H79.4689Z" fill="#48324E"/>
<path d="M63.3312 118.034C63.4607 118.034 63.5857 117.967 63.6564 117.848C71.5476 104.4 76.9404 86.4101 77.4118 77.4558C77.4223 77.2479 77.2627 77.0701 77.0564 77.0596C76.8441 77.049 76.6709 77.2087 76.6603 77.4166C76.1935 86.2836 70.8413 104.117 63.0074 117.469C62.902 117.648 62.9622 117.878 63.1414 117.984C63.2016 118.018 63.2664 118.035 63.3312 118.035V118.034Z" fill="#533B50"/>
<path d="M125.852 90.1074C125.448 63.8481 125.812 47.5541 165.351 38.0508C170.476 36.8186 179.358 40.5862 179.358 40.5862C210.329 46.6776 213.845 64.5424 224.346 91.9288C229.754 106.035 193.044 118.214 192.235 118.209C167.313 131.497 149.248 130.15 133.296 118.725C128.545 120.002 126.182 111.512 125.852 90.1074Z" fill="#533B50"/>
<path d="M203.602 90.227C203.639 90.227 203.677 90.2209 203.712 90.2074C203.88 90.1463 203.966 89.9617 203.904 89.7942C202.384 85.633 197.754 84.424 192.853 83.1441C189.469 82.2603 185.969 81.3459 182.899 79.4536C182.748 79.3607 182.55 79.4071 182.455 79.5587C182.363 79.7103 182.409 79.9083 182.561 80.0024C185.712 81.9461 189.259 82.8727 192.689 83.7676C197.628 85.0572 201.893 86.1709 203.298 90.0155C203.346 90.1463 203.469 90.227 203.6 90.227H203.602Z" fill="#AF9CAF"/>
<path d="M161.843 24.5576L160.187 41.6364C159.511 48.0041 180.629 49.2742 180.823 43.6889V33.7235L161.843 24.5576Z" fill="#C28173"/>
<path d="M227.43 126.404L227.027 148.082L251.537 151.045L241.302 145.12C241.302 145.12 240.395 144.395 240.258 144.046C238.399 139.283 240.813 123.599 240.813 123.599L227.432 126.404H227.43Z" fill="#C28173"/>
<path d="M227.126 142.963C226.91 142.705 225.289 144.571 224.737 148.216C224.247 151.458 224.155 152.432 224.872 153.199C227.447 155.95 248.651 160.605 255.883 158.608C258.21 157.966 258.972 154.639 255.96 152.477C253.961 151.043 241.343 145.2 241.302 145.118C239.39 148.3 230.125 145.522 227.127 142.962L227.126 142.963Z" fill="#48324E"/>
<path d="M241.049 149.477C240.95 149.477 240.854 149.429 240.795 149.341C240.701 149.2 240.739 149.011 240.879 148.917L244.027 146.819C244.168 146.726 244.357 146.764 244.451 146.903C244.546 147.043 244.508 147.233 244.367 147.327L241.219 149.425C241.167 149.459 241.108 149.477 241.05 149.477H241.049Z" fill="#AF9CAF"/>
<path d="M244.197 150.744C244.11 150.744 244.025 150.707 243.964 150.636C243.855 150.508 243.87 150.315 243.999 150.206L246.692 147.916C246.821 147.808 247.014 147.822 247.123 147.952C247.231 148.08 247.217 148.273 247.087 148.382L244.394 150.672C244.337 150.721 244.266 150.744 244.196 150.744H244.197Z" fill="#AF9CAF"/>
<path d="M206.826 133.406L206.25 151.513C206.25 151.513 204.365 158.785 218.101 162.286C220.643 162.934 220.697 152.122 220.697 152.122C220.697 152.122 219.79 151.397 219.653 151.048C217.793 146.285 220.208 130.601 220.208 130.601L206.826 133.406Z" fill="#C28173"/>
<path d="M206.25 151.514C206.034 151.256 204.451 153.324 203.557 156.9C202.884 159.593 203.435 160.788 204.231 161.344C206.924 163.229 228.047 167.608 235.279 165.612C237.605 164.97 238.74 160.993 235.356 159.481C233.24 158.536 220.738 152.204 220.698 152.122C218.786 155.304 209.249 154.074 206.252 151.514H206.25Z" fill="#48324E"/>
<path d="M220.445 156.479C220.346 156.479 220.249 156.431 220.191 156.343C220.097 156.203 220.136 156.013 220.275 155.919L223.423 153.821C223.564 153.727 223.753 153.766 223.847 153.906C223.941 154.046 223.903 154.236 223.763 154.33L220.615 156.428C220.562 156.462 220.504 156.479 220.446 156.479H220.445Z" fill="#AF9CAF"/>
<path d="M223.188 157.746C223.093 157.746 222.999 157.702 222.939 157.618C222.841 157.481 222.873 157.29 223.01 157.191L225.837 155.172C225.974 155.074 226.166 155.106 226.264 155.243C226.362 155.38 226.33 155.571 226.193 155.67L223.365 157.689C223.312 157.727 223.249 157.746 223.188 157.746Z" fill="#AF9CAF"/>
<path d="M165.175 112.531C167.505 109.598 198.335 50.2397 224.026 56.8446C247.593 62.9042 243.86 126.465 242.612 141.01C242.343 143.973 224.835 142.087 224.43 138.855C224.43 138.855 218.714 109.023 217.292 100.34C205.961 121.485 201.4 133.147 194.803 140.335C182.817 153.397 155.883 145.857 151.034 143.028C149.687 142.355 165.175 112.529 165.175 112.529V112.531Z" fill="#AF9CAF"/>
<path d="M171.166 109.841C172.573 108.07 184.372 85.7235 199.156 69.7511C208.854 59.2735 219.532 104.4 218.11 95.7182C214.076 120.289 208.189 130.632 202.544 138.591C191.366 154.347 165.24 145.863 155.14 144.854C153.792 144.181 171.166 109.842 171.166 109.842V109.841Z" fill="#48324E"/>
<path d="M133.259 118.726C136.34 119.769 150.629 115.279 150.629 115.279C159.186 105.499 172.853 58.2627 197.094 58.2627C197.44 58.2627 214.197 71.7291 207.06 90.1783C197.292 115.428 189.064 147.403 165.581 150.643C153.865 152.259 138.647 149.566 134.606 133.541C133.609 129.583 133.259 123.729 133.259 118.727V118.726Z" fill="#AF9CAF"/>
<path d="M203.691 146.935C203.691 146.935 190.628 114.212 189.954 89.165C189.594 75.7572 186.777 59.3997 194.803 58.3961C224.97 54.626 219.716 125.39 222.005 146.935C221.602 149.628 204.497 149.494 203.689 146.935H203.691Z" fill="#AF9CAF"/>
<path d="M221.267 120.241H221.265C221.097 120.241 220.96 120.103 220.961 119.934C221.046 99.3247 218.686 83.3376 213.942 72.415C211.488 66.7612 208.497 62.7455 205.056 60.4791L204.936 60.3996C204.796 60.3055 204.758 60.116 204.852 59.9755C204.946 59.8349 205.135 59.797 205.276 59.8911L205.393 59.9681C206.027 60.385 207.345 61.2529 209.004 63.1257C211.051 65.4386 212.902 68.4812 214.505 72.1706C219.281 83.1713 221.659 99.2416 221.573 119.936C221.573 120.105 221.436 120.241 221.268 120.241H221.267Z" fill="#48324E"/>
<path d="M198.507 133.843C198.377 133.843 198.256 133.76 198.216 133.629C193.897 119.927 188.94 99.9763 189.853 82.752C189.861 82.5833 190.006 82.4525 190.174 82.4635C190.343 82.4721 190.473 82.6163 190.463 82.785C189.555 99.9176 194.495 119.791 198.799 133.446C198.849 133.607 198.76 133.778 198.6 133.829C198.569 133.839 198.539 133.844 198.508 133.844L198.507 133.843Z" fill="#48324E"/>
<path d="M234.226 84.8485C234.182 84.4389 234.119 83.8864 235.05 83.4219C235.214 83.34 235.204 83.1089 235.037 83.0356C234.556 82.8278 234.268 82.3901 234.351 81.9183C234.587 80.5834 236.915 79.9636 239.028 79.1433C243.975 77.2241 247.042 86.687 243.05 88.3825C242.014 88.8226 239.382 89.4375 238.883 88.2737C238.811 88.1063 238.731 87.7762 238.879 87.4486C238.943 87.3092 238.812 87.1625 238.67 87.2188C237.317 87.7469 235.869 88.1882 235.335 87.0574C235.232 86.8398 235.284 86.4927 235.443 86.1846C235.539 85.9976 235.431 85.7641 235.223 85.7311C234.725 85.6504 234.283 85.3619 234.228 84.8472L234.226 84.8485Z" fill="#C28173"/>
<path d="M236.097 83.2335C235.971 83.2335 235.852 83.1553 235.808 83.0294C235.752 82.8705 235.836 82.6957 235.995 82.6394L240.737 80.9769C240.896 80.9207 241.071 81.005 241.127 81.1639C241.184 81.3229 241.099 81.4977 240.94 81.5539L236.198 83.2164C236.165 83.2287 236.131 83.2335 236.097 83.2335Z" fill="#80322D"/>
<path d="M236.345 85.7385C236.219 85.7385 236.1 85.6591 236.056 85.5331C236 85.3742 236.085 85.1994 236.243 85.1444L241.67 83.246C241.829 83.1897 242.004 83.2741 242.059 83.433C242.115 83.5919 242.031 83.7667 241.872 83.8217L236.445 85.7202C236.412 85.7324 236.378 85.7373 236.344 85.7373L236.345 85.7385Z" fill="#80322D"/>
<path d="M239.476 87.2041C239.345 87.2041 239.224 87.1197 239.184 86.9877C239.135 86.8263 239.225 86.6552 239.387 86.6063L242.758 85.5733C242.92 85.5244 243.091 85.6149 243.14 85.7762C243.189 85.9376 243.098 86.1087 242.937 86.1576L239.565 87.1906C239.536 87.1992 239.505 87.2041 239.476 87.2041Z" fill="#80322D"/>
<path d="M164.84 3.17454C169.917 -3.6357 181.224 2.63055 181.224 2.63055C195.956 0.273681 199.848 12.4932 199.939 15.6581C200.018 18.427 198.98 24.7103 189.524 24.8094C185.733 24.8485 186.779 24.9781 182.338 24.4769C180.25 24.2409 166.453 27.2078 163.418 28.5659C163.694 32.4117 161.907 39.1401 160.385 39.3357C156.827 39.964 158.75 28.5659 158.75 28.5659C154.767 19.7766 155.338 4.0437 164.84 3.17576V3.17454Z" fill="#533B50"/>
<path d="M188.564 28.6283C188.514 29.3251 188.235 33.5524 187.537 35.1611C187.272 35.7833 186.942 36.4288 186.551 37.1292C185.173 39.5973 181.117 44.3196 175.954 43.6522C170.531 42.9419 165.252 37.7282 164.603 29.6699C160.698 29.8215 159.426 24.2092 161.071 21.6592C161.819 20.4991 163.61 19.6312 165.181 20.9355C165.006 18.2865 163.961 17.784 164.281 16.7315C169.416 0.113616 186.977 12.4725 189.244 14.7609C191.75 19.7864 188.641 27.401 188.563 28.6308L188.564 28.6283Z" fill="#C28173"/>
<path d="M183.215 17.6812C190.952 16.8891 189.793 21.7446 194.572 20.851C198.481 20.12 193.217 9.51405 188.166 10.9223C182.376 12.5372 173.703 -5.42911 162.115 14.707C160.674 17.2118 163.096 18.8816 165.153 20.9048C166.074 21.8106 166.146 23.0697 165.878 24.6565C165.845 24.8508 165.947 25.0452 166.129 25.1186C166.69 25.3435 167.701 25.5036 168.349 22.8558C169.257 19.1542 169.646 12.267 173.58 13.4381C177.007 14.4588 177.553 18.2606 183.215 17.6812Z" fill="#533B50"/>
<path d="M176.41 43.7498C177.218 43.7657 178.063 43.7278 178.948 43.6398C179.104 43.6239 179.218 43.4845 179.202 43.3281C179.186 43.1716 179.049 43.0567 178.89 43.0738C171.487 43.8195 166.839 40.7426 165.081 33.925C165.042 33.7734 164.888 33.6805 164.734 33.7209C164.582 33.76 164.489 33.9152 164.53 34.068C166.159 40.3844 170.151 43.6324 176.411 43.751L176.41 43.7498Z" fill="#80322D"/>
<path d="M105.272 161.486C104.254 160.759 105.036 159.606 106.617 158.552C106.984 158.308 107.227 157.913 106.861 157.574C106.731 157.453 106.585 157.31 106.495 157.207C105.639 156.23 107.409 154.788 110.773 153.173C113.83 151.706 117.375 150.729 118.353 149.995C124.521 145.369 123.981 133.508 125.321 133.981C128.18 134.99 136.685 133.384 136.324 135.692C135.713 139.604 131.801 148.039 130.945 151.951C130.125 155.701 128.011 156.963 124.343 159.041C122.862 159.881 117.168 163.439 116.353 160.977C116.298 160.81 116.097 160.74 115.947 160.833C114.552 161.694 109.457 164.796 108.348 164.4C107.877 164.233 107.689 163.732 107.81 163.206C107.843 163.064 107.68 162.959 107.559 163.039C106.622 163.661 106.058 163.484 105.772 163.123C105.15 162.342 106.128 162.097 105.272 161.486Z" fill="#C28173"/>
<path d="M111.788 159.855C113.637 158.792 114.676 158.371 114.741 158.345C114.929 158.271 115.142 158.361 115.216 158.55C115.291 158.738 115.201 158.951 115.012 159.025C114.989 159.035 112.652 159.984 108.745 162.634C108.582 162.75 108.35 162.703 108.237 162.536C108.123 162.369 108.167 162.141 108.335 162.027C109.683 161.113 110.842 160.4 111.788 159.855Z" fill="#80322D"/>
<path d="M113.687 155.902C113.883 155.854 114.088 155.917 114.163 156.105C114.239 156.292 114.149 156.506 113.96 156.582C113.926 156.595 111.072 158.131 107.056 160.998C106.891 161.116 106.662 161.078 106.545 160.913C106.427 160.748 106.465 160.519 106.63 160.402C108.69 158.931 113.342 155.985 113.687 155.902Z" fill="#80322D"/>
<path d="M111.698 154.5C111.881 154.431 112.085 154.515 112.165 154.693C112.307 155.012 111.998 155.167 111.882 155.226C108.925 156.716 109.001 156.819 107.777 157.755C107.617 157.879 107.387 157.848 107.264 157.687C107.14 157.527 107.171 157.297 107.332 157.173C109.055 155.854 111.544 154.557 111.698 154.5Z" fill="#80322D"/>
<path d="M121.771 156.945C121.781 156.94 121.791 156.936 121.802 156.933C121.986 156.869 122.189 156.962 122.26 157.144C122.389 157.469 122.074 157.611 121.957 157.665C118.941 159.034 118.128 159.574 116.868 160.461C116.703 160.578 116.474 160.538 116.358 160.371C116.242 160.206 116.281 159.978 116.447 159.862C118.222 158.613 119.859 157.813 121.655 156.997C121.703 156.977 121.735 156.961 121.752 156.953C121.759 156.95 121.765 156.946 121.772 156.944L121.771 156.945Z" fill="#80322D"/>
<path d="M133.512 149.873C140.412 136.088 146.662 134.06 150.505 115.767C153.561 101.219 164.197 104.031 162.852 76.7705L150.627 43.1533C116.275 54.3998 124.583 90.6661 120.065 103.542C115.175 117.478 118.336 129.995 118.842 147.672C119.078 150.109 131.356 152.31 133.512 149.873Z" fill="#533B50"/>
<path d="M150.567 117.234C150.703 117.234 150.827 117.143 150.863 117.006C151.378 115.06 151.673 112.523 151.986 109.839C152.334 106.844 152.693 103.748 153.382 101.601C153.929 99.8931 154.684 98.4898 155.637 96.7136C156.141 95.7759 156.711 94.7149 157.322 93.4692C160.53 86.9303 158.426 78.982 158.404 78.9025C158.36 78.74 158.192 78.6434 158.028 78.6874C157.866 78.7314 157.769 78.9001 157.813 79.0627C157.834 79.1397 159.877 86.8717 156.773 93.2003C156.166 94.4361 155.599 95.4923 155.098 96.4251C154.13 98.2294 153.364 99.6535 152.798 101.415C152.092 103.618 151.729 106.745 151.377 109.769C151.067 112.432 150.775 114.946 150.272 116.851C150.229 117.013 150.325 117.181 150.489 117.225C150.515 117.232 150.542 117.235 150.567 117.235V117.234Z" fill="#AF9CAF"/>
</svg>
