<?xml version="1.0" encoding="utf-8"?>
<!-- Generator: Adobe Illustrator 27.4.0, SVG Export Plug-In . SVG Version: 6.00 Build 0)  -->
<svg version="1.1" id="Layer_1" xmlns="http://www.w3.org/2000/svg" xmlns:xlink="http://www.w3.org/1999/xlink" x="0px" y="0px"
	 viewBox="0 0 160 52.4" style="enable-background:new 0 0 160 52.4;" xml:space="preserve">
<style type="text/css">
	.st0{fill:url(#SVGID_1_);}
	.st1{fill:url(#SVGID_00000086658495430917509590000008348804204003679896_);}
	.st2{fill:url(#SVGID_00000062874501598854549100000016514712384919347618_);}
	.st3{fill:#692E2E;}
	.st4{fill:url(#SVGID_00000155126937628846127280000010557596855701507726_);}
	.st5{fill:url(#SVGID_00000040571658987230665440000011431456952533110186_);}
</style>
<path d="M21.7,13.7c-0.5-1-1.3-1.7-2.3-2.2c-1-0.5-2.1-0.8-3.4-0.8c-2.3,0-4.1,0.8-5.5,2.3c-1.4,1.5-2.1,3.5-2.1,6
	c0,2.7,0.7,4.7,2.1,6.2c1.5,1.5,3.4,2.2,6,2.2c1.7,0,3.2-0.4,4.4-1.3c1.2-0.9,2.1-2.1,2.6-3.8h-8.9v-5.2h15.3v6.5
	c-0.5,1.8-1.4,3.4-2.7,4.9c-1.2,1.5-2.8,2.7-4.7,3.7c-1.9,0.9-4.1,1.4-6.5,1.4c-2.8,0-5.4-0.6-7.6-1.8c-2.2-1.3-4-3-5.2-5.2
	c-1.2-2.2-1.8-4.8-1.8-7.6s0.6-5.4,1.8-7.6c1.3-2.2,3-4,5.2-5.2c2.2-1.3,4.8-1.9,7.6-1.9c3.4,0,6.4,0.8,8.7,2.5c2.4,1.7,4,4,4.7,6.9
	H21.7z M44.3,33.7c-2.2,0-4.3-0.5-6.1-1.4c-1.8-1-3.2-2.3-4.2-4.1c-1-1.8-1.5-3.9-1.5-6.2c0-2.4,0.5-4.4,1.6-6.2
	c1-1.8,2.5-3.2,4.3-4.1c1.8-1,3.8-1.4,6.1-1.4c2.2,0,4.3,0.5,6.1,1.4c1.8,1,3.2,2.3,4.3,4.1c1,1.8,1.6,3.8,1.6,6.2s-0.5,4.4-1.6,6.2
	c-1,1.8-2.5,3.1-4.3,4.1C48.5,33.2,46.5,33.7,44.3,33.7z M44.3,27.6c1.3,0,2.5-0.5,3.4-1.5c1-1,1.4-2.4,1.4-4.2
	c0-1.8-0.5-3.2-1.4-4.2c-0.9-1-2-1.5-3.4-1.5c-1.4,0-2.5,0.5-3.4,1.5c-0.9,1-1.4,2.4-1.4,4.2c0,1.8,0.4,3.2,1.3,4.2
	C41.8,27.1,42.9,27.6,44.3,27.6z M78.3,27.4v6h-3.6c-2.5,0-4.5-0.6-6-1.8c-1.4-1.3-2.1-3.3-2.1-6.1v-9.1h-2.8v-5.8h2.8V4.9h7v5.6
	h4.6v5.8h-4.6v9.2c0,0.7,0.2,1.2,0.5,1.5c0.3,0.3,0.9,0.5,1.6,0.5H78.3z M80.8,21.9c0-2.4,0.5-4.5,1.4-6.2c1-1.8,2.3-3.1,4.1-4.1
	c1.8-1,3.8-1.4,6-1.4c2.9,0,5.3,0.8,7.2,2.3c1.9,1.5,3.2,3.6,3.8,6.4h-7.5c-0.6-1.8-1.8-2.6-3.7-2.6c-1.3,0-2.3,0.5-3.1,1.5
	c-0.8,1-1.1,2.4-1.1,4.3c0,1.9,0.4,3.3,1.1,4.3c0.8,1,1.8,1.5,3.1,1.5c1.8,0,3-0.9,3.7-2.6h7.5c-0.6,2.7-1.9,4.8-3.8,6.3
	c-1.9,1.5-4.3,2.3-7.2,2.3c-2.2,0-4.2-0.5-6-1.4c-1.7-1-3.1-2.3-4.1-4.1C81.3,26.4,80.8,24.3,80.8,21.9z M121.2,10.2
	c2.6,0,4.7,0.9,6.3,2.6c1.6,1.7,2.4,4.1,2.4,7.1v13.4h-7V20.9c0-1.5-0.4-2.7-1.2-3.6c-0.8-0.8-1.9-1.3-3.2-1.3
	c-1.3,0-2.4,0.4-3.2,1.3c-0.8,0.8-1.2,2-1.2,3.6v12.4h-7V3h7v10.6c0.7-1,1.7-1.8,2.9-2.4C118.2,10.5,119.6,10.2,121.2,10.2z
	 M157.4,10.5v22.9h-7v-3.1c-0.7,1-1.7,1.8-2.9,2.5c-1.2,0.6-2.5,0.9-4,0.9c-1.8,0-3.3-0.4-4.6-1.1c-1.3-0.8-2.4-1.9-3.1-3.4
	c-0.7-1.5-1.1-3.2-1.1-5.2V10.5h7v12.4c0,1.5,0.4,2.7,1.2,3.6c0.8,0.8,1.9,1.3,3.2,1.3c1.4,0,2.4-0.4,3.2-1.3c0.8-0.8,1.2-2,1.2-3.6
	V10.5H157.4z"/>
<path d="M21.6,44.9c0-0.6,0.1-1.1,0.4-1.6c0.3-0.5,0.6-0.8,1-1.1c0.4-0.3,0.9-0.4,1.5-0.4c0.5,0,0.9,0.1,1.2,0.3
	c0.4,0.2,0.6,0.4,0.9,0.7v-0.9h1.3v6.1h-1.3V47c-0.2,0.3-0.5,0.5-0.9,0.7c-0.4,0.2-0.8,0.3-1.3,0.3c-0.5,0-1-0.1-1.4-0.4
	c-0.4-0.3-0.8-0.6-1-1.1C21.8,46,21.6,45.5,21.6,44.9z M26.6,44.9c0-0.4-0.1-0.8-0.3-1.1c-0.2-0.3-0.4-0.5-0.7-0.7
	c-0.3-0.2-0.6-0.2-0.9-0.2c-0.3,0-0.6,0.1-0.9,0.2c-0.3,0.2-0.5,0.4-0.7,0.7c-0.2,0.3-0.3,0.7-0.3,1.1c0,0.4,0.1,0.8,0.3,1.1
	c0.2,0.3,0.4,0.6,0.7,0.7c0.3,0.2,0.6,0.2,0.9,0.2c0.3,0,0.6-0.1,0.9-0.2c0.3-0.2,0.5-0.4,0.7-0.7C26.5,45.7,26.6,45.3,26.6,44.9z
	 M33.9,41.8c0.5,0,0.9,0.1,1.3,0.3c0.4,0.2,0.7,0.5,0.9,0.9c0.2,0.4,0.3,0.9,0.3,1.4v3.6h-1.2v-3.4c0-0.5-0.1-1-0.4-1.2
	c-0.3-0.3-0.6-0.4-1.1-0.4c-0.5,0-0.8,0.1-1.1,0.4c-0.3,0.3-0.4,0.7-0.4,1.2v3.4h-1.3v-6.1h1.3v0.7c0.2-0.2,0.5-0.4,0.8-0.6
	C33.2,41.9,33.5,41.8,33.9,41.8z M40.7,42.9v3.4c0,0.2,0.1,0.4,0.2,0.5c0.1,0.1,0.3,0.1,0.5,0.1h0.8v1h-1c-0.6,0-1-0.1-1.3-0.4
	c-0.3-0.3-0.5-0.7-0.5-1.3v-3.4h-0.7v-1h0.7v-1.5h1.3v1.5h1.5v1H40.7z M45.3,41.1c-0.2,0-0.4-0.1-0.6-0.2c-0.2-0.2-0.2-0.3-0.2-0.6
	s0.1-0.4,0.2-0.6c0.2-0.2,0.3-0.2,0.6-0.2c0.2,0,0.4,0.1,0.6,0.2c0.2,0.2,0.2,0.3,0.2,0.6s-0.1,0.4-0.2,0.6
	C45.7,41,45.5,41.1,45.3,41.1z M45.9,41.9v6.1h-1.3v-6.1H45.9z M53.6,43.4v1.1H49v-1.1H53.6z M57.9,42.8c0.2-0.3,0.5-0.5,0.9-0.7
	c0.4-0.2,0.8-0.3,1.2-0.3c0.5,0,1,0.1,1.5,0.4c0.4,0.3,0.8,0.6,1,1.1c0.2,0.5,0.4,1,0.4,1.6c0,0.6-0.1,1.2-0.4,1.6
	c-0.2,0.5-0.6,0.8-1,1.1C61,47.9,60.5,48,60,48c-0.5,0-0.9-0.1-1.3-0.3c-0.4-0.2-0.6-0.4-0.9-0.7v0.9h-1.3v-8.1h1.3V42.8z
	 M61.6,44.9c0-0.4-0.1-0.8-0.3-1.1c-0.2-0.3-0.4-0.5-0.7-0.7c-0.3-0.2-0.6-0.2-0.9-0.2c-0.3,0-0.6,0.1-0.9,0.2
	c-0.3,0.2-0.5,0.4-0.7,0.7c-0.2,0.3-0.3,0.7-0.3,1.1c0,0.4,0.1,0.8,0.3,1.1c0.2,0.3,0.4,0.5,0.7,0.7c0.3,0.2,0.6,0.2,0.9,0.2
	c0.3,0,0.6-0.1,0.9-0.2c0.3-0.2,0.5-0.4,0.7-0.7C61.5,45.7,61.6,45.3,61.6,44.9z M70.9,41.9v6.1h-1.3v-0.7c-0.2,0.2-0.5,0.4-0.8,0.6
	c-0.3,0.1-0.7,0.2-1,0.2c-0.5,0-0.9-0.1-1.3-0.3c-0.4-0.2-0.7-0.5-0.9-0.9c-0.2-0.4-0.3-0.9-0.3-1.4v-3.6h1.2v3.4
	c0,0.5,0.1,1,0.4,1.3c0.3,0.3,0.6,0.4,1.1,0.4c0.5,0,0.8-0.1,1.1-0.4c0.3-0.3,0.4-0.7,0.4-1.3v-3.4H70.9z M75.1,39.8v8.1h-1.3v-8.1
	H75.1z M79.3,39.8v8.1h-1.3v-8.1H79.3z M87.8,41.9L84,50.8h-1.3l1.2-2.9l-2.4-6H83l1.7,4.6l1.8-4.6H87.8z M90.7,41.1
	c-0.2,0-0.4-0.1-0.6-0.2c-0.2-0.2-0.2-0.3-0.2-0.6s0.1-0.4,0.2-0.6c0.2-0.2,0.3-0.2,0.6-0.2c0.2,0,0.4,0.1,0.6,0.2s0.2,0.3,0.2,0.6
	s-0.1,0.4-0.2,0.6C91.1,41,90.9,41.1,90.7,41.1z M91.3,41.9v6.1H90v-6.1H91.3z M97.3,41.8c0.5,0,0.9,0.1,1.3,0.3
	c0.4,0.2,0.7,0.5,0.9,0.9c0.2,0.4,0.3,0.9,0.3,1.4v3.6h-1.2v-3.4c0-0.5-0.1-1-0.4-1.2c-0.3-0.3-0.6-0.4-1.1-0.4
	c-0.5,0-0.8,0.1-1.1,0.4c-0.3,0.3-0.4,0.7-0.4,1.2v3.4h-1.3v-6.1h1.3v0.7c0.2-0.2,0.5-0.4,0.8-0.6C96.6,41.9,96.9,41.8,97.3,41.8z
	 M105.1,41.8c0.5,0,0.9,0.1,1.2,0.3c0.4,0.2,0.7,0.4,0.9,0.7v-0.9h1.3V48c0,0.6-0.1,1.1-0.4,1.5c-0.2,0.4-0.6,0.8-1,1
	c-0.4,0.2-1,0.4-1.6,0.4c-0.8,0-1.5-0.2-2-0.6c-0.5-0.4-0.8-0.9-0.9-1.6h1.2c0.1,0.3,0.3,0.6,0.6,0.8c0.3,0.2,0.7,0.3,1.1,0.3
	c0.5,0,0.9-0.2,1.2-0.5c0.3-0.3,0.5-0.8,0.5-1.3v-1c-0.2,0.3-0.5,0.5-0.9,0.7c-0.4,0.2-0.8,0.3-1.2,0.3c-0.5,0-1-0.1-1.5-0.4
	c-0.4-0.3-0.8-0.6-1-1.1c-0.2-0.5-0.4-1-0.4-1.6c0-0.6,0.1-1.1,0.4-1.6c0.3-0.5,0.6-0.8,1-1.1C104.1,41.9,104.6,41.8,105.1,41.8z
	 M107.2,44.9c0-0.4-0.1-0.8-0.3-1.1c-0.2-0.3-0.4-0.5-0.7-0.7c-0.3-0.2-0.6-0.2-0.9-0.2c-0.3,0-0.6,0.1-0.9,0.2
	c-0.3,0.2-0.5,0.4-0.7,0.7c-0.2,0.3-0.3,0.7-0.3,1.1c0,0.4,0.1,0.8,0.3,1.1c0.2,0.3,0.4,0.6,0.7,0.7c0.3,0.2,0.6,0.2,0.9,0.2
	c0.3,0,0.6-0.1,0.9-0.2c0.3-0.2,0.5-0.4,0.7-0.7C107.1,45.7,107.2,45.3,107.2,44.9z M115.2,44.9c0-0.6,0.1-1.1,0.4-1.6
	c0.3-0.5,0.6-0.8,1-1.1c0.4-0.3,0.9-0.4,1.4-0.4c0.5,0,0.9,0.1,1.2,0.3c0.4,0.2,0.6,0.4,0.9,0.7v-0.9h1.3v6.1h-1.3V47
	c-0.2,0.3-0.5,0.5-0.9,0.7c-0.4,0.2-0.8,0.3-1.3,0.3c-0.5,0-1-0.1-1.4-0.4c-0.4-0.3-0.8-0.6-1-1.1C115.3,46,115.2,45.5,115.2,44.9z
	 M120.2,44.9c0-0.4-0.1-0.8-0.3-1.1c-0.2-0.3-0.4-0.5-0.7-0.7c-0.3-0.2-0.6-0.2-0.9-0.2c-0.3,0-0.6,0.1-0.9,0.2
	c-0.3,0.2-0.5,0.4-0.7,0.7c-0.2,0.3-0.3,0.7-0.3,1.1c0,0.4,0.1,0.8,0.3,1.1c0.2,0.3,0.4,0.6,0.7,0.7c0.3,0.2,0.6,0.2,0.9,0.2
	c0.3,0,0.6-0.1,0.9-0.2c0.3-0.2,0.5-0.4,0.7-0.7C120.1,45.7,120.2,45.3,120.2,44.9z M125.6,42.8c0.2-0.3,0.5-0.5,0.9-0.7
	c0.4-0.2,0.8-0.3,1.2-0.3c0.5,0,1,0.1,1.4,0.4c0.4,0.3,0.8,0.6,1,1.1c0.2,0.5,0.4,1,0.4,1.6c0,0.6-0.1,1.2-0.4,1.6
	c-0.2,0.5-0.6,0.8-1,1.1c-0.4,0.3-0.9,0.4-1.4,0.4c-0.5,0-0.9-0.1-1.2-0.3c-0.4-0.2-0.7-0.4-0.9-0.7v3.8h-1.3v-8.9h1.3V42.8z
	 M129.3,44.9c0-0.4-0.1-0.8-0.3-1.1c-0.2-0.3-0.4-0.5-0.7-0.7c-0.3-0.2-0.6-0.2-0.9-0.2c-0.3,0-0.6,0.1-0.9,0.2
	c-0.3,0.2-0.5,0.4-0.7,0.7c-0.2,0.3-0.3,0.7-0.3,1.1c0,0.4,0.1,0.8,0.3,1.1c0.2,0.3,0.4,0.5,0.7,0.7c0.3,0.2,0.6,0.2,0.9,0.2
	c0.3,0,0.6-0.1,0.9-0.2c0.3-0.2,0.5-0.4,0.7-0.7C129.2,45.7,129.3,45.3,129.3,44.9z M134.4,42.8c0.2-0.3,0.5-0.5,0.9-0.7
	c0.4-0.2,0.8-0.3,1.2-0.3c0.5,0,1,0.1,1.4,0.4c0.4,0.3,0.8,0.6,1,1.1c0.2,0.5,0.4,1,0.4,1.6c0,0.6-0.1,1.2-0.4,1.6
	c-0.2,0.5-0.6,0.8-1,1.1c-0.4,0.3-0.9,0.4-1.4,0.4c-0.5,0-0.9-0.1-1.2-0.3c-0.4-0.2-0.7-0.4-0.9-0.7v3.8h-1.3v-8.9h1.3V42.8z
	 M138.1,44.9c0-0.4-0.1-0.8-0.3-1.1c-0.2-0.3-0.4-0.5-0.7-0.7c-0.3-0.2-0.6-0.2-0.9-0.2c-0.3,0-0.6,0.1-0.9,0.2
	c-0.3,0.2-0.5,0.4-0.7,0.7c-0.2,0.3-0.3,0.7-0.3,1.1c0,0.4,0.1,0.8,0.3,1.1c0.2,0.3,0.4,0.5,0.7,0.7c0.3,0.2,0.6,0.2,0.9,0.2
	c0.3,0,0.6-0.1,0.9-0.2c0.3-0.2,0.5-0.4,0.7-0.7C138,45.7,138.1,45.3,138.1,44.9z"/>
<linearGradient id="SVGID_1_" gradientUnits="userSpaceOnUse" x1="31.9907" y1="27.7707" x2="37.6358" y2="21.8874" gradientTransform="matrix(1 0 0 -1 0 42.7773)">
	<stop  offset="0" style="stop-color:#D3A262"/>
	<stop  offset="0.66" style="stop-color:#CC7A54"/>
	<stop  offset="1" style="stop-color:#B55B3F"/>
</linearGradient>
<path class="st0" d="M39,19.7c-0.2,1-1.1,1.5-1.3,1.6c-1.5,0.7-3.2-0.2-3.8-0.6c-0.1,0-0.1-0.1-0.1-0.1c-0.5-0.3-1.6-1.1-1.7-2.4
	c-0.2-1.7,1.2-3.6,2.2-3.5c0,0,0,0,0.1,0c0.4,0.1,0.4,0.4,1.2,1.1c0.2,0.2,0.5,0.4,0.6,0.5c0.5,0.3,0.9,0.4,1.3,0.7
	c0.2,0.1,0.3,0.2,0.5,0.4C38.3,17.6,39.2,18.6,39,19.7L39,19.7z"/>
<linearGradient id="SVGID_00000101819802242941639050000003806701121214544560_" gradientUnits="userSpaceOnUse" x1="44.3655" y1="23.6146" x2="58.678" y2="14.0714" gradientTransform="matrix(1 0 0 -1 0 42.7773)">
	<stop  offset="0" style="stop-color:#D3A262"/>
	<stop  offset="0.66" style="stop-color:#CC7A54"/>
	<stop  offset="1" style="stop-color:#B55B3F"/>
</linearGradient>
<path style="fill:url(#SVGID_00000101819802242941639050000003806701121214544560_);" d="M61,21.7c0,3-1.1,6.2-3.2,8.6
	c-2.8,3.2-6.2,3.7-8.7,4.2c-0.2,0-0.7,0.2-1.3,0.1c-0.5,0-1.4-0.1-2-0.8c-0.6-0.7-0.5-1.9-0.1-2.6c0.3-0.5,0.5-0.2,1.9-1.1
	c1.1-0.7,1.7-1.3,2-2.1c0,0,0-0.1,0-0.1c0.3-0.7,0.4-1.9-0.2-2.6c-0.4-0.4-1-0.5-2-0.5c-1.1,0-1.2,0.2-2.2,0.3c-0.8,0-2.1,0-2.8-0.8
	c-0.5-0.6-0.7-1.6-0.2-2.4c0.4-0.7,1.1-0.9,1.6-1c1.2-0.3,1.6,0.2,2.6-0.1c0.7-0.3,1.7-1,1.6-2c0-1-1.1-1.6-1.2-1.6
	c0.6,0.1,1.3,0.3,2.3,0.4c0,0,0.1,0,0.3,0c2.4,0.3,4.3,0.5,6.4-0.4c0.2-0.1,0.4-0.2,0.6-0.3c0.9-0.5,1.7-1.2,2.4-2
	c0.9,0.9,1.3,2.1,1.6,3C60.8,19.2,61,20.4,61,21.7L61,21.7z"/>
<linearGradient id="SVGID_00000027575616597587539370000017447866993446675338_" gradientUnits="userSpaceOnUse" x1="43.4842" y1="32.944" x2="61.3748" y2="34.8521" gradientTransform="matrix(1 0 0 -1 0 42.7773)">
	<stop  offset="0" style="stop-color:#D3A262"/>
	<stop  offset="0.66" style="stop-color:#CC7A54"/>
	<stop  offset="1" style="stop-color:#B55B3F"/>
</linearGradient>
<path style="fill:url(#SVGID_00000027575616597587539370000017447866993446675338_);" d="M60.3,12.8c-0.2,0.6-1.4,3.2-4,4.6
	c-1.6,0.8-3.4,0.7-6.8,0.3c0,0-5.8-0.6-9.2-3c-0.7-0.5-1.1-1.1-1.1-1.1c-0.4-0.5-0.7-1.1-0.9-1.7c-0.4-1.7,0.5-4,0.5-4
	c1.1-2.9,3.2-4.6,4-5.3c0.7-0.6,1.4-1,1.5-1c0.4-0.2,2.4-1.3,5-1.5c0.8-0.1,5.4-0.3,8.8,3.1c0.7,0.7,2.8,2.7,3,5.9
	C61.1,10.7,60.6,12.1,60.3,12.8L60.3,12.8z"/>
<path class="st3" d="M46,11c0.9,0.7,1.8,1.2,3,1.1c0.1,0,0.2,0.1,0.2,0.2c0,0.1,0,0.2-0.1,0.2c-1.2,0.6-2.9,0-3.3-1.3
	C45.7,11,45.9,10.9,46,11L46,11z"/>
<path class="st3" d="M40.3,8.9c0.4,0.6,1,1,1.7,1.1c0.2,0,0.5,0.1,0.8,0.1c0.2,0,0.2,0.2,0.1,0.3c-0.8,0.5-2,0.2-2.6-0.5
	c-0.2-0.2-0.7-1-0.3-1.1C40.1,8.8,40.2,8.8,40.3,8.9L40.3,8.9z"/>
<linearGradient id="SVGID_00000051354399588865688150000000544241329945928851_" gradientUnits="userSpaceOnUse" x1="37.7905" y1="40.1822" x2="40.056" y2="40.1822" gradientTransform="matrix(1 0 0 -1 0 42.7773)">
	<stop  offset="0" style="stop-color:#D3A262"/>
	<stop  offset="0.66" style="stop-color:#CC7A54"/>
	<stop  offset="1" style="stop-color:#B55B3F"/>
</linearGradient>
<path style="fill:url(#SVGID_00000051354399588865688150000000544241329945928851_);" d="M38.9,3.7c0.6,0,1.1-0.5,1.1-1.1
	s-0.5-1.1-1.1-1.1c-0.6,0-1.1,0.5-1.1,1.1S38.3,3.7,38.9,3.7z"/>
<linearGradient id="SVGID_00000118375109365805469070000013771742916024358811_" gradientUnits="userSpaceOnUse" x1="40.6514" y1="42.0317" x2="41.964" y2="42.0317" gradientTransform="matrix(1 0 0 -1 0 42.7773)">
	<stop  offset="0" style="stop-color:#D3A262"/>
	<stop  offset="0.66" style="stop-color:#CC7A54"/>
	<stop  offset="1" style="stop-color:#B55B3F"/>
</linearGradient>
<path style="fill:url(#SVGID_00000118375109365805469070000013771742916024358811_);" d="M42,0.7c0,0.4-0.3,0.7-0.7,0.7
	s-0.7-0.3-0.7-0.7c0-0.4,0.3-0.7,0.7-0.7S42,0.4,42,0.7z"/>
</svg>
