<?xml version="1.0" encoding="utf-8"?>
<!-- Generator: Adobe Illustrator 27.4.0, SVG Export Plug-In . SVG Version: 6.00 Build 0)  -->
<svg version="1.1" id="Layer_1" xmlns="http://www.w3.org/2000/svg" xmlns:xlink="http://www.w3.org/1999/xlink" x="0px" y="0px"
	 viewBox="0 0 647.2 507.1" style="enable-background:new 0 0 647.2 507.1;" xml:space="preserve">
<style type="text/css">
	.st0{fill:url(#SVGID_1_);}
	.st1{fill:#692E2E;}
</style>
<linearGradient id="SVGID_1_" gradientUnits="userSpaceOnUse" x1="150.6667" y1="229.7704" x2="656.8698" y2="283.7604" gradientTransform="matrix(1 0 0 -1 0 508)">
	<stop  offset="0" style="stop-color:#D3A262"/>
	<stop  offset="0.66" style="stop-color:#CC7A54"/>
	<stop  offset="1" style="stop-color:#B55B3F"/>
</linearGradient>
<path class="st0" d="M625.5,360.8c-6.9,16.3-38.9,91.5-114.2,129.5c-46.1,23.3-95,18.4-193,8.8c0,0-163.3-16.1-259-84.5
	c-19-13.6-31.9-30.2-31.9-30.2C15.8,370,7.3,354,3,336.1c-11.3-47.4,13.2-113.7,13.2-113.7c31.5-82.9,90.1-130.6,113.9-149.6
	c21.2-16.9,39-27.1,42.8-29.3c10-5.7,66.7-37.4,141.8-42.8C337.8-0.9,466-7.4,562.9,87.3c19.4,19,79.3,77.5,84,166.3
	C649.5,303.2,633.9,341,625.5,360.8L625.5,360.8z"/>
<path class="st1" d="M221.3,311.3c25,19.8,52.2,33.6,84.7,30.9c3.3-0.1,6.1,2.4,6.1,5.7c0,2.3-1.3,4.4-3.2,5.4
	c-33.8,17.1-82.9,0-93.8-37.6C214,312.1,218.5,309.1,221.3,311.3L221.3,311.3z"/>
<path class="st1" d="M59.5,250.9c12.6,16,29.3,27.7,49.5,30.9c6.7,1.3,13.7,1.7,21.3,1.9c4.9,0,6.8,6.9,2.7,9.4
	c-22.9,15.1-56,6.8-72.9-13.7c-5-6.1-19.7-26.9-7.3-30.9C55.4,247.8,58,248.9,59.5,250.9L59.5,250.9z"/>
</svg>
