<?xml version="1.0" encoding="utf-8"?>
<!-- Generator: Adobe Illustrator 27.4.0, SVG Export Plug-In . SVG Version: 6.00 Build 0)  -->
<svg version="1.1" id="Layer_1" xmlns="http://www.w3.org/2000/svg" xmlns:xlink="http://www.w3.org/1999/xlink" x="0px" y="0px"
	 viewBox="0 0 267.4 88.2" style="enable-background:new 0 0 267.4 88.2;" xml:space="preserve">
<style type="text/css">
	.st0{fill:url(#SVGID_1_);}
	.st1{fill:url(#SVGID_00000159432930183057803900000010415002700300577169_);}
	.st2{fill:url(#SVGID_00000013898791924313138220000017171162408188803512_);}
	.st3{fill:#692E2E;}
	.st4{fill:url(#SVGID_00000067943826287627801350000005569603877515555200_);}
	.st5{fill:url(#SVGID_00000170273113561772843770000001645867998327099814_);}
	.st6{fill:#533B50;}
</style>
<path d="M34.8,24.3c-0.9-1.6-2.2-2.9-3.9-3.7c-1.6-0.9-3.6-1.3-5.8-1.3c-3.9,0-7,1.3-9.4,3.9c-2.3,2.5-3.5,5.9-3.5,10.2
	c0,4.6,1.2,8.1,3.7,10.7c2.5,2.5,5.9,3.8,10.2,3.8c3,0,5.4-0.8,7.5-2.3s3.6-3.7,4.5-6.5H22.8v-8.9H49v11.2c-0.9,3-2.4,5.8-4.6,8.4
	c-2.1,2.6-4.8,4.7-8.1,6.3s-7,2.4-11.1,2.4c-4.9,0-9.2-1.1-13.1-3.2c-3.8-2.2-6.8-5.1-8.9-8.9C1.1,42.5,0,38.2,0,33.3
	s1.1-9.2,3.2-13c2.2-3.8,5.1-6.8,8.9-8.9c3.8-2.2,8.1-3.2,13-3.2C31,8.2,36,9.6,40,12.5c4.1,2.9,6.8,6.8,8.1,11.9H34.8V24.3z
	 M73.5,58.7c-3.8,0-7.3-0.8-10.4-2.5c-3.1-1.6-5.5-4-7.3-7c-1.7-3.1-2.6-6.6-2.6-10.7c0-4,0.9-7.6,2.7-10.6c1.8-3.1,4.2-5.5,7.3-7.1
	c3.1-1.6,6.6-2.5,10.4-2.5c3.8,0,7.3,0.8,10.4,2.5c3.1,1.6,5.5,4,7.3,7.1S94,34.5,94,38.5s-0.9,7.6-2.7,10.7c-1.8,3.1-4.2,5.4-7.4,7
	C80.9,57.8,77.4,58.7,73.5,58.7z M73.5,48.2c2.3,0,4.2-0.8,5.8-2.5c1.6-1.7,2.5-4.1,2.5-7.3s-0.8-5.6-2.4-7.3
	c-1.5-1.7-3.5-2.5-5.8-2.5s-4.3,0.8-5.8,2.5c-1.5,1.6-2.3,4.1-2.3,7.3c0,3.1,0.8,5.6,2.3,7.3C69.3,47.4,71.2,48.2,73.5,48.2z
	 M131.9,47.9v10.2h-6.1c-4.4,0-7.8-1.1-10.2-3.2c-2.4-2.2-3.7-5.7-3.7-10.5V28.8h-4.8v-10h4.8V9.2h12v9.6h7.9v10h-7.9v15.8
	c0,1.2,0.3,2,0.8,2.5c0.6,0.5,1.5,0.8,2.8,0.8C127.5,47.9,131.9,47.9,131.9,47.9z M136.2,38.5c0-4.1,0.8-7.6,2.5-10.7s4-5.4,7-7
	s6.4-2.5,10.3-2.5c4.9,0,9,1.3,12.3,3.9s5.5,6.2,6.5,10.9H162c-1.1-3-3.2-4.5-6.3-4.5c-2.2,0-4,0.9-5.3,2.6c-1.3,1.7-2,4.1-2,7.3
	s0.7,5.7,2,7.4s3.1,2.5,5.3,2.5c3.1,0,5.2-1.5,6.3-4.5h12.8c-1,4.6-3.2,8.2-6.5,10.8s-7.4,3.9-12.3,3.9c-3.8,0-7.3-0.8-10.3-2.5
	c-3-1.6-5.3-4-7-7C137,46.1,136.2,42.5,136.2,38.5z M205.4,18.4c4.5,0,8.1,1.5,10.8,4.5s4.1,7,4.1,12.2V58h-12V36.8
	c0-2.6-0.7-4.7-2-6.1c-1.4-1.5-3.2-2.2-5.5-2.2s-4.1,0.7-5.5,2.2c-1.4,1.5-2,3.5-2,6.1v21.3h-12V6h12v18.1c1.2-1.7,2.9-3.1,5-4.2
	S202.7,18.4,205.4,18.4z M267.4,18.8v39.3h-12v-5.4c-1.2,1.7-2.9,3.1-5,4.2c-2.1,1-4.4,1.5-6.9,1.5c-3,0-5.7-0.7-8-2
	c-2.3-1.4-4.1-3.3-5.4-5.8s-1.9-5.5-1.9-8.9V18.8h12v21.3c0,2.6,0.7,4.7,2,6.1c1.4,1.5,3.2,2.2,5.5,2.2s4.2-0.7,5.6-2.2
	c1.4-1.5,2-3.5,2-6.1V18.8H267.4z"/>
<linearGradient id="SVGID_1_" gradientUnits="userSpaceOnUse" x1="52.5348" y1="5.5092" x2="62.2113" y2="15.594" gradientTransform="matrix(1 0 0 1 0 20.1944)">
	<stop  offset="0" style="stop-color:#D3A262"/>
	<stop  offset="0.66" style="stop-color:#CC7A54"/>
	<stop  offset="1" style="stop-color:#B55B3F"/>
</linearGradient>
<path class="st0" d="M64.6,33.8c-0.3,1.7-1.9,2.5-2.3,2.7c-2.6,1.3-5.5-0.4-6.5-1c-0.1-0.1-0.2-0.1-0.2-0.2c-0.8-0.6-2.7-1.9-3-4.2
	c-0.4-3,2-6.1,3.7-6h0.1c0.6,0.1,0.7,0.7,2.1,1.9c0.4,0.3,0.8,0.6,1.1,0.8c0.9,0.6,1.6,0.7,2.3,1.2c0.3,0.2,0.6,0.4,0.9,0.7
	C63.3,30.2,64.9,31.9,64.6,33.8L64.6,33.8z"/>
<linearGradient id="SVGID_00000066479599251406264770000010683310699884520369_" gradientUnits="userSpaceOnUse" x1="73.7156" y1="12.6682" x2="98.2486" y2="29.0265" gradientTransform="matrix(1 0 0 1 0 20.1944)">
	<stop  offset="0" style="stop-color:#D3A262"/>
	<stop  offset="0.66" style="stop-color:#CC7A54"/>
	<stop  offset="1" style="stop-color:#B55B3F"/>
</linearGradient>
<path style="fill:url(#SVGID_00000066479599251406264770000010683310699884520369_);" d="M102.3,37.3c0,5.2-1.8,10.6-5.5,14.7
	c-4.8,5.4-10.7,6.4-15,7.2c-0.3,0.1-1.1,0.3-2.2,0.3c-0.8,0-2.4-0.1-3.4-1.4c-1-1.3-0.9-3.2-0.1-4.4c0.5-0.8,0.9-0.4,3.2-2
	c1.8-1.2,2.8-2.3,3.5-3.6c0-0.1,0.1-0.1,0.1-0.2c0.5-1.2,0.7-3.3-0.4-4.4c-0.7-0.7-1.8-0.8-3.4-0.8c-1.9,0-2.1,0.4-3.8,0.4
	c-1.4,0-3.6,0.1-4.8-1.4c-0.9-1.1-1.1-2.8-0.4-4.1c0.7-1.2,2-1.5,2.7-1.7c2.1-0.6,2.8,0.4,4.4-0.2c1.3-0.5,2.9-1.8,2.8-3.5
	s-1.8-2.7-2-2.8c1,0.2,2.3,0.5,3.9,0.7c0,0,0.2,0,0.5,0.1c4.1,0.5,7.4,0.8,10.9-0.7c0.3-0.1,0.7-0.3,1-0.5c1.5-0.8,3-2,4.2-3.4
	c1.6,1.6,2.3,3.6,2.8,5.2C102,32.8,102.3,35,102.3,37.3L102.3,37.3z"/>
<linearGradient id="SVGID_00000105413972460130630240000006750538603067639951_" gradientUnits="userSpaceOnUse" x1="72.212" y1="-3.3661" x2="102.878" y2="-6.637" gradientTransform="matrix(1 0 0 1 0 20.1944)">
	<stop  offset="0" style="stop-color:#D3A262"/>
	<stop  offset="0.66" style="stop-color:#CC7A54"/>
	<stop  offset="1" style="stop-color:#B55B3F"/>
</linearGradient>
<path style="fill:url(#SVGID_00000105413972460130630240000006750538603067639951_);" d="M101,21.9c-0.4,1-2.4,5.5-6.9,7.8
	c-2.8,1.4-5.8,1.1-11.7,0.5c0,0-9.9-1-15.7-5.1c-1.2-0.8-1.9-1.8-1.9-1.8c-0.7-0.9-1.2-1.8-1.5-2.9c-0.7-2.9,0.8-6.9,0.8-6.9
	c1.9-5,5.5-7.9,6.9-9.1c1.3-1,2.4-1.6,2.6-1.8c0.6-0.3,4-2.3,8.6-2.6c1.4-0.1,9.2-0.5,15,5.2c1.2,1.2,4.8,4.7,5.1,10.1
	C102.4,18.4,101.5,20.7,101,21.9L101,21.9z"/>
<path class="st3" d="M76.5,18.9c1.5,1.2,3.2,2,5.1,1.9c0.2,0,0.4,0.1,0.4,0.3c0,0.1-0.1,0.3-0.2,0.3c-2.1,1-5,0-5.7-2.3
	C76.1,18.9,76.3,18.7,76.5,18.9L76.5,18.9z"/>
<path class="st3" d="M66.7,15.2c0.8,1,1.8,1.7,3,1.9c0.4,0.1,0.8,0.1,1.3,0.1c0.3,0,0.4,0.4,0.2,0.6c-1.4,0.9-3.4,0.4-4.4-0.8
	c-0.3-0.4-1.2-1.6-0.4-1.9C66.4,15,66.6,15.1,66.7,15.2L66.7,15.2z"/>
<linearGradient id="SVGID_00000052092122519735835060000000944427612593990283_" gradientUnits="userSpaceOnUse" x1="62.4545" y1="-15.6944" x2="66.3379" y2="-15.6944" gradientTransform="matrix(1 0 0 1 0 20.1944)">
	<stop  offset="0" style="stop-color:#D3A262"/>
	<stop  offset="0.66" style="stop-color:#CC7A54"/>
	<stop  offset="1" style="stop-color:#B55B3F"/>
</linearGradient>
<path style="fill:url(#SVGID_00000052092122519735835060000000944427612593990283_);" d="M64.4,6.4c1.1,0,1.9-0.9,1.9-1.9
	c0-1.1-0.9-1.9-1.9-1.9c-1.1,0-1.9,0.9-1.9,1.9S63.3,6.4,64.4,6.4z"/>
<linearGradient id="SVGID_00000162350584751803346990000013797356514929585829_" gradientUnits="userSpaceOnUse" x1="67.3585" y1="-18.8944" x2="69.6085" y2="-18.8944" gradientTransform="matrix(1 0 0 1 0 20.1944)">
	<stop  offset="0" style="stop-color:#D3A262"/>
	<stop  offset="0.66" style="stop-color:#CC7A54"/>
	<stop  offset="1" style="stop-color:#B55B3F"/>
</linearGradient>
<path style="fill:url(#SVGID_00000162350584751803346990000013797356514929585829_);" d="M69.6,1.3c0,0.6-0.5,1.1-1.1,1.1
	s-1.1-0.5-1.1-1.1s0.5-1.1,1.1-1.1S69.6,0.7,69.6,1.3z"/>
<path class="st6" d="M44.2,83.1h-1.3l-5.1-7.8v7.8h-1.3v-9.8h1.3l5.1,7.8v-7.8h1.3V83.1z M49.7,83.2c-0.7,0-1.4-0.2-2-0.5
	s-1-0.8-1.4-1.4c-0.3-0.6-0.5-1.3-0.5-2.1c0-0.8,0.2-1.5,0.5-2.1s0.8-1.1,1.4-1.4c0.6-0.3,1.2-0.5,2-0.5c0.7,0,1.4,0.2,2,0.5
	s1.1,0.8,1.4,1.4c0.3,0.6,0.5,1.3,0.5,2.1c0,0.8-0.2,1.5-0.5,2.1s-0.8,1.1-1.4,1.4C51.1,83.1,50.5,83.2,49.7,83.2z M49.7,82.1
	c0.5,0,0.9-0.1,1.3-0.3c0.4-0.2,0.7-0.5,1-1c0.3-0.4,0.4-1,0.4-1.6s-0.1-1.1-0.4-1.6c-0.2-0.4-0.6-0.7-1-1c-0.4-0.2-0.8-0.3-1.3-0.3
	s-0.9,0.1-1.3,0.3c-0.4,0.2-0.7,0.5-0.9,1c-0.2,0.4-0.3,1-0.3,1.6s0.1,1.2,0.3,1.6s0.5,0.8,0.9,1C48.9,82,49.3,82.1,49.7,82.1z
	 M71.3,73.3l-2.8,9.8h-1.4l-2.3-7.9l-2.4,7.9H61l-2.7-9.8h1.4l2.1,8.3l2.4-8.3h1.4l2.2,8.2l2.1-8.2H71.3z M76.1,83.2
	c-0.7,0-1.4-0.2-2-0.5s-1-0.8-1.4-1.4c-0.3-0.6-0.5-1.3-0.5-2.1c0-0.8,0.2-1.5,0.5-2.1s0.8-1.1,1.4-1.4s1.2-0.5,2-0.5
	c0.7,0,1.4,0.2,2,0.5s1.1,0.8,1.4,1.4s0.5,1.3,0.5,2.1c0,0.8-0.2,1.5-0.5,2.1s-0.8,1.1-1.4,1.4C77.5,83.1,76.8,83.2,76.1,83.2z
	 M76.1,82.1c0.5,0,0.9-0.1,1.3-0.3c0.4-0.2,0.7-0.5,1-1c0.3-0.4,0.4-1,0.4-1.6s-0.1-1.1-0.4-1.6c-0.2-0.4-0.6-0.7-1-1
	c-0.4-0.2-0.8-0.3-1.3-0.3s-0.9,0.1-1.3,0.3c-0.4,0.2-0.7,0.5-0.9,1c-0.2,0.4-0.3,1-0.3,1.6s0.1,1.2,0.3,1.6c0.2,0.4,0.5,0.8,0.9,1
	C75.2,82,75.6,82.1,76.1,82.1z M83,76.7c0.2-0.4,0.5-0.8,1-1c0.4-0.2,0.9-0.4,1.5-0.4v1.3h-0.3c-1.4,0-2.1,0.8-2.1,2.3v4.2h-1.3
	v-7.7H83V76.7z M88.2,76.7c0.2-0.4,0.5-0.8,1-1c0.4-0.2,0.9-0.4,1.5-0.4v1.3h-0.3c-1.4,0-2.1,0.8-2.1,2.3v4.2H87v-7.7h1.3L88.2,76.7
	L88.2,76.7z M92.8,74.2c-0.2,0-0.4-0.1-0.6-0.3s-0.3-0.4-0.3-0.6s0.1-0.4,0.3-0.6s0.4-0.3,0.6-0.3s0.4,0.1,0.6,0.3
	c0.2,0.2,0.3,0.4,0.3,0.6s-0.1,0.4-0.3,0.6C93.2,74.1,93,74.2,92.8,74.2z M93.4,75.4v7.7h-1.3v-7.7H93.4z M102.6,79
	c0,0.2,0,0.5,0,0.8h-6.1c0,0.8,0.3,1.3,0.8,1.8c0.5,0.4,1.1,0.6,1.7,0.6s1-0.1,1.4-0.4s0.6-0.6,0.8-1h1.4c-0.2,0.7-0.6,1.3-1.2,1.8
	s-1.4,0.7-2.3,0.7c-0.7,0-1.4-0.2-2-0.5s-1-0.8-1.3-1.4s-0.5-1.3-0.5-2.1c0-0.8,0.2-1.5,0.5-2.1s0.8-1.1,1.3-1.4
	c0.6-0.3,1.2-0.5,2-0.5c0.7,0,1.4,0.2,1.9,0.5c0.6,0.3,1,0.8,1.3,1.3C102.4,77.6,102.6,78.3,102.6,79z M101.3,78.7
	c0-0.5-0.1-0.9-0.3-1.2c-0.2-0.4-0.5-0.6-0.9-0.8c-0.4-0.2-0.8-0.3-1.2-0.3c-0.6,0-1.2,0.2-1.7,0.6c-0.4,0.4-0.7,1-0.8,1.7
	C96.4,78.7,101.3,78.7,101.3,78.7z M107,83.2c-0.6,0-1.1-0.1-1.6-0.3c-0.5-0.2-0.8-0.5-1.1-0.8c-0.3-0.4-0.4-0.8-0.4-1.2h1.3
	c0,0.4,0.2,0.7,0.5,0.9c0.3,0.2,0.8,0.4,1.3,0.4s0.9-0.1,1.1-0.3c0.3-0.2,0.4-0.5,0.4-0.8s-0.1-0.6-0.4-0.7
	c-0.3-0.2-0.8-0.3-1.4-0.5c-0.6-0.1-1-0.3-1.4-0.4c-0.4-0.2-0.7-0.4-0.9-0.7c-0.3-0.3-0.4-0.7-0.4-1.2c0-0.4,0.1-0.8,0.3-1.1
	c0.2-0.3,0.6-0.6,1-0.8c0.4-0.2,0.9-0.3,1.5-0.3c0.8,0,1.5,0.2,2.1,0.6c0.5,0.4,0.8,1,0.8,1.8h-1.3c0-0.4-0.2-0.7-0.5-1
	c-0.3-0.2-0.7-0.4-1.2-0.4s-0.8,0.1-1.1,0.3c-0.3,0.2-0.4,0.5-0.4,0.8s0.1,0.5,0.2,0.6c0.2,0.2,0.4,0.3,0.6,0.4
	c0.3,0.1,0.6,0.2,1,0.3c0.5,0.1,1,0.3,1.3,0.4s0.6,0.4,0.9,0.6c0.3,0.3,0.4,0.7,0.4,1.1s-0.1,0.8-0.4,1.1c-0.2,0.3-0.6,0.6-1,0.8
	C108,83.1,107.5,83.2,107,83.2z M112,83.2c-0.2,0-0.4-0.1-0.6-0.3s-0.3-0.4-0.3-0.6s0.1-0.4,0.3-0.6s0.4-0.3,0.6-0.3
	s0.4,0.1,0.6,0.3c0.2,0.2,0.3,0.4,0.3,0.6s-0.1,0.4-0.3,0.6C112.4,83.1,112.2,83.2,112,83.2z M130.5,73.3l-2.8,9.8h-1.4l-2.3-7.9
	l-2.4,7.9h-1.4l-2.7-9.8h1.4l2.1,8.3l2.4-8.3h1.4l2.2,8.2l2.1-8.2H130.5z M138.9,79c0,0.2,0,0.5,0,0.8h-6.1c0,0.8,0.3,1.3,0.8,1.8
	c0.5,0.4,1.1,0.6,1.7,0.6c0.6,0,1-0.1,1.4-0.4s0.6-0.6,0.8-1h1.4c-0.2,0.7-0.6,1.3-1.2,1.8c-0.6,0.5-1.4,0.7-2.3,0.7
	c-0.7,0-1.4-0.2-2-0.5s-1-0.8-1.3-1.4s-0.5-1.3-0.5-2.1c0-0.8,0.2-1.5,0.5-2.1s0.8-1.1,1.3-1.4c0.6-0.3,1.2-0.5,2-0.5
	c0.7,0,1.4,0.2,1.9,0.5c0.6,0.3,1,0.8,1.3,1.3C138.8,77.6,138.9,78.3,138.9,79z M137.6,78.7c0-0.5-0.1-0.9-0.3-1.2
	c-0.2-0.4-0.5-0.6-0.9-0.8c-0.4-0.2-0.8-0.3-1.2-0.3c-0.6,0-1.2,0.2-1.7,0.6c-0.4,0.4-0.7,1-0.8,1.7
	C132.7,78.7,137.6,78.7,137.6,78.7z M147.4,83.2c-0.6,0-1.2-0.1-1.7-0.3c-0.5-0.2-0.9-0.6-1.2-1s-0.4-0.9-0.4-1.4h1.4
	c0,0.5,0.2,0.8,0.6,1.2c0.3,0.3,0.8,0.5,1.5,0.5c0.6,0,1.1-0.1,1.4-0.4c0.4-0.3,0.5-0.7,0.5-1.2c0-0.4-0.1-0.7-0.3-0.9
	c-0.2-0.2-0.5-0.4-0.8-0.5s-0.7-0.3-1.2-0.4c-0.6-0.2-1.2-0.3-1.6-0.5c-0.4-0.2-0.7-0.4-1-0.8s-0.4-0.8-0.4-1.5c0-0.5,0.1-1,0.4-1.4
	c0.3-0.4,0.6-0.7,1.1-1c0.5-0.2,1.1-0.3,1.7-0.3c0.9,0,1.7,0.2,2.2,0.7c0.6,0.5,0.9,1.1,1,1.8h-1.4c0-0.4-0.2-0.7-0.6-1
	c-0.3-0.3-0.8-0.4-1.4-0.4c-0.5,0-1,0.1-1.3,0.4s-0.5,0.7-0.5,1.1s0.1,0.6,0.3,0.9c0.2,0.2,0.5,0.4,0.7,0.5c0.3,0.1,0.7,0.2,1.2,0.4
	c0.6,0.2,1.2,0.4,1.6,0.5c0.4,0.2,0.7,0.4,1,0.8s0.4,0.8,0.4,1.5c0,0.5-0.1,0.9-0.4,1.3s-0.6,0.8-1.1,1
	C148.7,83.1,148.1,83.2,147.4,83.2z M154.1,76.5V81c0,0.4,0.1,0.6,0.2,0.8c0.2,0.1,0.4,0.2,0.8,0.2h0.9v1.1h-1.1
	c-0.7,0-1.2-0.2-1.6-0.5c-0.4-0.3-0.5-0.9-0.5-1.6v-4.5h-1v-1h1v-1.9h1.3v1.9h2v1H154.1z M157.2,79.2c0-0.8,0.2-1.5,0.5-2.1
	s0.8-1.1,1.3-1.4c0.6-0.3,1.2-0.5,1.9-0.5s1.3,0.1,1.8,0.4s0.9,0.7,1.1,1.1v-1.4h1.3V83h-1.3v-1.4c-0.3,0.4-0.6,0.8-1.1,1.1
	c-0.5,0.3-1.1,0.4-1.7,0.4c-0.7,0-1.3-0.2-1.8-0.5c-0.6-0.3-1-0.8-1.3-1.4C157.3,80.7,157.2,80,157.2,79.2z M163.7,79.2
	c0-0.6-0.1-1.1-0.4-1.5c-0.2-0.4-0.6-0.8-1-1s-0.8-0.3-1.3-0.3s-0.9,0.1-1.3,0.3s-0.7,0.6-0.9,1s-0.4,0.9-0.4,1.5s0.1,1.1,0.4,1.5
	c0.2,0.4,0.5,0.8,0.9,1s0.8,0.3,1.3,0.3s0.9-0.1,1.3-0.3c0.4-0.2,0.7-0.6,1-1C163.5,80.3,163.7,79.8,163.7,79.2z M170.8,75.3
	c0.9,0,1.7,0.3,2.3,0.9s0.9,1.4,0.9,2.4v4.5h-1.3v-4.3c0-0.8-0.2-1.3-0.6-1.8c-0.4-0.4-0.9-0.6-1.6-0.6c-0.7,0-1.2,0.2-1.6,0.6
	c-0.4,0.4-0.6,1-0.6,1.8V83H167v-7.7h1.3v1.1c0.3-0.4,0.6-0.7,1-0.9C169.8,75.4,170.3,75.3,170.8,75.3z M175.6,79.2
	c0-0.8,0.2-1.5,0.5-2.1s0.8-1.1,1.3-1.4c0.6-0.3,1.2-0.5,1.9-0.5c0.6,0,1.2,0.1,1.7,0.4s0.9,0.6,1.2,1.1v-4.1h1.3V83h-1.3v-1.4
	c-0.3,0.5-0.6,0.8-1.1,1.1c-0.5,0.3-1.1,0.4-1.7,0.4c-0.7,0-1.3-0.2-1.9-0.5c-0.6-0.3-1-0.8-1.3-1.4C175.7,80.7,175.6,80,175.6,79.2
	z M182.1,79.2c0-0.6-0.1-1.1-0.4-1.5c-0.2-0.4-0.6-0.8-1-1s-0.8-0.3-1.3-0.3s-0.9,0.1-1.3,0.3s-0.7,0.6-0.9,1s-0.4,0.9-0.4,1.5
	s0.1,1.1,0.4,1.5c0.2,0.4,0.5,0.8,0.9,1s0.8,0.3,1.3,0.3s0.9-0.1,1.3-0.3c0.4-0.2,0.7-0.6,1-1C182,80.3,182.1,79.8,182.1,79.2z
	 M194.1,78.1c0.4,0.1,0.7,0.2,1,0.4c0.3,0.2,0.5,0.5,0.7,0.9c0.2,0.3,0.3,0.7,0.3,1.1c0,0.5-0.1,0.9-0.4,1.3
	c-0.3,0.4-0.6,0.7-1.1,0.9c-0.5,0.2-1,0.3-1.7,0.3h-3.6v-9.8h3.5c0.7,0,1.2,0.1,1.7,0.3c0.5,0.2,0.8,0.5,1,0.9s0.4,0.8,0.4,1.3
	c0,0.6-0.2,1.1-0.5,1.4C195.1,77.6,194.7,77.9,194.1,78.1z M190.5,77.6h2.1c0.6,0,1.1-0.1,1.4-0.4c0.3-0.3,0.5-0.7,0.5-1.2
	s-0.2-0.9-0.5-1.2c-0.3-0.3-0.8-0.4-1.4-0.4h-2.1V77.6z M192.8,82c0.6,0,1.1-0.1,1.5-0.4s0.5-0.7,0.5-1.2s-0.2-1-0.6-1.3
	c-0.4-0.3-0.9-0.5-1.5-0.5h-2.2V82H192.8z M204.4,75.4l-4.6,11.3h-1.3L200,83l-3.1-7.6h1.4l2.4,6.2l2.4-6.2H204.4z M216.3,73.3
	l-3.2,6.1v3.7h-1.3v-3.7l-3.2-6.1h1.4l2.4,4.9l2.4-4.9H216.3z M221,83.2c-0.7,0-1.4-0.2-2-0.5s-1-0.8-1.4-1.4
	c-0.3-0.6-0.5-1.3-0.5-2.1c0-0.8,0.2-1.5,0.5-2.1s0.8-1.1,1.4-1.4c0.6-0.3,1.2-0.5,2-0.5c0.7,0,1.4,0.2,2,0.5s1.1,0.8,1.4,1.4
	c0.3,0.6,0.5,1.3,0.5,2.1c0,0.8-0.2,1.5-0.5,2.1s-0.8,1.1-1.4,1.4C222.4,83.1,221.7,83.2,221,83.2z M221,82.1c0.5,0,0.9-0.1,1.3-0.3
	c0.4-0.2,0.7-0.5,1-1c0.3-0.4,0.4-1,0.4-1.6s-0.1-1.1-0.4-1.6s-0.6-0.7-1-1c-0.4-0.2-0.8-0.3-1.3-0.3s-0.9,0.1-1.3,0.3
	c-0.4,0.2-0.7,0.5-0.9,1s-0.3,1-0.3,1.6s0.1,1.2,0.3,1.6s0.5,0.8,0.9,1C220.1,82,220.5,82.1,221,82.1z M233.4,75.4v7.7h-1.3V82
	c-0.2,0.4-0.6,0.7-1,0.9c-0.4,0.2-0.9,0.3-1.4,0.3c-0.6,0-1.1-0.1-1.6-0.4s-0.9-0.6-1.1-1.1c-0.3-0.5-0.4-1.1-0.4-1.8v-4.5h1.3v4.3
	c0,0.8,0.2,1.3,0.6,1.8c0.4,0.4,0.9,0.6,1.6,0.6c0.7,0,1.2-0.2,1.6-0.6s0.6-1,0.6-1.8v-4.2h1.1V75.4z M235.9,83.2
	c-0.2,0-0.4-0.1-0.6-0.3s-0.3-0.4-0.3-0.6s0.1-0.4,0.3-0.6s0.4-0.3,0.6-0.3c0.2,0,0.4,0.1,0.6,0.3c0.2,0.2,0.3,0.4,0.3,0.6
	s-0.1,0.4-0.3,0.6C236.4,83.1,236.2,83.2,235.9,83.2z"/>
</svg>
