<?xml version="1.0" encoding="utf-8"?>
<!-- Generator: Adobe Illustrator 27.4.0, SVG Export Plug-In . SVG Version: 6.00 Build 0)  -->
<svg version="1.1" id="Layer_1" xmlns="http://www.w3.org/2000/svg" xmlns:xlink="http://www.w3.org/1999/xlink" x="0px" y="0px"
	 viewBox="0 0 391 265" style="enable-background:new 0 0 391 265;" xml:space="preserve">
<style type="text/css">
	.st0{fill:#E2CDD1;}
</style>
<path class="st0" d="M389.6,97.6c10.4,90.3-68.1,165.2-175.5,167.3C106.8,267,11.2,195.4,0.8,105.1C-7.7,31.9,52.6,1.7,128.6,10.2
	c36.6,4.1,72.9,1.2,107.8-6.2C314.8-12.7,381.1,23.4,389.6,97.6L389.6,97.6z"/>
<path class="st0" d="M82.8,253.1c-1.7,1-3.9-0.3-3.9-2.3v-24.2c0-2,2.2-3.3,3.9-2.3l21,12.1c1.7,1,1.7,3.5,0,4.5L82.8,253.1z"/>
</svg>
