<svg width="18" height="15" viewBox="0 0 18 15" fill="none" xmlns="http://www.w3.org/2000/svg">
<g clip-path="url(#clip0_701_6103)">
<path d="M13.7339 12.4879C15.5835 12.2285 16.8599 10.4312 16.5854 8.47299C16.3108 6.51479 14.5892 5.13787 12.7397 5.39721C12.0908 5.4882 11.5129 5.76882 11.0472 6.17938C10.7996 3.13696 13.3258 2.12308 15.5336 1.81349L15.3008 0.15306C12.9673 0.480267 11.3307 1.37558 10.3389 2.73764C9.54799 3.82417 9.09579 6.53238 9.65026 9.40692C10.0089 11.2639 11.7837 12.8592 13.7339 12.4879Z" fill="black"/>
<path d="M1.74358 10.5185C2.1012 12.3733 3.87596 13.9686 5.82623 13.5972C7.67575 13.3379 8.95223 11.5406 8.67765 9.58237C8.40306 7.62417 6.68148 6.24725 4.83197 6.50659C4.1831 6.59758 3.60523 6.8782 3.13947 7.28875C2.8919 4.24634 5.41807 3.23245 7.62592 2.92286L7.39309 1.26243C5.0596 1.58964 3.423 2.48495 2.43122 3.84702C1.64027 4.93354 1.18808 7.64175 1.74255 10.5163L1.74358 10.5185Z" fill="black"/>
</g>
<defs>
<clipPath id="clip0_701_6103">
<rect width="15" height="12" fill="white" transform="translate(17.083 12.0225) rotate(172.018)"/>
</clipPath>
</defs>
</svg>
