<svg width="980" height="106" viewBox="0 0 980 106" fill="none" xmlns="http://www.w3.org/2000/svg">
<path d="M937.946 44.0234V15.1886H904.993V34.0588H878.05V0.995117H834.435V20.7686H799.462V43.3734H772.187V13.1606H728.578V31.4222H699.418V17.7254H665.124V42.8768H629.319V15.1886H596.369V34.0588H569.425V0.995117H525.811V20.7686H490.838V43.3734H463.563V13.1606H419.954V31.4222H390.791V17.7254H356.5V42.8768H323.144V15.1886H290.194V34.0588H263.25V0.995117H219.636V20.7686H184.663V43.3734H157.388V13.1606H113.779V31.4222H84.616V17.7254H50.3252V42.8768H12.3081V104.916H318.483H353.861H627.11H660.036H968.66V44.0234H937.946Z" fill="#DED2DE"/>
<path d="M957.14 86.185C957.14 86.185 955.061 69.7542 937.028 75.6799C937.028 75.6799 925.954 60.5954 910.232 75.6799C910.232 75.6799 900.12 63.0202 887.65 75.6799C887.65 75.6799 873.545 64.9727 864.408 78.913C864.408 78.913 850.404 70.6696 841.142 83.9647C841.142 83.9647 826.082 71.3342 813.904 87.1442C813.904 87.1442 807.259 80.4248 799.757 87.1442C799.757 87.1442 788.583 70.1218 773.697 87.1442C773.697 87.1442 758.814 77.5691 749.147 91.4388C749.147 91.4388 739.288 76.9459 723.632 89.3426C723.632 89.3426 718.03 75.4194 703.706 83.0542C703.706 83.0542 700.434 68.403 683.81 71.9404C683.81 71.9404 671.875 55.2175 656.869 72.5199C656.869 72.5199 641.225 65.6495 630.971 75.6945C627.515 72.8972 619.522 68.5126 610.214 77.4109C610.214 77.4109 596.108 67.3294 586.972 80.4541C586.972 80.4541 572.967 72.6903 563.705 85.2087C563.705 85.2087 548.645 73.3159 536.467 88.2032C536.467 88.2032 529.822 81.8758 522.32 88.2032C522.32 88.2032 511.146 72.1741 496.26 88.2032C496.26 88.2032 481.377 79.1857 471.71 92.247C471.71 92.247 461.852 78.5989 446.195 90.2751C446.195 90.2751 440.593 77.165 426.27 84.3542C426.27 84.3542 422.997 70.5576 406.374 73.8881C406.374 73.8881 394.438 58.1414 379.432 74.4334C379.432 74.4334 356.888 65.1091 348.19 85.2087C348.19 85.2087 348.161 85.2112 348.105 85.2185C346.774 81.2015 342.316 73.1382 328.515 77.4084C328.515 77.4084 317.442 63.2052 301.719 77.4084C301.719 77.4084 291.608 65.4864 279.138 77.4084C279.138 77.4084 265.032 67.3269 255.896 80.4516C255.896 80.4516 241.891 72.6878 232.629 85.2063C232.629 85.2063 217.569 73.3135 205.391 88.2008C205.391 88.2008 198.746 81.8734 191.244 88.2008C191.244 88.2008 180.07 72.1717 165.184 88.2008C165.184 88.2008 150.301 79.1832 140.634 92.2446C140.634 92.2446 130.776 78.5965 115.119 90.2726C115.119 90.2726 109.517 77.1625 95.1936 84.3518C95.1936 84.3518 91.9214 70.5552 75.2976 73.8856C75.2976 73.8856 63.3625 58.1389 48.3564 74.431C48.3564 74.431 25.8117 65.1066 17.1145 85.2063C17.1145 85.2063 -1.76524 87.171 0.426876 105.306H979.552C979.552 105.306 980.583 86.1801 957.13 86.1801L957.14 86.185Z" fill="#C4B8C9"/>
<path d="M324.647 96.2102C324.463 96.2102 324.3 96.0739 324.276 95.8864C323.692 91.5821 321.959 88.4854 319.126 86.6765C313.959 83.3777 306.798 85.4665 306.727 85.4885C306.528 85.5469 306.319 85.4373 306.258 85.2401C306.199 85.0429 306.309 84.836 306.508 84.7751C306.815 84.6826 314.076 82.5694 319.533 86.0508C322.56 87.9814 324.406 91.2583 325.022 95.7866C325.049 95.9911 324.907 96.1786 324.701 96.2054C324.683 96.2054 324.666 96.2078 324.649 96.2078L324.647 96.2102Z" fill="#FEFFFF"/>
<path d="M234.146 96.5099C233.979 96.5902 233.776 96.5391 233.67 96.3809C231.237 92.7704 228.309 90.74 224.965 90.3505C218.863 89.6396 213.354 94.6329 213.298 94.684C213.146 94.8228 212.908 94.8155 212.768 94.6645C212.625 94.5136 212.635 94.2774 212.787 94.1387C213.023 93.922 218.61 88.8605 225.051 89.6104C228.626 90.0267 231.733 92.1667 234.294 95.967C234.409 96.1374 234.362 96.3687 234.191 96.4831C234.176 96.4929 234.161 96.5002 234.146 96.5075V96.5099Z" fill="#FEFFFF"/>
<path d="M25.4607 95.4192C25.4312 95.4192 25.3993 95.4143 25.3674 95.407C25.1661 95.3559 25.0458 95.1538 25.0949 94.9542C25.1269 94.83 25.905 91.8817 28.8974 90.236C31.2785 88.9262 34.3396 88.8337 38.0022 89.9609C38.8736 89.0284 42.9633 85.0017 48.6166 84.8508C52.5124 84.7436 56.2559 86.5233 59.7441 90.1313C59.8865 90.2798 59.8816 90.516 59.7343 90.6572C59.5846 90.7984 59.3465 90.7959 59.2041 90.6474C55.868 87.2001 52.3209 85.5008 48.6436 85.5957C42.7203 85.7491 38.4465 90.5841 38.4048 90.6328C38.3066 90.7472 38.1495 90.7911 38.0046 90.7448C34.4526 89.6103 31.5142 89.6566 29.273 90.8836C26.5654 92.3662 25.8314 95.11 25.824 95.1367C25.7798 95.3047 25.6276 95.4167 25.4607 95.4167V95.4192Z" fill="#FEFFFF"/>
<path d="M694.636 98.8347C694.452 98.8347 694.29 98.6984 694.265 98.5109C693.681 94.2067 691.948 91.1099 689.115 89.301C683.948 86.0022 676.787 88.0911 676.716 88.113C676.517 88.1714 676.308 88.0618 676.247 87.8646C676.186 87.6674 676.299 87.4605 676.497 87.3996C676.804 87.3071 684.065 85.1939 689.522 88.6753C692.549 90.6059 694.395 93.8829 695.011 98.4111C695.038 98.6156 694.896 98.8031 694.69 98.8299C694.673 98.8299 694.655 98.8323 694.638 98.8323L694.636 98.8347Z" fill="#FEFFFF"/>
<path d="M378.001 92.4074C377.972 92.4074 377.94 92.4026 377.908 92.3953C377.707 92.3441 377.586 92.1421 377.635 91.9424C377.667 91.8183 378.446 88.87 381.438 87.2243C383.819 85.9145 386.88 85.822 390.543 86.9492C391.414 86.0167 395.504 81.99 401.157 81.839C405.053 81.7319 408.796 83.5116 412.285 87.1196C412.427 87.2681 412.422 87.5042 412.275 87.6454C412.125 87.7867 411.887 87.7842 411.745 87.6357C408.409 84.1884 404.861 82.4891 401.184 82.584C395.261 82.7374 390.987 87.5724 390.945 87.6211C390.847 87.7355 390.69 87.7793 390.545 87.7331C386.993 86.5986 384.055 86.6448 381.813 87.8719C379.106 89.3545 378.372 92.0982 378.365 92.125C378.32 92.293 378.168 92.405 378.001 92.405V92.4074Z" fill="#FEFFFF"/>
<path d="M947.485 98.8347C947.301 98.8347 947.139 98.6984 947.115 98.5109C946.53 94.2067 944.797 91.1099 941.964 89.301C936.797 86.0022 929.637 88.0911 929.565 88.113C929.367 88.1714 929.158 88.0618 929.097 87.8646C929.035 87.6674 929.148 87.4605 929.347 87.3996C929.654 87.3071 936.915 85.1939 942.372 88.6753C945.399 90.6059 947.245 93.8829 947.861 98.4111C947.888 98.6156 947.745 98.8031 947.539 98.8299C947.522 98.8299 947.505 98.8323 947.488 98.8323L947.485 98.8347Z" fill="#FEFFFF"/>
<path d="M577.081 95.4192C577.052 95.4192 577.02 95.4143 576.988 95.407C576.787 95.3559 576.666 95.1538 576.716 94.9542C576.747 94.83 577.526 91.8817 580.518 90.236C582.899 88.9262 585.96 88.8337 589.623 89.9609C590.494 89.0284 594.584 85.0017 600.237 84.8508C604.133 84.7436 607.876 86.5233 611.365 90.1313C611.507 90.2798 611.502 90.516 611.355 90.6572C611.205 90.7984 610.967 90.7959 610.825 90.6474C607.489 87.2001 603.941 85.5008 600.264 85.5957C594.341 85.7491 590.067 90.5841 590.025 90.6328C589.927 90.7472 589.77 90.7911 589.625 90.7448C586.073 89.6103 583.135 89.6566 580.894 90.8836C578.186 92.3662 577.452 95.11 577.445 95.1367C577.4 95.3047 577.248 95.4167 577.081 95.4167V95.4192Z" fill="#FEFFFF"/>
<path d="M859.226 97.6931C859.197 97.6931 859.165 97.6882 859.133 97.6809C858.932 97.6298 858.811 97.4277 858.86 97.2281C858.892 97.1039 859.671 94.1557 862.663 92.5099C865.044 91.2001 868.105 91.1076 871.768 92.2348C872.639 91.3024 876.729 87.2756 882.382 87.1247C886.278 87.0176 890.021 88.7972 893.51 92.4052C893.652 92.5537 893.647 92.7899 893.5 92.9311C893.35 93.0723 893.112 93.0699 892.97 92.9214C889.634 89.474 886.086 87.7747 882.409 87.8697C876.486 88.023 872.212 92.8581 872.17 92.9067C872.072 93.0212 871.915 93.065 871.77 93.0187C868.218 91.8842 865.28 91.9305 863.038 93.1575C860.331 94.6401 859.597 97.3839 859.59 97.4107C859.545 97.5787 859.393 97.6906 859.226 97.6906V97.6931Z" fill="#FEFFFF"/>
<path d="M531.864 82.3484C531.864 82.3484 530.244 78.587 537.064 79.517C537.064 79.517 535.699 79.7702 534.847 81.2918C534.449 82.0027 533.354 83.1518 531.864 82.3484Z" fill="white"/>
<path d="M531.449 83.0717L531.221 82.967C531.469 82.4314 531.911 82.1733 531.931 82.1636L532.056 82.3778C532.056 82.3778 531.663 82.6091 531.449 83.0717Z" fill="white"/>
<path d="M448.387 83.7502C448.387 83.7502 446.767 79.9888 453.586 80.9188C453.586 80.9188 452.222 81.172 451.37 82.6936C450.972 83.4045 449.877 84.5536 448.387 83.7502Z" fill="white"/>
<path d="M447.972 84.473L447.744 84.3683C447.992 83.8327 448.434 83.5747 448.454 83.5649L448.579 83.7792C448.579 83.7792 448.186 84.0105 447.972 84.473Z" fill="white"/>
<path d="M526.92 79.254C526.92 79.254 529.773 76.2985 523.062 74.7842C523.062 74.7842 524.247 75.4975 524.505 77.2212C524.625 78.0246 525.239 79.4829 526.92 79.254Z" fill="white"/>
<path d="M527.051 80.0743L527.301 80.0572C527.259 79.4681 526.938 79.0737 526.923 79.0566L526.729 79.2149C526.729 79.2149 527.014 79.5679 527.051 80.0743Z" fill="white"/>
</svg>
