<?xml version="1.0" encoding="utf-8"?>
<!-- Generator: Adobe Illustrator 27.4.0, SVG Export Plug-In . SVG Version: 6.00 Build 0)  -->
<svg version="1.1" id="Layer_1" xmlns="http://www.w3.org/2000/svg" xmlns:xlink="http://www.w3.org/1999/xlink" x="0px" y="0px"
	 viewBox="0 0 3853.8 115.6" style="enable-background:new 0 0 3853.8 115.6;" xml:space="preserve">
<style type="text/css">
	.st0{fill:#DED2DE;}
	.st1{fill:#FEFFFF;}
	.st2{fill:#C4B8C9;}
	.st3{fill:#FFFFFF;}
	.st4{fill:#F0F6F7;}
	.st5{fill:#896686;}
	.st6{font-family:'Poppins-ExtraBold';}
	.st7{font-size:24px;}
</style>
<polygon class="st0" points="3853.8,43.4 3844.7,43.4 3844.7,13.2 3808.2,13.2 3808.2,31.4 3779,31.4 3779,17.7 3744.7,17.7 
	3744.7,42.9 3706.7,42.9 3706.7,104.9 3853.8,104.9 "/>
<path class="st0" d="M3715.6,44V15.2h-33v18.9h-26.9V1h-43.6v19.8h-35v22.6h-27.3V13.2h-43.6v18.3H3477V17.7h-34.3v25.2H3407V15.2
	h-32.9v18.9h-26.9V1h-43.6v19.8h-35v22.6h-27.3V13.2h-43.6v18.3h-29.2V17.7h-34.3v25.2h-33.4V15.2h-32.9v18.9H3041V1h-43.6v19.8h-35
	v22.6h-27.3V13.2h-43.6v18.3h-29.2V17.7H2828v25.2h-38v62h306.2h35.4h273.2h32.9h308.6V44H3715.6z"/>
<path class="st0" d="M2788.3,44V15.2h-33v18.9h-26.9V1h-43.6v19.8h-35v22.6h-27.3V13.2h-43.6v18.3h-29.2V17.7h-34.3v25.2h-35.8V15.2
	h-32.9v18.9h-26.9V1h-43.6v19.8h-35v22.6h-27.3V13.2h-43.6v18.3h-29.2V17.7h-34.3v25.2h-33.4V15.2h-32.9v18.9h-26.9V1H2070v19.8h-35
	v22.6h-27.3V13.2h-43.6v18.3H1935V17.7h-34.3v25.2h-38v62h306.2h35.4h273.2h32.9H2819V44H2788.3z"/>
<path class="st0" d="M1863.3,44V15.2h-33v18.9h-26.9V1h-43.6v19.8h-35v22.6h-27.3V13.2h-43.6v18.3h-29.2V17.7h-34.3v25.2h-35.8V15.2
	h-32.9v18.9h-26.9V1h-43.6v19.8h-35v22.6h-27.3V13.2h-43.6v18.3h-29.2V17.7h-34.3v25.2h-33.4V15.2h-32.9v18.9h-26.9V1H1145v19.8h-35
	v22.6h-27.3V13.2h-43.6v18.3H1010V17.7h-34.3v25.2h-38v62h306.2h35.4h273.2h32.9H1894V44H1863.3z"/>
<path class="st0" d="M937.9,44V15.2h-33v18.9H878V1h-43.6v19.8h-35v22.6h-27.3V13.2h-43.6v18.3h-29.2V17.7H665v25.2h-35.8V15.2
	h-32.9v18.9h-26.9V1h-43.6v19.8h-35v22.6h-27.3V13.2H420v18.3h-29.2V17.7h-34.3v25.2h-33.4V15.2h-33v18.9h-26.9V1h-43.6v19.8h-35
	v22.6h-27.3V13.2h-43.6v18.3H84.6V17.7H50.3v25.2h-38v62h306.2h35.4h273.2H660h308.6V44H937.9z"/>
<path class="st1" d="M324.6,96.2c-0.2,0-0.3-0.1-0.4-0.3c-0.6-4.3-2.3-7.4-5.1-9.2c-5.2-3.3-12.3-1.2-12.4-1.2
	c-0.2,0.1-0.4-0.1-0.5-0.2c-0.1-0.2,0.1-0.4,0.2-0.5c0.3-0.1,7.6-2.2,13,1.3c3,1.9,4.9,5.2,5.5,9.7C325,96,324.9,96.2,324.6,96.2
	C324.7,96.2,324.7,96.2,324.6,96.2L324.6,96.2z"/>
<path class="st1" d="M234.1,96.5c-0.2,0.1-0.4,0-0.5-0.1c-2.4-3.6-5.4-5.6-8.7-6c-6.1-0.7-11.6,4.3-11.7,4.3c-0.2,0.1-0.4,0.1-0.5,0
	c-0.1-0.2-0.1-0.4,0-0.5c0.2-0.2,5.8-5.3,12.3-4.5c3.6,0.4,6.7,2.6,9.2,6.4C234.4,96.1,234.4,96.4,234.1,96.5
	C234.2,96.5,234.2,96.5,234.1,96.5L234.1,96.5z"/>
<path class="st1" d="M25.5,95.4C25.4,95.4,25.4,95.4,25.5,95.4c-0.3-0.1-0.4-0.3-0.4-0.5c0-0.1,0.8-3.1,3.8-4.7
	c2.4-1.3,5.4-1.4,9.1-0.3c0.9-0.9,5-5,10.6-5.1c3.9-0.1,7.6,1.7,11.1,5.3c0.1,0.1,0.1,0.4,0,0.5s-0.4,0.1-0.5,0
	c-3.3-3.4-6.9-5.1-10.6-5.1c-5.9,0.2-10.2,5-10.2,5c-0.1,0.1-0.3,0.2-0.4,0.1c-3.6-1.1-6.5-1.1-8.7,0.1c-2.7,1.5-3.4,4.2-3.4,4.3
	C25.8,95.3,25.6,95.4,25.5,95.4L25.5,95.4z"/>
<path class="st2" d="M957.1,86.2c0,0-2.1-16.4-20.1-10.5c0,0-11.1-15.1-26.8,0c0,0-10.1-12.7-22.6,0c0,0-14.1-10.7-23.2,3.2
	c0,0-14-8.2-23.3,5.1c0,0-15.1-12.6-27.2,3.2c0,0-6.6-6.7-14.1,0c0,0-11.2-17-26.1,0c0,0-14.9-9.6-24.6,4.3c0,0-9.9-14.5-25.5-2.1
	c0,0-5.6-13.9-19.9-6.3c0,0-3.3-14.7-19.9-11.1c0,0-11.9-16.7-26.9,0.6c0,0-15.6-6.9-25.9,3.2c-3.5-2.8-11.4-7.2-20.8,1.7
	c0,0-14.1-10.1-23.2,3c0,0-14-7.8-23.3,4.8c0,0-15.1-11.9-27.2,3c0,0-6.6-6.3-14.1,0c0,0-11.2-16-26.1,0c0,0-14.9-9-24.6,4
	c0,0-9.9-13.6-25.5-2c0,0-5.6-13.1-19.9-5.9c0,0-3.3-13.8-19.9-10.5c0,0-11.9-15.7-26.9,0.5c0,0-22.5-9.3-31.2,10.8c0,0,0,0-0.1,0
	c-1.3-4-5.8-12.1-19.6-7.8c0,0-11.1-14.2-26.8,0c0,0-10.1-11.9-22.6,0c0,0-14.1-10.1-23.2,3c0,0-14-7.8-23.3,4.8
	c0,0-15.1-11.9-27.2,3c0,0-6.6-6.3-14.1,0c0,0-11.2-16-26.1,0c0,0-14.9-9-24.6,4c0,0-9.9-13.6-25.5-2c0,0-5.6-13.1-19.9-5.9
	c0,0-3.3-13.8-19.9-10.5c0,0-11.9-15.7-26.9,0.5c0,0-22.5-9.3-31.2,10.8c0,0-18.9,2-16.7,20.1h979.1
	C979.6,105.3,980.6,86.2,957.1,86.2L957.1,86.2z"/>
<path class="st1" d="M694.6,98.8c-0.2,0-0.3-0.1-0.4-0.3c-0.6-4.3-2.3-7.4-5.2-9.2c-5.2-3.3-12.3-1.2-12.4-1.2
	c-0.2,0.1-0.4-0.1-0.5-0.2c-0.1-0.2,0.1-0.4,0.2-0.5c0.3-0.1,7.6-2.2,13,1.3c3,1.9,4.9,5.2,5.5,9.7C695,98.6,694.9,98.8,694.6,98.8
	C694.7,98.8,694.7,98.8,694.6,98.8L694.6,98.8z"/>
<path class="st1" d="M378,92.4C378,92.4,377.9,92.4,378,92.4c-0.3-0.1-0.4-0.3-0.4-0.5c0-0.1,0.8-3.1,3.8-4.7
	c2.4-1.3,5.4-1.4,9.1-0.3c0.9-0.9,5-5,10.6-5.1c3.9-0.1,7.6,1.7,11.1,5.3c0.1,0.1,0.1,0.4,0,0.5s-0.4,0.1-0.5,0
	c-3.3-3.4-6.9-5.1-10.6-5.1c-5.9,0.2-10.2,5-10.2,5c-0.1,0.1-0.3,0.2-0.4,0.1c-3.6-1.1-6.5-1.1-8.7,0.1c-2.7,1.5-3.4,4.2-3.4,4.3
	C378.3,92.3,378.2,92.4,378,92.4L378,92.4z"/>
<path class="st1" d="M947.5,98.8c-0.2,0-0.3-0.1-0.4-0.3c-0.6-4.3-2.3-7.4-5.2-9.2c-5.2-3.3-12.3-1.2-12.4-1.2
	c-0.2,0.1-0.4-0.1-0.5-0.2c-0.1-0.2,0.1-0.4,0.2-0.5c0.3-0.1,7.6-2.2,13,1.3c3,1.9,4.9,5.2,5.5,9.7
	C947.9,98.6,947.7,98.8,947.5,98.8L947.5,98.8L947.5,98.8z"/>
<path class="st1" d="M577.1,95.4C577.1,95.4,577,95.4,577.1,95.4c-0.3-0.1-0.4-0.3-0.4-0.5c0-0.1,0.8-3.1,3.8-4.7
	c2.4-1.3,5.4-1.4,9.1-0.3c0.9-0.9,5-5,10.6-5.1c3.9-0.1,7.6,1.7,11.1,5.3c0.1,0.1,0.1,0.4,0,0.5s-0.4,0.1-0.5,0
	c-3.3-3.4-6.9-5.1-10.6-5.1c-5.9,0.2-10.2,5-10.2,5c-0.1,0.1-0.3,0.2-0.4,0.1c-3.6-1.1-6.5-1.1-8.7,0.1c-2.7,1.5-3.4,4.2-3.4,4.3
	C577.4,95.3,577.2,95.4,577.1,95.4L577.1,95.4z"/>
<path class="st1" d="M859.2,97.7L859.2,97.7c-0.3-0.1-0.4-0.3-0.4-0.5c0-0.1,0.8-3.1,3.8-4.7c2.4-1.3,5.4-1.4,9.1-0.3
	c0.9-0.9,5-5,10.6-5.1c3.9-0.1,7.6,1.7,11.1,5.3c0.1,0.1,0.1,0.4,0,0.5c-0.2,0.1-0.4,0.1-0.5,0c-3.3-3.4-6.9-5.1-10.6-5.1
	c-5.9,0.2-10.2,5-10.2,5c-0.1,0.1-0.3,0.2-0.4,0.1c-3.6-1.1-6.5-1.1-8.7,0.1c-2.7,1.5-3.4,4.2-3.4,4.3
	C859.5,97.6,859.4,97.7,859.2,97.7L859.2,97.7z"/>
<path class="st3" d="M531.9,82.3c0,0-1.6-3.8,5.2-2.8c0,0-1.4,0.3-2.2,1.8C534.4,82,533.4,83.2,531.9,82.3z"/>
<path class="st3" d="M531.4,83.1l-0.2-0.1c0.2-0.5,0.7-0.8,0.7-0.8l0.1,0.2C532.1,82.4,531.7,82.6,531.4,83.1z"/>
<path class="st3" d="M448.4,83.8c0,0-1.6-3.8,5.2-2.8c0,0-1.4,0.3-2.2,1.8C451,83.4,449.9,84.6,448.4,83.8z"/>
<path class="st3" d="M448,84.5l-0.2-0.1c0.2-0.5,0.7-0.8,0.7-0.8l0.1,0.2C448.6,83.8,448.2,84,448,84.5z"/>
<path class="st3" d="M526.9,79.3c0,0,2.9-3-3.9-4.5c0,0,1.2,0.7,1.4,2.4C524.6,78,525.2,79.5,526.9,79.3z"/>
<path class="st3" d="M527.1,80.1h0.2c0-0.6-0.4-1-0.4-1l-0.2,0.2C526.7,79.2,527,79.6,527.1,80.1z"/>
<path class="st2" d="M1912.6,86.2c0,0-2.1-16.4-20.1-10.5c0,0-11.1-15.1-26.8,0c0,0-10.1-12.7-22.6,0c0,0-14.1-10.7-23.2,3.2
	c0,0-14-8.2-23.3,5.1c0,0-15.1-12.6-27.2,3.2c0,0-6.6-6.7-14.1,0c0,0-11.2-17-26.1,0c0,0-14.9-9.6-24.6,4.3c0,0-9.9-14.5-25.5-2.1
	c0,0-5.6-13.9-19.9-6.3c0,0-3.3-14.7-19.9-11.1c0,0-11.9-16.7-26.9,0.6c0,0-15.6-6.9-25.9,3.2c-3.5-2.8-11.4-7.2-20.8,1.7
	c0,0-14.1-10.1-23.2,3c0,0-14-7.8-23.3,4.8c0,0-15.1-11.9-27.2,3c0,0-6.6-6.3-14.1,0c0,0-11.2-16-26.1,0c0,0-14.9-9-24.6,4
	c0,0-9.9-13.6-25.5-2c0,0-5.6-13.1-19.9-5.9c0,0-3.3-13.8-19.9-10.5c0,0-11.9-15.7-26.9,0.5c0,0-22.5-9.3-31.2,10.8c0,0,0,0-0.1,0
	c-1.3-4-5.8-12.1-19.6-7.8c0,0-11.1-14.2-26.8,0c0,0-10.1-11.9-22.6,0c0,0-14.1-10.1-23.2,3c0,0-14-7.8-23.3,4.8
	c0,0-15.1-11.9-27.2,3c0,0-6.6-6.3-14.1,0c0,0-11.2-16-26.1,0c0,0-14.9-9-24.6,4c0,0-9.9-13.6-25.5-2c0,0-5.6-13.1-19.9-5.9
	c0,0-3.3-13.8-19.9-10.5c0,0-11.9-15.7-26.9,0.5c0,0-22.5-9.3-31.2,10.8c0,0-18.9,2-16.7,20.1H1935
	C1935,105.3,1936.1,86.2,1912.6,86.2L1912.6,86.2z"/>
<path class="st1" d="M1280.1,96.2c-0.2,0-0.3-0.1-0.4-0.3c-0.6-4.3-2.3-7.4-5.2-9.2c-5.2-3.3-12.3-1.2-12.4-1.2
	c-0.2,0.1-0.4-0.1-0.5-0.2c-0.1-0.2,0.1-0.4,0.2-0.5c0.3-0.1,7.6-2.2,13,1.3c3,1.9,4.9,5.2,5.5,9.7
	C1280.5,96,1280.4,96.2,1280.1,96.2C1280.2,96.2,1280.1,96.2,1280.1,96.2L1280.1,96.2z"/>
<path class="st1" d="M1189.6,96.5c-0.2,0.1-0.4,0-0.5-0.1c-2.4-3.6-5.4-5.6-8.7-6c-6.1-0.7-11.6,4.3-11.7,4.3
	c-0.2,0.1-0.4,0.1-0.5,0c-0.1-0.2-0.1-0.4,0-0.5c0.2-0.2,5.8-5.3,12.3-4.5c3.6,0.4,6.7,2.6,9.2,6.4
	C1189.9,96.1,1189.8,96.4,1189.6,96.5C1189.7,96.5,1189.6,96.5,1189.6,96.5L1189.6,96.5z"/>
<path class="st1" d="M980.9,95.4L980.9,95.4c-0.3-0.1-0.4-0.3-0.4-0.5c0-0.1,0.8-3.1,3.8-4.7c2.4-1.3,5.4-1.4,9.1-0.3
	c0.9-0.9,5-5,10.6-5.1c3.9-0.1,7.6,1.7,11.1,5.3c0.1,0.1,0.1,0.4,0,0.5s-0.4,0.1-0.5,0c-3.3-3.4-6.9-5.1-10.6-5.1
	c-5.9,0.2-10.2,5-10.2,5c-0.1,0.1-0.3,0.2-0.4,0.1c-3.6-1.1-6.5-1.1-8.7,0.1c-2.7,1.5-3.4,4.2-3.4,4.3
	C981.3,95.3,981.1,95.4,980.9,95.4L980.9,95.4z"/>
<path class="st1" d="M1650.1,98.8c-0.2,0-0.3-0.1-0.4-0.3c-0.6-4.3-2.3-7.4-5.2-9.2c-5.2-3.3-12.3-1.2-12.4-1.2
	c-0.2,0.1-0.4-0.1-0.5-0.2c-0.1-0.2,0.1-0.4,0.2-0.5c0.3-0.1,7.6-2.2,13,1.3c3,1.9,4.9,5.2,5.5,9.7
	C1650.5,98.6,1650.4,98.8,1650.1,98.8C1650.2,98.8,1650.1,98.8,1650.1,98.8L1650.1,98.8z"/>
<path class="st1" d="M1333.5,92.4C1333.5,92.4,1333.4,92.4,1333.5,92.4c-0.3-0.1-0.4-0.3-0.4-0.5c0-0.1,0.8-3.1,3.8-4.7
	c2.4-1.3,5.4-1.4,9.1-0.3c0.9-0.9,5-5,10.6-5.1c3.9-0.1,7.6,1.7,11.1,5.3c0.1,0.1,0.1,0.4,0,0.5s-0.4,0.1-0.5,0
	c-3.3-3.4-6.9-5.1-10.6-5.1c-5.9,0.2-10.2,5-10.2,5c-0.1,0.1-0.3,0.2-0.4,0.1c-3.6-1.1-6.5-1.1-8.7,0.1c-2.7,1.5-3.4,4.2-3.4,4.3
	C1333.8,92.3,1333.6,92.4,1333.5,92.4L1333.5,92.4z"/>
<path class="st1" d="M1532.6,95.4C1532.5,95.4,1532.5,95.4,1532.6,95.4c-0.3-0.1-0.4-0.3-0.4-0.5c0-0.1,0.8-3.1,3.8-4.7
	c2.4-1.3,5.4-1.4,9.1-0.3c0.9-0.9,5-5,10.6-5.1c3.9-0.1,7.6,1.7,11.1,5.3c0.1,0.1,0.1,0.4,0,0.5c-0.2,0.1-0.4,0.1-0.5,0
	c-3.3-3.4-6.9-5.1-10.6-5.1c-5.9,0.2-10.2,5-10.2,5c-0.1,0.1-0.3,0.2-0.4,0.1c-3.6-1.1-6.5-1.1-8.7,0.1c-2.7,1.5-3.4,4.2-3.4,4.3
	C1532.9,95.3,1532.7,95.4,1532.6,95.4L1532.6,95.4z"/>
<path class="st1" d="M1814.7,97.7C1814.7,97.7,1814.6,97.7,1814.7,97.7c-0.3-0.1-0.4-0.3-0.4-0.5c0-0.1,0.8-3.1,3.8-4.7
	c2.4-1.3,5.4-1.4,9.1-0.3c0.9-0.9,5-5,10.6-5.1c3.9-0.1,7.6,1.7,11.1,5.3c0.1,0.1,0.1,0.4,0,0.5c-0.2,0.1-0.4,0.1-0.5,0
	c-3.3-3.4-6.9-5.1-10.6-5.1c-5.9,0.2-10.2,5-10.2,5c-0.1,0.1-0.3,0.2-0.4,0.1c-3.6-1.1-6.5-1.1-8.7,0.1c-2.7,1.5-3.4,4.2-3.4,4.3
	C1815,97.6,1814.9,97.7,1814.7,97.7L1814.7,97.7z"/>
<path class="st3" d="M1487.3,82.3c0,0-1.6-3.8,5.2-2.8c0,0-1.4,0.3-2.2,1.8C1489.9,82,1488.8,83.2,1487.3,82.3z"/>
<path class="st3" d="M1486.9,83.1l-0.2-0.1c0.2-0.5,0.7-0.8,0.7-0.8l0.1,0.2C1487.5,82.4,1487.1,82.6,1486.9,83.1z"/>
<path class="st3" d="M1403.9,83.8c0,0-1.6-3.8,5.2-2.8c0,0-1.4,0.3-2.2,1.8C1406.5,83.4,1405.4,84.6,1403.9,83.8z"/>
<path class="st3" d="M1403.5,84.5l-0.2-0.1c0.2-0.5,0.7-0.8,0.7-0.8l0.1,0.2C1404.1,83.8,1403.7,84,1403.5,84.5z"/>
<path class="st3" d="M1482.4,79.3c0,0,2.9-3-3.9-4.5c0,0,1.2,0.7,1.4,2.4C1480.1,78,1480.7,79.5,1482.4,79.3z"/>
<path class="st3" d="M1482.5,80.1h0.2c0-0.6-0.4-1-0.4-1l-0.2,0.2C1482.2,79.2,1482.5,79.6,1482.5,80.1z"/>
<path class="st2" d="M2870.9,86.2c0,0-2.1-16.4-20.1-10.5c0,0-11.1-15.1-26.8,0c0,0-10.1-12.7-22.6,0c0,0-14.1-10.7-23.2,3.2
	c0,0-14-8.2-23.3,5.1c0,0-15.1-12.6-27.2,3.2c0,0-6.6-6.7-14.1,0c0,0-11.2-17-26.1,0c0,0-14.9-9.6-24.6,4.3c0,0-9.9-14.5-25.5-2.1
	c0,0-5.6-13.9-19.9-6.3c0,0-3.3-14.7-19.9-11.1c0,0-11.9-16.7-26.9,0.6c0,0-15.6-6.9-25.9,3.2c-3.5-2.8-11.4-7.2-20.8,1.7
	c0,0-14.1-10.1-23.2,3c0,0-14-7.8-23.3,4.8c0,0-15.1-11.9-27.2,3c0,0-6.6-6.3-14.1,0c0,0-11.2-16-26.1,0c0,0-14.9-9-24.6,4
	c0,0-9.9-13.6-25.5-2c0,0-5.6-13.1-19.9-5.9c0,0-3.3-13.8-19.9-10.5c0,0-11.9-15.7-26.9,0.5c0,0-22.5-9.3-31.2,10.8c0,0,0,0-0.1,0
	c-1.3-4-5.8-12.1-19.6-7.8c0,0-11.1-14.2-26.8,0c0,0-10.1-11.9-22.6,0c0,0-14.1-10.1-23.2,3c0,0-14-7.8-23.3,4.8
	c0,0-15.1-11.9-27.2,3c0,0-6.6-6.3-14.1,0c0,0-11.2-16-26.1,0c0,0-14.9-9-24.6,4c0,0-9.9-13.6-25.5-2c0,0-5.6-13.1-19.9-5.9
	c0,0-3.3-13.8-19.9-10.5c0,0-11.9-15.7-26.9,0.5c0,0-22.5-9.3-31.2,10.8c0,0-18.9,2-16.7,20.1h979.1
	C2893.3,105.3,2894.4,86.2,2870.9,86.2L2870.9,86.2z"/>
<path class="st1" d="M2238.4,96.2c-0.2,0-0.3-0.1-0.4-0.3c-0.6-4.3-2.3-7.4-5.2-9.2c-5.2-3.3-12.3-1.2-12.4-1.2
	c-0.2,0.1-0.4-0.1-0.5-0.2c-0.1-0.2,0.1-0.4,0.2-0.5c0.3-0.1,7.6-2.2,13,1.3c3,1.9,4.9,5.2,5.5,9.7
	C2238.8,96,2238.7,96.2,2238.4,96.2C2238.5,96.2,2238.4,96.2,2238.4,96.2L2238.4,96.2z"/>
<path class="st1" d="M2147.9,96.5c-0.2,0.1-0.4,0-0.5-0.1c-2.4-3.6-5.4-5.6-8.7-6c-6.1-0.7-11.6,4.3-11.7,4.3
	c-0.2,0.1-0.4,0.1-0.5,0c-0.1-0.2-0.1-0.4,0-0.5c0.2-0.2,5.8-5.3,12.3-4.5c3.6,0.4,6.7,2.6,9.2,6.4
	C2148.2,96.1,2148.1,96.4,2147.9,96.5L2147.9,96.5L2147.9,96.5z"/>
<path class="st1" d="M1939.2,95.4L1939.2,95.4c-0.3-0.1-0.4-0.3-0.4-0.5c0-0.1,0.8-3.1,3.8-4.7c2.4-1.3,5.4-1.4,9.1-0.3
	c0.9-0.9,5-5,10.6-5.1c3.9-0.1,7.6,1.7,11.1,5.3c0.1,0.1,0.1,0.4,0,0.5s-0.4,0.1-0.5,0c-3.3-3.4-6.9-5.1-10.6-5.1
	c-5.9,0.2-10.2,5-10.2,5c-0.1,0.1-0.3,0.2-0.4,0.1c-3.6-1.1-6.5-1.1-8.7,0.1c-2.7,1.5-3.4,4.2-3.4,4.3
	C1939.6,95.3,1939.4,95.4,1939.2,95.4L1939.2,95.4z"/>
<path class="st1" d="M2608.4,98.8c-0.2,0-0.3-0.1-0.4-0.3c-0.6-4.3-2.3-7.4-5.2-9.2c-5.2-3.3-12.3-1.2-12.4-1.2
	c-0.2,0.1-0.4-0.1-0.5-0.2c-0.1-0.2,0.1-0.4,0.2-0.5c0.3-0.1,7.6-2.2,13,1.3c3,1.9,4.9,5.2,5.5,9.7
	C2608.8,98.6,2608.7,98.8,2608.4,98.8L2608.4,98.8L2608.4,98.8z"/>
<path class="st1" d="M2291.8,92.4C2291.7,92.4,2291.7,92.4,2291.8,92.4c-0.3-0.1-0.4-0.3-0.4-0.5c0-0.1,0.8-3.1,3.8-4.7
	c2.4-1.3,5.4-1.4,9.1-0.3c0.9-0.9,5-5,10.6-5.1c3.9-0.1,7.6,1.7,11.1,5.3c0.1,0.1,0.1,0.4,0,0.5c-0.2,0.1-0.4,0.1-0.5,0
	c-3.3-3.4-6.9-5.1-10.6-5.1c-5.9,0.2-10.2,5-10.2,5c-0.1,0.1-0.3,0.2-0.4,0.1c-3.6-1.1-6.5-1.1-8.7,0.1c-2.7,1.5-3.4,4.2-3.4,4.3
	C2292.1,92.3,2291.9,92.4,2291.8,92.4L2291.8,92.4z"/>
<path class="st1" d="M2490.9,95.4C2490.8,95.4,2490.8,95.4,2490.9,95.4c-0.3-0.1-0.4-0.3-0.4-0.5c0-0.1,0.8-3.1,3.8-4.7
	c2.4-1.3,5.4-1.4,9.1-0.3c0.9-0.9,5-5,10.6-5.1c3.9-0.1,7.6,1.7,11.1,5.3c0.1,0.1,0.1,0.4,0,0.5s-0.4,0.1-0.5,0
	c-3.3-3.4-6.9-5.1-10.6-5.1c-5.9,0.2-10.2,5-10.2,5c-0.1,0.1-0.3,0.2-0.4,0.1c-3.6-1.1-6.5-1.1-8.7,0.1c-2.7,1.5-3.4,4.2-3.4,4.3
	C2491.2,95.3,2491,95.4,2490.9,95.4L2490.9,95.4z"/>
<path class="st1" d="M2773,97.7C2773,97.7,2772.9,97.7,2773,97.7c-0.3-0.1-0.4-0.3-0.4-0.5c0-0.1,0.8-3.1,3.8-4.7
	c2.4-1.3,5.4-1.4,9.1-0.3c0.9-0.9,5-5,10.6-5.1c3.9-0.1,7.6,1.7,11.1,5.3c0.1,0.1,0.1,0.4,0,0.5s-0.4,0.1-0.5,0
	c-3.3-3.4-6.9-5.1-10.6-5.1c-5.9,0.2-10.2,5-10.2,5c-0.1,0.1-0.3,0.2-0.4,0.1c-3.6-1.1-6.5-1.1-8.7,0.1c-2.7,1.5-3.4,4.2-3.4,4.3
	C2773.3,97.6,2773.2,97.7,2773,97.7L2773,97.7z"/>
<path class="st3" d="M2445.6,82.3c0,0-1.6-3.8,5.2-2.8c0,0-1.4,0.3-2.2,1.8C2448.2,82,2447.1,83.2,2445.6,82.3z"/>
<path class="st3" d="M2445.2,83.1L2445,83c0.2-0.5,0.7-0.8,0.7-0.8l0.1,0.2C2445.8,82.4,2445.4,82.6,2445.2,83.1z"/>
<path class="st3" d="M2362.2,83.8c0,0-1.6-3.8,5.2-2.8c0,0-1.4,0.3-2.2,1.8C2364.7,83.4,2363.6,84.6,2362.2,83.8z"/>
<path class="st3" d="M2361.7,84.5l-0.2-0.1c0.2-0.5,0.7-0.8,0.7-0.8l0.1,0.2C2362.4,83.8,2362,84,2361.7,84.5z"/>
<path class="st3" d="M2440.7,79.3c0,0,2.9-3-3.9-4.5c0,0,1.2,0.7,1.4,2.4C2438.4,78,2439,79.5,2440.7,79.3z"/>
<path class="st3" d="M2440.8,80.1h0.2c0-0.6-0.4-1-0.4-1l-0.2,0.2C2440.5,79.2,2440.8,79.6,2440.8,80.1z"/>
<path class="st2" d="M3831.4,86.2c0,0-2.1-16.4-20.1-10.5c0,0-11.1-15.1-26.8,0c0,0-10.1-12.7-22.6,0c0,0-14.1-10.7-23.2,3.2
	c0,0-14-8.2-23.3,5.1c0,0-15.1-12.6-27.2,3.2c0,0-6.6-6.7-14.1,0c0,0-11.2-17-26.1,0c0,0-14.9-9.6-24.6,4.3c0,0-9.9-14.5-25.5-2.1
	c0,0-5.6-13.9-19.9-6.3c0,0-3.3-14.7-19.9-11.1c0,0-11.9-16.7-26.9,0.6c0,0-15.6-6.9-25.9,3.2c-3.5-2.8-11.4-7.2-20.8,1.7
	c0,0-14.1-10.1-23.2,3c0,0-14-7.8-23.3,4.8c0,0-15.1-11.9-27.2,3c0,0-6.6-6.3-14.1,0c0,0-11.2-16-26.1,0c0,0-14.9-9-24.6,4
	c0,0-9.9-13.6-25.5-2c0,0-5.6-13.1-19.9-5.9c0,0-3.3-13.8-19.9-10.5c0,0-11.9-15.7-26.9,0.5c0,0-22.5-9.3-31.2,10.8c0,0,0,0-0.1,0
	c-1.3-4-5.8-12.1-19.6-7.8c0,0-11.1-14.2-26.8,0c0,0-10.1-11.9-22.6,0c0,0-14.1-10.1-23.2,3c0,0-14-7.8-23.3,4.8
	c0,0-15.1-11.9-27.2,3c0,0-6.6-6.3-14.1,0c0,0-11.2-16-26.1,0c0,0-14.9-9-24.5,4c0,0-9.9-13.6-25.5-2c0,0-5.6-13.1-19.9-5.9
	c0,0-3.3-13.8-19.9-10.5c0,0-11.9-15.7-26.9,0.5c0,0-22.5-9.3-31.2,10.8c0,0-18.9,2-16.7,20.1h979.1
	C3853.8,105.3,3854.9,86.2,3831.4,86.2L3831.4,86.2z"/>
<path class="st1" d="M3198.9,96.2c-0.2,0-0.3-0.1-0.4-0.3c-0.6-4.3-2.3-7.4-5.1-9.2c-5.2-3.3-12.3-1.2-12.4-1.2
	c-0.2,0.1-0.4-0.1-0.5-0.2c-0.1-0.2,0.1-0.4,0.2-0.5c0.3-0.1,7.6-2.2,13,1.3c3,1.9,4.9,5.2,5.5,9.7
	C3199.3,96,3199.2,96.2,3198.9,96.2C3199,96.2,3198.9,96.2,3198.9,96.2L3198.9,96.2z"/>
<path class="st1" d="M3108.4,96.5c-0.2,0.1-0.4,0-0.5-0.1c-2.4-3.6-5.4-5.6-8.7-6c-6.1-0.7-11.6,4.3-11.7,4.3
	c-0.2,0.1-0.4,0.1-0.5,0c-0.1-0.2-0.1-0.4,0-0.5c0.2-0.2,5.8-5.3,12.3-4.5c3.6,0.4,6.7,2.6,9.2,6.4
	C3108.7,96.1,3108.6,96.4,3108.4,96.5C3108.5,96.5,3108.4,96.5,3108.4,96.5L3108.4,96.5z"/>
<path class="st1" d="M2899.7,95.4L2899.7,95.4c-0.3-0.1-0.4-0.3-0.4-0.5c0-0.1,0.8-3.1,3.8-4.7c2.4-1.3,5.4-1.4,9.1-0.3
	c0.9-0.9,5-5,10.6-5.1c3.9-0.1,7.6,1.7,11.1,5.3c0.1,0.1,0.1,0.4,0,0.5s-0.4,0.1-0.5,0c-3.3-3.4-6.9-5.1-10.6-5.1
	c-5.9,0.2-10.2,5-10.2,5c-0.1,0.1-0.3,0.2-0.4,0.1c-3.6-1.1-6.5-1.1-8.7,0.1c-2.7,1.5-3.4,4.2-3.4,4.3
	C2900.1,95.3,2899.9,95.4,2899.7,95.4L2899.7,95.4z"/>
<path class="st1" d="M3568.9,98.8c-0.2,0-0.3-0.1-0.4-0.3c-0.6-4.3-2.3-7.4-5.1-9.2c-5.2-3.3-12.3-1.2-12.4-1.2
	c-0.2,0.1-0.4-0.1-0.5-0.2c-0.1-0.2,0.1-0.4,0.2-0.5c0.3-0.1,7.6-2.2,13,1.3c3,1.9,4.9,5.2,5.5,9.7
	C3569.3,98.6,3569.2,98.8,3568.9,98.8L3568.9,98.8L3568.9,98.8z"/>
<path class="st1" d="M3252.3,92.4C3252.2,92.4,3252.2,92.4,3252.3,92.4c-0.3-0.1-0.4-0.3-0.4-0.5c0-0.1,0.8-3.1,3.8-4.7
	c2.4-1.3,5.4-1.4,9.1-0.3c0.9-0.9,5-5,10.6-5.1c3.9-0.1,7.6,1.7,11.1,5.3c0.1,0.1,0.1,0.4,0,0.5s-0.4,0.1-0.5,0
	c-3.3-3.4-6.9-5.1-10.6-5.1c-5.9,0.2-10.2,5-10.2,5c-0.1,0.1-0.3,0.2-0.4,0.1c-3.6-1.1-6.5-1.1-8.7,0.1c-2.7,1.5-3.4,4.2-3.4,4.3
	C3252.6,92.3,3252.4,92.4,3252.3,92.4L3252.3,92.4z"/>
<path class="st1" d="M3451.4,95.4C3451.3,95.4,3451.3,95.4,3451.4,95.4c-0.3-0.1-0.4-0.3-0.4-0.5c0-0.1,0.8-3.1,3.8-4.7
	c2.4-1.3,5.4-1.4,9.1-0.3c0.9-0.9,5-5,10.6-5.1c3.9-0.1,7.6,1.7,11.1,5.3c0.1,0.1,0.1,0.4,0,0.5c-0.2,0.1-0.4,0.1-0.5,0
	c-3.3-3.4-6.9-5.1-10.6-5.1c-5.9,0.2-10.2,5-10.2,5c-0.1,0.1-0.3,0.2-0.4,0.1c-3.6-1.1-6.5-1.1-8.7,0.1c-2.7,1.5-3.4,4.2-3.4,4.3
	C3451.7,95.3,3451.5,95.4,3451.4,95.4L3451.4,95.4z"/>
<path class="st1" d="M3733.5,97.7C3733.5,97.7,3733.4,97.7,3733.5,97.7c-0.3-0.1-0.4-0.3-0.4-0.5c0-0.1,0.8-3.1,3.8-4.7
	c2.4-1.3,5.4-1.4,9.1-0.3c0.9-0.9,5-5,10.6-5.1c3.9-0.1,7.6,1.7,11.1,5.3c0.1,0.1,0.1,0.4,0,0.5c-0.2,0.1-0.4,0.1-0.5,0
	c-3.3-3.4-6.9-5.1-10.6-5.1c-5.9,0.2-10.2,5-10.2,5c-0.1,0.1-0.3,0.2-0.4,0.1c-3.6-1.1-6.5-1.1-8.7,0.1c-2.7,1.5-3.4,4.2-3.4,4.3
	C3733.8,97.6,3733.7,97.7,3733.5,97.7L3733.5,97.7z"/>
<path class="st3" d="M3406.1,82.3c0,0-1.6-3.8,5.2-2.8c0,0-1.4,0.3-2.2,1.8C3408.7,82,3407.6,83.2,3406.1,82.3z"/>
<path class="st3" d="M3405.7,83.1l-0.2-0.1c0.2-0.5,0.7-0.8,0.7-0.8l0.1,0.2C3406.3,82.4,3405.9,82.6,3405.7,83.1z"/>
<path class="st3" d="M3322.7,83.8c0,0-1.6-3.8,5.2-2.8c0,0-1.4,0.3-2.2,1.8C3325.2,83.4,3324.2,84.6,3322.7,83.8z"/>
<path class="st3" d="M3322.2,84.5l-0.2-0.1c0.2-0.5,0.7-0.8,0.7-0.8l0.1,0.2C3322.9,83.8,3322.5,84,3322.2,84.5z"/>
<path class="st3" d="M3401.2,79.3c0,0,2.9-3-3.9-4.5c0,0,1.2,0.7,1.4,2.4C3398.9,78,3399.5,79.5,3401.2,79.3z"/>
<path class="st3" d="M3401.3,80.1h0.2c0-0.6-0.4-1-0.4-1l-0.2,0.2C3401,79.2,3401.3,79.6,3401.3,80.1z"/>
<g>
	<g>
		<path class="st4" d="M808.2,110.5l-2.5-0.9c-0.5-0.2-0.8-0.8-0.6-1.3l17.8-48.7l4.4,1.6l-17.8,48.7
			C809.3,110.4,808.7,110.7,808.2,110.5z"/>
		<g>
			<g>
				<path class="st5" d="M839.6,67.1l-29.9-11c-3.2-1.2-4.8-4.7-3.7-7.9l11-29.9c1.2-3.2,4.7-4.8,7.9-3.7l29.9,11
					c3.2,1.2,4.8,4.7,3.7,7.9l-11,29.9C846.3,66.6,842.8,68.2,839.6,67.1z"/>
			</g>
			<g>
				<path class="st3" d="M838.4,63.8l-25.6-9.4c-3-1.1-4.5-4.4-3.4-7.4l9.4-25.6c1.1-3,4.4-4.5,7.4-3.4l25.6,9.4
					c3,1.1,4.5,4.4,3.4,7.4l-9.4,25.6C844.7,63.4,841.3,64.9,838.4,63.8z M825.7,18.9c-2.5-0.9-5.2,0.4-6.1,2.8l-9.4,25.6
					c-0.9,2.5,0.4,5.2,2.8,6.1l25.6,9.4c2.5,0.9,5.2-0.4,6.1-2.8l9.4-25.6c0.9-2.5-0.4-5.2-2.8-6.1L825.7,18.9z"/>
			</g>
		</g>
	</g>
	<text transform="matrix(0.9389 0.3443 -0.3443 0.9389 824.8253 47.8743)" class="st3 st6 st7">1</text>
</g>
<g>
	<g>
		<path class="st4" d="M1373.8,110.5l-2.5-0.9c-0.5-0.2-0.8-0.8-0.6-1.3l17.8-48.7l4.4,1.6l-17.8,48.7
			C1374.9,110.4,1374.3,110.7,1373.8,110.5z"/>
		<g>
			<g>
				<path class="st5" d="M1405.3,67.1l-29.9-11c-3.2-1.2-4.8-4.7-3.7-7.9l11-29.9c1.2-3.2,4.7-4.8,7.9-3.7l29.9,11
					c3.2,1.2,4.8,4.7,3.7,7.9l-11,29.9C1412,66.6,1408.4,68.2,1405.3,67.1z"/>
			</g>
			<g>
				<path class="st3" d="M1404,63.8l-25.6-9.4c-3-1.1-4.5-4.4-3.4-7.4l9.4-25.6c1.1-3,4.4-4.5,7.4-3.4l25.6,9.4
					c3,1.1,4.5,4.4,3.4,7.4l-9.4,25.6C1410.3,63.4,1407,64.9,1404,63.8z M1391.4,18.9c-2.5-0.9-5.2,0.4-6.1,2.8l-9.4,25.6
					c-0.9,2.5,0.4,5.2,2.8,6.1l25.6,9.4c2.5,0.9,5.2-0.4,6.1-2.8l9.4-25.6c0.9-2.5-0.4-5.2-2.8-6.1L1391.4,18.9z"/>
			</g>
		</g>
	</g>
	<text transform="matrix(0.9389 0.3443 -0.3443 0.9389 1388.4312 47.1224)" class="st3 st6 st7">2</text>
</g>
<g>
	<g>
		<path class="st4" d="M1938.6,110.5l-2.5-0.9c-0.5-0.2-0.8-0.8-0.6-1.3l17.8-48.7l4.4,1.6l-17.8,48.7
			C1939.7,110.4,1939.1,110.7,1938.6,110.5z"/>
		<g>
			<g>
				<path class="st5" d="M1970,67.1l-29.9-11c-3.2-1.2-4.8-4.7-3.7-7.9l11-29.9c1.2-3.2,4.7-4.8,7.9-3.7l29.9,11
					c3.2,1.2,4.8,4.7,3.7,7.9l-11,29.9C1976.7,66.6,1973.2,68.2,1970,67.1z"/>
			</g>
			<g>
				<path class="st3" d="M1968.8,63.8l-25.6-9.4c-3-1.1-4.5-4.4-3.4-7.4l9.4-25.6c1.1-3,4.4-4.5,7.4-3.4l25.6,9.4
					c3,1.1,4.5,4.4,3.4,7.4l-9.4,25.6C1975.1,63.4,1971.8,64.9,1968.8,63.8z M1956.2,18.9c-2.5-0.9-5.2,0.4-6.1,2.8l-9.4,25.6
					c-0.9,2.5,0.4,5.2,2.8,6.1l25.6,9.4c2.5,0.9,5.2-0.4,6.1-2.8l9.4-25.6c0.9-2.5-0.4-5.2-2.8-6.1L1956.2,18.9z"/>
			</g>
		</g>
	</g>
	<text transform="matrix(0.9389 0.3443 -0.3443 0.9389 1952.7577 46.9529)" class="st3 st6 st7">3</text>
</g>
<g>
	<g>
		<path class="st4" d="M2398.6,110.5l-2.5-0.9c-0.5-0.2-0.8-0.8-0.6-1.3l17.8-48.7l4.4,1.6l-17.8,48.7
			C2399.7,110.4,2399.1,110.7,2398.6,110.5z"/>
		<g>
			<g>
				<path class="st5" d="M2430,67.1l-29.9-11c-3.2-1.2-4.8-4.7-3.7-7.9l11-29.9c1.2-3.2,4.7-4.8,7.9-3.7l29.9,11
					c3.2,1.2,4.8,4.7,3.7,7.9l-11,29.9C2436.7,66.6,2433.2,68.2,2430,67.1z"/>
			</g>
			<g>
				<path class="st3" d="M2428.8,63.8l-25.6-9.4c-3-1.1-4.5-4.4-3.4-7.4l9.4-25.6c1.1-3,4.4-4.5,7.4-3.4l25.6,9.4
					c3,1.1,4.5,4.4,3.4,7.4l-9.4,25.6C2435.1,63.4,2431.8,64.9,2428.8,63.8z M2416.1,18.9c-2.5-0.9-5.2,0.4-6.1,2.8l-9.4,25.6
					c-0.9,2.5,0.4,5.2,2.8,6.1l25.6,9.4c2.5,0.9,5.2-0.4,6.1-2.8l9.4-25.6c0.9-2.5-0.4-5.2-2.8-6.1L2416.1,18.9z"/>
			</g>
		</g>
	</g>
	<text transform="matrix(0.9389 0.3443 -0.3443 0.9389 2411.8 46.6182)" class="st3 st6 st7">4</text>
</g>
</svg>
