<svg width="35" height="9" viewBox="0 0 35 9" fill="none" xmlns="http://www.w3.org/2000/svg">
<path d="M5.30376 8.00023C7.28482 8.00023 8.89079 6.39426 8.89079 4.4132C8.89079 2.43214 7.28482 0.826172 5.30376 0.826172C3.3227 0.826172 1.71674 2.43214 1.71674 4.4132C1.71674 6.39426 3.3227 8.00023 5.30376 8.00023Z" fill="#696969" stroke="#696969" stroke-width="1.62567" stroke-linecap="round" stroke-linejoin="round"/>
<path d="M17.8585 8.00023C19.8396 8.00023 21.4455 6.39426 21.4455 4.4132C21.4455 2.43214 19.8396 0.826172 17.8585 0.826172C15.8775 0.826172 14.2715 2.43214 14.2715 4.4132C14.2715 6.39426 15.8775 8.00023 17.8585 8.00023Z" stroke="#696969" stroke-width="1.62567" stroke-linecap="round" stroke-linejoin="round"/>
<path d="M30.4131 8.00023C32.3941 8.00023 34.0001 6.39426 34.0001 4.4132C34.0001 2.43214 32.3941 0.826172 30.4131 0.826172C28.432 0.826172 26.826 2.43214 26.826 4.4132C26.826 6.39426 28.432 8.00023 30.4131 8.00023Z" stroke="#696969" stroke-width="1.62567" stroke-linecap="round" stroke-linejoin="round"/>
</svg>
