<svg width="96" height="37" viewBox="0 0 96 37" fill="none" xmlns="http://www.w3.org/2000/svg">
<path d="M12.9744 15.2051C12.6631 14.6318 12.2126 14.1976 11.6229 13.9028C11.0495 13.5915 10.3697 13.4359 9.58334 13.4359C8.22365 13.4359 7.13427 13.8864 6.31518 14.7874C5.49609 15.672 5.08654 16.8597 5.08654 18.3504C5.08654 19.9395 5.51247 21.1845 6.36432 22.0855C7.23256 22.9701 8.42024 23.4124 9.92736 23.4124C10.9594 23.4124 11.8276 23.1503 12.5321 22.6261C13.2529 22.1018 13.7771 21.3483 14.1047 20.3654H8.77244V17.2692H17.9135V21.1763C17.6022 22.2247 17.0698 23.1994 16.3163 24.1004C15.5791 25.0014 14.6371 25.7304 13.4904 26.2874C12.3437 26.8444 11.0495 27.1229 9.60791 27.1229C7.90421 27.1229 6.3807 26.7543 5.0374 26.0171C3.71047 25.2635 2.67023 24.2233 1.91667 22.8964C1.17949 21.5694 0.810898 20.0541 0.810898 18.3504C0.810898 16.6467 1.17949 15.1314 1.91667 13.8045C2.67023 12.4612 3.71047 11.4209 5.0374 10.6837C6.36432 9.93018 7.87964 9.5534 9.58334 9.5534C11.6474 9.5534 13.3839 10.053 14.7927 11.0523C16.218 12.0516 17.1599 13.4359 17.6186 15.2051H12.9744ZM26.4824 27.1966C25.1391 27.1966 23.9269 26.9099 22.8457 26.3365C21.7809 25.7632 20.9372 24.9441 20.3147 23.8793C19.7086 22.8145 19.4055 21.5694 19.4055 20.1442C19.4055 18.7354 19.7168 17.4986 20.3393 16.4338C20.9618 15.3526 21.8136 14.5253 22.8948 13.9519C23.976 13.3785 25.1883 13.0919 26.5316 13.0919C27.8749 13.0919 29.0871 13.3785 30.1683 13.9519C31.2495 14.5253 32.1014 15.3526 32.7239 16.4338C33.3464 17.4986 33.6576 18.7354 33.6576 20.1442C33.6576 21.5531 33.3382 22.7981 32.6993 23.8793C32.0768 24.9441 31.2168 25.7632 30.1192 26.3365C29.038 26.9099 27.8257 27.1966 26.4824 27.1966ZM26.4824 23.5598C27.2851 23.5598 27.965 23.265 28.522 22.6752C29.0953 22.0855 29.382 21.2418 29.382 20.1442C29.382 19.0466 29.1035 18.203 28.5465 17.6132C28.0059 17.0235 27.3343 16.7286 26.5316 16.7286C25.7125 16.7286 25.0326 17.0235 24.492 17.6132C23.9514 18.1866 23.6811 19.0303 23.6811 20.1442C23.6811 21.2418 23.9433 22.0855 24.4675 22.6752C25.0081 23.265 25.6797 23.5598 26.4824 23.5598ZM46.8463 23.437V27H44.7084C43.1849 27 41.9973 26.6314 41.1454 25.8942C40.2935 25.1407 39.8676 23.9202 39.8676 22.2329V16.7778H38.1967V13.2884H39.8676V9.94657H44.0695V13.2884H46.8217V16.7778H44.0695V22.282C44.0695 22.6916 44.1678 22.9865 44.3644 23.1667C44.561 23.3469 44.8886 23.437 45.3473 23.437H46.8463ZM48.3513 20.1442C48.3513 18.719 48.638 17.474 49.2114 16.4092C49.8011 15.3444 50.612 14.5253 51.6441 13.9519C52.6925 13.3785 53.8884 13.0919 55.2317 13.0919C56.9518 13.0919 58.3852 13.5424 59.5319 14.4434C60.695 15.3444 61.4568 16.614 61.8172 18.2521H57.3449C56.9682 17.2037 56.2392 16.6795 55.158 16.6795C54.388 16.6795 53.7737 16.9825 53.315 17.5887C52.8563 18.1784 52.627 19.0303 52.627 20.1442C52.627 21.2582 52.8563 22.1182 53.315 22.7244C53.7737 23.3141 54.388 23.609 55.158 23.609C56.2392 23.609 56.9682 23.0848 57.3449 22.0363H61.8172C61.4568 23.6417 60.695 24.9031 59.5319 25.8205C58.3688 26.7379 56.9354 27.1966 55.2317 27.1966C53.8884 27.1966 52.6925 26.9099 51.6441 26.3365C50.612 25.7632 49.8011 24.9441 49.2114 23.8793C48.638 22.8145 48.3513 21.5694 48.3513 20.1442ZM72.4932 13.141C74.0659 13.141 75.3273 13.6652 76.2774 14.7137C77.2275 15.7457 77.7026 17.1709 77.7026 18.9893V27H73.5253V19.5545C73.5253 18.6371 73.2877 17.9245 72.8127 17.4167C72.3376 16.9088 71.6987 16.6549 70.896 16.6549C70.0933 16.6549 69.4544 16.9088 68.9793 17.4167C68.5043 17.9245 68.2667 18.6371 68.2667 19.5545V27H64.0648V8.81622H68.2667V15.1314C68.6926 14.5253 69.2742 14.042 70.0114 13.6816C70.7486 13.3212 71.5758 13.141 72.4932 13.141ZM94.1621 13.2884V27H89.9602V25.1325C89.5342 25.7386 88.9527 26.2301 88.2155 26.6068C87.4947 26.9672 86.692 27.1474 85.8074 27.1474C84.7589 27.1474 83.8334 26.9181 83.0307 26.4594C82.228 25.9843 81.6054 25.3045 81.1631 24.4199C80.7208 23.5353 80.4997 22.495 80.4997 21.2991V13.2884H84.677V20.734C84.677 21.6513 84.9146 22.364 85.3896 22.8718C85.8647 23.3796 86.5036 23.6335 87.3063 23.6335C88.1254 23.6335 88.7725 23.3796 89.2476 22.8718C89.7226 22.364 89.9602 21.6513 89.9602 20.734V13.2884H94.1621Z" fill="white"/>
<path d="M23.3504 18.7519C23.24 19.3291 22.6754 19.6309 22.5497 19.6924C21.6441 20.141 20.6226 19.5471 20.2956 19.3291C20.262 19.3053 20.2355 19.2872 20.2159 19.2746C19.9309 19.0719 19.2796 18.608 19.1706 17.8128C19.0295 16.7745 19.8764 15.6761 20.4591 15.7237C20.4703 15.7237 20.4828 15.7251 20.4926 15.7278C20.7106 15.7642 20.74 15.978 21.2263 16.3847C21.3688 16.5048 21.496 16.5943 21.6106 16.6655C21.9348 16.8654 22.164 16.9143 22.4155 17.075C22.5119 17.1365 22.6126 17.2147 22.723 17.3251C22.899 17.4998 23.479 18.0798 23.349 18.7519H23.3504Z" fill="url(#paint0_linear_163_738)"/>
<path d="M36.5254 19.9508C36.5254 21.7507 35.8798 23.6387 34.5969 25.092C32.9242 26.9884 30.8755 27.3349 29.3733 27.5991C29.2643 27.6186 28.9834 27.7109 28.6131 27.6885C28.3364 27.6717 27.7662 27.6382 27.4224 27.2036C27.0731 26.762 27.0982 26.087 27.3763 25.672C27.5678 25.3855 27.6782 25.5224 28.5027 24.9872C29.1399 24.5736 29.4921 24.2005 29.7268 23.7323C29.7394 23.7072 29.7478 23.6848 29.7562 23.6652C29.9239 23.239 30.0049 22.5277 29.6164 22.1336C29.3607 21.8737 29.0029 21.8639 28.4328 21.8541C27.7858 21.843 27.6977 21.9925 27.1206 22.0051C26.6315 22.0162 25.8685 22.0316 25.4492 21.5174C25.1474 21.147 25.0566 20.5405 25.3095 20.1017C25.5443 19.6951 25.9942 19.5679 26.2374 19.498C26.9585 19.294 27.2016 19.6322 27.769 19.4282C28.2092 19.2703 28.7724 18.8119 28.7444 18.2208C28.7151 17.6297 28.1114 17.2817 28.0485 17.2454C28.3951 17.325 28.8534 17.4145 29.4026 17.4815C29.4026 17.4815 29.4809 17.4913 29.5619 17.4997C30.9817 17.659 32.157 17.7904 33.3784 17.2523C33.4929 17.2006 33.6075 17.1447 33.7235 17.0819C34.2643 16.787 34.7618 16.3831 35.1825 15.9038C35.7289 16.453 35.9776 17.1769 36.1621 17.7093C36.4038 18.4122 36.524 19.1724 36.524 19.9494L36.5254 19.9508Z" fill="url(#paint1_linear_163_738)"/>
<path d="M36.0587 14.5763C35.912 14.9201 35.2356 16.5103 33.6439 17.3153C32.6699 17.8086 31.6344 17.7052 29.5634 17.5011C29.5634 17.5011 26.1103 17.1602 24.0868 15.7138C23.6843 15.4259 23.4132 15.0752 23.4132 15.0752C23.1658 14.7719 22.9856 14.4323 22.8947 14.0536C22.6558 13.0517 23.1742 11.65 23.1742 11.65C23.8394 9.89622 25.0789 8.88726 25.5834 8.4862C26.032 8.12985 26.4079 7.91324 26.4876 7.86713C26.7 7.74555 27.899 7.07617 29.4851 6.96298C29.9756 6.92804 32.6867 6.79109 34.7353 8.79363C35.1462 9.1961 36.4123 10.4314 36.5115 12.311C36.566 13.3591 36.2362 14.1584 36.0587 14.5749V14.5763Z" fill="url(#paint2_linear_163_738)"/>
<path d="M27.5119 13.531C28.0401 13.9488 28.6159 14.2409 29.3034 14.1836C29.3733 14.1808 29.432 14.2353 29.4334 14.3037C29.4334 14.3527 29.4068 14.396 29.3649 14.4169C28.6494 14.7775 27.6125 14.4169 27.3819 13.6218C27.3582 13.5477 27.4532 13.4834 27.5133 13.531H27.5119Z" fill="#692E2E"/>
<path d="M24.0896 12.2525C24.3565 12.5906 24.7087 12.838 25.1363 12.9051C25.2775 12.9316 25.4256 12.94 25.5863 12.9456C25.6897 12.9456 25.7302 13.0923 25.6436 13.1454C25.1587 13.4641 24.46 13.2894 24.1022 12.8548C23.9974 12.7262 23.6858 12.286 23.9471 12.2008C24.003 12.1882 24.0575 12.2105 24.0882 12.2525H24.0896Z" fill="#692E2E"/>
<path d="M23.2888 9.17779C23.6632 9.17779 23.9666 8.87435 23.9666 8.50003C23.9666 8.12571 23.6632 7.82227 23.2888 7.82227C22.9145 7.82227 22.6111 8.12571 22.6111 8.50003C22.6111 8.87435 22.9145 9.17779 23.2888 9.17779Z" fill="url(#paint3_linear_163_738)"/>
<path d="M25.1082 7.39366C25.1082 7.61026 24.9322 7.78634 24.7156 7.78634C24.499 7.78634 24.3229 7.61026 24.3229 7.39366C24.3229 7.17706 24.499 7.00098 24.7156 7.00098C24.9322 7.00098 25.1082 7.17706 25.1082 7.39366Z" fill="url(#paint4_linear_163_738)"/>
<defs>
<linearGradient id="paint0_linear_163_738" x1="19.1413" y1="15.9263" x2="22.5189" y2="19.4465" gradientUnits="userSpaceOnUse">
<stop stop-color="#D3A262"/>
<stop offset="0.66" stop-color="#CC7A54"/>
<stop offset="1" stop-color="#B55B3F"/>
</linearGradient>
<linearGradient id="paint1_linear_163_738" x1="26.5448" y1="18.4136" x2="35.1084" y2="24.1236" gradientUnits="userSpaceOnUse">
<stop stop-color="#D3A262"/>
<stop offset="0.66" stop-color="#CC7A54"/>
<stop offset="1" stop-color="#B55B3F"/>
</linearGradient>
<linearGradient id="paint2_linear_163_738" x1="26.018" y1="12.8323" x2="36.7225" y2="11.6905" gradientUnits="userSpaceOnUse">
<stop stop-color="#D3A262"/>
<stop offset="0.66" stop-color="#CC7A54"/>
<stop offset="1" stop-color="#B55B3F"/>
</linearGradient>
<linearGradient id="paint3_linear_163_738" x1="22.6111" y1="8.50003" x2="23.9666" y2="8.50003" gradientUnits="userSpaceOnUse">
<stop stop-color="#D3A262"/>
<stop offset="0.66" stop-color="#CC7A54"/>
<stop offset="1" stop-color="#B55B3F"/>
</linearGradient>
<linearGradient id="paint4_linear_163_738" x1="24.3229" y1="7.39366" x2="25.1082" y2="7.39366" gradientUnits="userSpaceOnUse">
<stop stop-color="#D3A262"/>
<stop offset="0.66" stop-color="#CC7A54"/>
<stop offset="1" stop-color="#B55B3F"/>
</linearGradient>
</defs>
</svg>
