<?xml version="1.0" encoding="utf-8"?>
<!-- Generator: Adobe Illustrator 27.4.0, SVG Export Plug-In . SVG Version: 6.00 Build 0)  -->
<svg version="1.1" id="Layer_1" xmlns="http://www.w3.org/2000/svg" xmlns:xlink="http://www.w3.org/1999/xlink" x="0px" y="0px"
	 viewBox="0 0 169 351" style="enable-background:new 0 0 169 351;" xml:space="preserve">
<style type="text/css">
	.st0{fill:#DEDEDE;filter:url(#Adobe_OpacityMaskFilter);}
	.st1{mask:url(#mask0_701_5763_00000019644603239135629030000000157106649175823747_);}
	.st2{fill:url(#SVGID_1_);}
</style>
<defs>
	<filter id="Adobe_OpacityMaskFilter" filterUnits="userSpaceOnUse" x="-26.3" y="0" width="202.7" height="351">
		<feColorMatrix  type="matrix" values="1 0 0 0 0  0 1 0 0 0  0 0 1 0 0  0 0 0 1 0"/>
	</filter>
</defs>
<mask maskUnits="userSpaceOnUse" x="-26.3" y="0" width="202.7" height="351" id="mask0_701_5763_00000019644603239135629030000000157106649175823747_">
	<path class="st0" d="M10.7,0h148c5.5,0,10,4.5,10,10v331c0,5.5-4.5,10-10,10h-148c-5.5,0-10-4.5-10-10V10C0.7,4.5,5.2,0,10.7,0z"/>
</mask>
<g class="st1">
	
		<linearGradient id="SVGID_1_" gradientUnits="userSpaceOnUse" x1="84.6964" y1="352" x2="84.6964" y2="1" gradientTransform="matrix(1 0 0 -1 0 352)">
		<stop  offset="0" style="stop-color:#B8A3B6;stop-opacity:0.61"/>
		<stop  offset="1" style="stop-color:#D9CECD;stop-opacity:0.35"/>
	</linearGradient>
	<path class="st2" d="M10.7,0h148c5.5,0,10,4.5,10,10v331c0,5.5-4.5,10-10,10h-148c-5.5,0-10-4.5-10-10V10C0.7,4.5,5.2,0,10.7,0z"/>
	<g id="wSxmhr_00000023963597573419197340000002146395774448154558_">
		<g>
			
				<image style="overflow:visible;" width="2174" height="3315" id="wSxmhr" xlink:href="C2C57ED8899AC034.png"  transform="matrix(9.324053e-02 0 0 9.324053e-02 -26.3008 32.9076)">
			</image>
		</g>
	</g>
</g>
</svg>
