<svg width="169" height="351" viewBox="0 0 169 351" fill="none" xmlns="http://www.w3.org/2000/svg">
<mask id="mask0_701_5711" style="mask-type:alpha" maskUnits="userSpaceOnUse" x="0" y="0" width="169" height="351">
<rect x="0.696411" width="168" height="351" rx="10" fill="#DEDEDE"/>
</mask>
<g mask="url(#mask0_701_5711)">
<rect x="0.696411" width="168" height="351" rx="10" fill="url(#paint0_linear_701_5711)"/>
<path d="M46.2957 185.818C46.2957 185.818 21.6705 190.005 17.1915 228.883C15.2586 245.656 13.4152 253.136 12.1996 256.545C10.9841 259.955 9.97475 265.257 11.6265 265.33C13.2783 265.405 51.8497 267.4 51.8497 267.4L52.1217 205.984L46.2957 185.818Z" fill="#533B50"/>
<path d="M44.9616 360.354C54.8412 362.999 65.2904 364.24 75.3836 365.532C85.4549 366.822 95.6357 367.523 105.767 366.702C111.053 366.273 116.251 365.37 121.497 364.594C125.842 363.951 130.172 363.824 134.373 362.323C136.671 361.502 138.883 360.465 141.066 359.352C140.292 350.98 142.38 340.398 140.212 332.308C138.874 327.32 136.901 322.635 135.125 317.826C133.346 313.005 132.187 293.492 131.205 288.418C130.716 285.889 130.261 283.35 129.699 280.838C129.412 279.555 129.206 278.331 128.064 277.666C126.445 276.723 124.07 276.648 122.27 276.409C119.878 276.093 114.399 275.963 111.989 275.932C101.92 275.797 91.7974 276.467 81.7407 276.975C76.0644 277.261 65.7886 277.586 60.116 277.958C55.4947 278.261 50.8824 278.635 46.387 279.827C46.6042 278.646 46.8214 277.465 47.0313 276.279C47.1354 275.691 46.3085 275.441 46.2045 276.031C45.9636 277.392 45.7135 278.747 45.4617 280.097C45.135 280.192 44.8064 280.28 44.4797 280.386C43.9522 280.556 44.1767 281.457 44.7079 281.286C44.894 281.225 45.082 281.174 45.27 281.118C43.255 291.74 40.8239 316.632 37.1352 326.804C35.2334 332.049 37.0202 337.605 36.8943 342.975C36.8505 344.798 34.5088 355.957 35.5601 356.567C38.4968 358.27 41.6763 359.474 44.9597 360.352L44.9616 360.354Z" fill="#AF9CAF"/>
<path d="M150.254 267.031C150.185 263.149 150.017 259.276 149.674 255.419C149.106 249.031 147.615 242.652 147.697 236.22C147.763 231.113 148.788 226.081 149.219 221.002C149.648 215.838 149.546 207.34 148.92 202.206C148.92 202.197 148.911 202.188 148.92 202.179C148.902 202.011 148.872 201.834 148.854 201.666C148.721 200.629 148.562 197.587 148.387 196.521C147.345 190.158 137.79 183.219 132.798 180.766C120.162 174.558 106.84 171.987 92.4654 172.558C79.9447 173.056 67.2652 177.665 55.5731 181.834C55.4673 181.872 55.3596 181.912 55.2556 181.956C54.9654 182.076 54.6679 182.199 54.3777 182.321C48.3272 184.776 42.6144 187.101 42.5396 187.128C42.1015 187.315 41.7 187.539 41.3258 187.791C41.3167 187.8 41.3076 187.809 41.2893 187.809C41.2711 187.818 41.262 187.827 41.2419 187.837C41.094 187.939 40.9681 188.063 40.8312 188.174C40.7418 191.912 39.6905 195.884 39.0863 199.231C38.1007 204.685 39.435 209.439 40.2015 214.838C41.0867 221.062 40.0975 227.383 39.0425 233.524C37.8215 240.633 35.9434 247.646 35.2097 254.833C34.7114 259.714 32.5376 263.388 32.6928 268.279C32.8935 274.58 31.0556 317.698 31.5593 320.742C32.1105 324.077 32.5376 328.634 37.1115 326.185C38.7761 325.292 51.3497 317.818 52.3024 318.399C61.6765 324.106 73.2153 327.444 84.1882 327.26C89.1637 327.176 110.578 329.943 115.382 328.649C122.749 326.665 146.618 345.849 148.863 339.171C150.115 335.446 149.916 330.976 150.033 327.105C150.214 321.125 150.179 300.592 150.123 294.613C150.035 285.449 150.42 276.217 150.256 267.031H150.254Z" fill="#533B50"/>
<path d="M128.708 293.581C125.917 291.479 111.265 271.336 101.08 257.113C100.69 256.563 100.299 256.021 99.9157 255.486C99.6967 255.176 99.4795 254.871 99.2678 254.574C98.8644 254.004 98.4683 253.457 98.0832 252.92C97.7583 252.464 97.4481 252.02 97.1451 251.591C96.8731 251.214 96.6158 250.85 96.3657 250.5C96.2343 250.316 96.1011 250.129 95.9751 249.951C95.5517 249.356 95.1483 248.786 94.7724 248.259C92.4836 245.032 91.0636 243.015 91.0636 243.015L92.8358 224.506C92.8358 224.506 95.8912 227.276 100.54 231.494C101.135 232.029 101.757 232.591 102.405 233.181C103.676 234.331 105.03 235.568 106.459 236.857C107.008 237.359 107.57 237.868 108.138 238.384C108.62 238.821 109.111 239.27 109.606 239.721C110.18 240.243 110.763 240.772 111.35 241.307C126.426 254.995 145.359 272.227 146.239 273.238C162.103 291.417 140.057 302.114 128.71 293.578L128.708 293.581Z" fill="#C18173"/>
<path d="M60.7603 196.639C60.6471 196.207 60.251 195.909 59.8039 195.918L37.7357 196.404C37.4254 196.411 37.137 196.566 36.9618 196.822L36.6424 197.283C36.4745 197.526 36.427 197.831 36.5128 198.112L41.6817 215.212L47.9658 233.851L48.5571 233.677L48.6101 233.851L49.0499 233.836C49.258 234.544 49.4588 235.174 49.4588 235.174L69.0666 234.468C69.3988 234.455 69.7018 234.274 69.8697 233.986L70.1709 233.464C70.2986 233.243 70.3333 232.98 70.2694 232.734L60.7621 196.641L60.7603 196.639Z" fill="white"/>
<path d="M68.9535 234.121C68.8495 234.121 68.7527 234.052 68.7254 233.946L59.1103 197.581L37.1717 197.904C37.0495 197.91 36.9345 197.802 36.9326 197.672C36.9308 197.541 37.0348 197.435 37.1644 197.433L59.2874 197.106C59.406 197.127 59.4918 197.178 59.5192 197.282L69.1817 233.825C69.2145 233.951 69.1397 234.081 69.0137 234.114C68.9937 234.119 68.9736 234.121 68.9535 234.121Z" fill="#533B50"/>
<path d="M58.2415 204.931H57.6191C57.0789 204.931 56.6007 204.566 56.4583 204.045L55.3595 200.015C55.2592 199.65 55.334 199.269 55.564 198.968C55.7939 198.667 56.1425 198.495 56.5204 198.495H57.1427C57.683 198.495 58.1612 198.86 58.3035 199.382L59.4023 203.412C59.5009 203.777 59.4279 204.159 59.1979 204.46C58.9679 204.761 58.6193 204.933 58.2415 204.933V204.931ZM56.5185 198.968C56.2886 198.968 56.0768 199.072 55.9381 199.254C55.7994 199.437 55.7538 199.669 55.814 199.89L56.9128 203.92C56.9985 204.237 57.2887 204.458 57.6173 204.458H58.2397C58.4696 204.458 58.6814 204.354 58.8201 204.171C58.9588 203.989 59.0044 203.757 58.9442 203.536L57.8454 199.506C57.7596 199.189 57.4694 198.968 57.1409 198.968H56.5185Z" fill="#533B50"/>
<path d="M59.291 197.577C59.2436 197.577 59.1961 197.563 59.1542 197.533C59.0483 197.457 59.0227 197.311 59.0994 197.203L59.8696 196.126C59.9463 196.02 60.0941 195.997 60.1982 196.071C60.304 196.148 60.3296 196.294 60.2529 196.402L59.4827 197.479C59.4371 197.542 59.3641 197.577 59.291 197.577Z" fill="#533B50"/>
<path d="M52.8864 218.981C52.8791 218.965 52.8718 218.95 52.8645 218.934C52.8116 218.813 53.2624 218.308 53.3354 218.178C53.5982 217.715 53.7443 217.271 53.7278 216.729C53.6603 214.511 52.2531 213.069 50.6743 211.715C49.1539 210.412 48.3399 209.403 46.9656 208.886C45.2408 208.238 42.7896 209.122 40.6797 210.511C41.0009 210.115 41.3148 209.715 41.6652 209.339C43.463 207.408 45.8723 206.137 48.1446 204.853C48.9477 204.398 50.0172 203.982 50.6871 203.323C51.3259 202.695 51.7439 201.64 50.9992 200.912C49.8274 199.766 47.3726 201.093 46.2045 201.523C44.9451 201.987 43.6784 202.465 42.5085 203.131C39.3272 204.944 36.0875 207.968 34.109 211.044C31.4497 215.176 33.1326 219.116 34.3408 223.396C35.8083 228.6 37.3414 233.785 38.9147 238.96C39.7853 241.823 43.6109 241.221 45.8431 240.418C52.1381 238.151 50.1012 230.779 48.0187 225.621C48.026 225.592 48.0333 225.565 48.0406 225.535C50.2326 226.293 49.999 227.417 52.2586 227.976C53.2277 228.215 54.1841 227.806 54.4433 226.786C54.5802 226.247 54.4214 225.742 54.1202 225.271C55.2683 223.546 53.6019 220.635 52.8864 218.981Z" fill="#C18173"/>
<path d="M52.3042 218.2C52.2203 218.2 52.1381 218.154 52.0962 218.076C52.0706 218.028 49.5062 213.268 47.0806 212.597C44.6586 211.929 41.4937 214.011 41.4627 214.033C41.3532 214.104 41.2072 214.075 41.136 213.967C41.063 213.86 41.0922 213.712 41.2017 213.641C41.3386 213.549 44.5819 211.416 47.2084 212.142C49.8293 212.867 52.4065 217.651 52.5141 217.855C52.5762 217.97 52.5324 218.114 52.4174 218.174C52.3827 218.193 52.3444 218.202 52.3061 218.202L52.3042 218.2Z" fill="#80322D"/>
<path d="M53.3846 224.446C53.308 224.446 53.2332 224.409 53.1875 224.34C53.151 224.283 49.4167 218.656 47.2557 218.194C45.1422 217.74 43.1053 220.102 43.0852 220.125C43.0012 220.226 42.8516 220.237 42.753 220.153C42.6544 220.069 42.6417 219.919 42.7256 219.821C42.8169 219.715 44.9633 217.223 47.3561 217.733C49.7051 218.236 53.4248 223.841 53.5836 224.081C53.6548 224.19 53.6256 224.336 53.5161 224.407C53.4759 224.435 53.4303 224.446 53.3865 224.446H53.3846Z" fill="#80322D"/>
<path d="M49.6267 236.9C49.6267 236.9 36.0693 274.8 35.7116 275.694C32.2364 284.373 29.5279 294.623 17.9982 294.579C16.2333 294.572 14.4337 294.249 12.9096 293.36C-6.38793 282.099 26.7007 248.906 33.5889 239.216C34.6438 237.733 35.6239 236.378 36.427 235.239C37.847 233.261 38.7614 231.981 38.7614 231.981L49.6285 236.902L49.6267 236.9Z" fill="#C18173"/>
<path d="M98.2055 116.7C96.9133 112.25 94.504 108.646 91.8229 105.121C91.2534 104.371 90.0068 105.159 90.5818 105.917C91.8886 107.634 93.4546 109.076 94.9421 110.613C91.1585 110.679 88.3842 112.966 87.7235 116.946C86.9204 121.78 86.9716 126.315 87.5939 131.154C88.2419 136.202 88.6197 141.314 90.3372 146.142C90.903 147.73 94.995 152.651 94.995 152.651C94.995 152.651 96.6286 146.772 96.5829 145.054C96.5391 143.349 96.4223 141.657 96.8147 139.982C97.0648 138.912 97.6598 137.956 97.919 136.894C98.5359 134.359 96.968 133.364 96.8823 130.708C96.7253 125.883 99.6529 121.681 98.2055 116.7Z" fill="#533B50"/>
<path d="M103.104 175.211C100.569 174.149 93.2392 144.162 93.2392 144.162C93.2392 144.162 98.8918 136.485 99.1072 131.491C99.2167 128.945 97.9701 125.039 94.9074 124.884C93.9292 124.835 93.1589 125.109 92.5493 125.583C91.0819 111.036 96.3457 121.805 87.0756 111.228C81.9542 105.384 73.6442 101.398 66.1098 102.674C61.5816 103.44 57.5005 105.804 53.6147 108.133C50.344 110.093 45.4032 112.248 43.8482 116.05C43.6365 116.054 41.4718 128.618 41.4718 128.618C41.4718 128.618 44.3246 144.048 51.1854 157.706C58.8876 173.039 66.2267 174.717 70.4994 175.237C71.5671 178.121 71.8938 181.435 71.9504 181.486C72.6002 184.131 70.5596 185.299 71.4996 187.745C73.3029 192.432 80.8664 192.764 84.9548 192.478C92.0364 191.981 102.613 187.575 103.88 179.625C104.271 179.818 103.617 175.429 103.106 175.215L103.104 175.211Z" fill="#C18173"/>
<path d="M95.3163 119.794C95.4404 119.454 95.5353 119.109 95.5864 118.761C95.9386 116.375 98.4026 115.556 97.0411 113.512C96.039 112.011 93.8233 106.996 92.8651 105.448C91.0399 102.497 89.9265 98.0085 86.2634 97.0704C83.1004 96.26 78.3093 94.955 76.0935 97.0704C73.0893 92.261 69.689 92.8615 63.8448 91.7281C55.887 90.184 44.9177 93.7084 41.2783 101.279C40.1522 103.621 38.6519 103.539 36.4343 104.294C33.6892 105.225 32.5631 106.589 30.9058 109.044C28.6846 112.312 29.2321 116.726 32.2546 118.711C29.5278 122.272 28.0987 125.381 29.9878 129.756C30.9533 130.73 31.4406 131.962 31.4479 133.441C31.2125 134.094 30.9405 134.733 30.6302 135.353C30.3291 136.173 29.9659 137.051 30.0681 137.952C30.225 139.316 30.8347 139.571 31.7673 140.404C32.7766 141.324 33.5031 142.2 34.2404 143.329C34.7734 144.16 35.1092 144.799 35.9251 145.436C37.0603 146.314 37.8524 146.743 40.1211 146.775C43.7733 146.826 45.0199 145.936 46.8268 142.24C47.1444 141.592 47.3616 140.948 47.5259 140.314C47.5879 140.084 47.6427 139.865 47.6974 139.644C48.0588 138.097 48.2961 136.626 49.331 135.348C49.7197 134.87 50.2271 134.421 50.8988 134.003C52.932 132.738 56.7558 133.45 60.6124 128.631C63.6659 124.815 61.8279 121.197 65.1826 118.562C68.0372 116.328 74.9181 116.105 74.9181 116.105C75.2795 117.226 75.42 118.505 76.1045 119.494C76.8765 120.61 78.2034 121.502 79.2182 122.391C80.3809 123.409 81.5453 124.428 82.6331 125.525C83.5694 126.468 85.1263 127.817 85.5717 129.1C86.2944 131.176 86.9971 133.258 87.7199 135.333C87.7728 135.494 87.833 135.655 87.886 135.817C87.948 135.996 88.0813 136.144 88.2401 136.237C88.5284 136.407 88.919 136.399 89.1216 136.036C89.41 135.552 89.6345 135.061 89.8134 134.574C91.1549 130.865 92.5347 125.645 92.5511 125.583C92.6241 125.304 92.9034 124.307 93.1571 123.795C93.7959 122.504 94.807 121.181 95.3163 119.794Z" fill="#533B50"/>
<path d="M98.4684 231.781C95.5883 226.063 94.035 222.327 90.7205 216.849C90.5727 216.537 90.4394 216.22 90.2879 215.909C88.888 213.051 87.3494 209.213 84.4912 207.512C80.9814 205.422 77.2142 204.584 73.2554 203.836C71.7661 203.555 69.3751 203.108 67.8456 203.347C66.7523 203.518 65.7704 204.679 66.495 206.032C67.3108 207.554 75.3836 208.337 77.311 209.375C78.0921 209.797 78.9171 210.445 79.7038 211.188C77.4953 210.956 74.8214 210.899 74.8835 213.79C74.9072 214.924 75.546 215.875 76.2925 216.681C74.9656 216.886 73.991 218.799 74.1844 220.246C74.3724 221.651 75.2175 222.814 76.1319 223.864C75.7687 223.447 74.679 225.806 74.6371 226.025C74.398 227.289 74.5823 228.812 74.7667 230.08C75.0769 232.206 76.0059 234.409 77.9151 235.552C79.4209 236.454 80.9741 235.8 80.9741 235.8C80.9741 235.8 85.2103 240.838 86.3894 242.02C87.97 243.606 91.6952 244.705 93.9328 245.309C96.0153 245.871 97.4043 245.97 99.2076 245.017C100.836 244.158 102.557 240.823 102.557 240.823C102.557 240.823 99.5288 233.891 98.4666 231.783L98.4684 231.781Z" fill="#C18173"/>
<path d="M83.9783 221.007C83.9017 221.007 83.825 220.969 83.7794 220.9C83.7757 220.894 83.3851 220.295 82.3886 219.056C81.434 217.868 77.1394 216.944 77.0956 216.935C76.9678 216.908 76.8875 216.782 76.9131 216.656C76.9404 216.528 77.0646 216.448 77.1941 216.473C77.3767 216.512 81.6968 217.443 82.7573 218.76C83.7721 220.023 84.1608 220.618 84.1773 220.642C84.2484 220.752 84.2174 220.898 84.1079 220.969C84.0677 220.994 84.0239 221.007 83.9801 221.007H83.9783Z" fill="#80322D"/>
<path d="M82.8759 229.119C82.7463 229.119 82.6405 229.013 82.6405 228.883C82.6405 228.87 82.6241 227.565 81.6439 226.33C80.6638 225.092 77.1394 224.45 77.1029 224.444C76.9751 224.421 76.8893 224.298 76.9113 224.171C76.935 224.043 77.0554 223.957 77.185 223.979C77.3365 224.006 80.923 224.66 82.0126 226.036C83.0986 227.407 83.1114 228.823 83.1114 228.883C83.1114 229.015 83.0019 229.121 82.8759 229.119Z" fill="#80322D"/>
<path d="M80.5616 235.235C80.4685 235.235 80.3809 235.18 80.3444 235.09L78.3604 230.35C78.3093 230.23 78.3677 230.091 78.4882 230.042C78.6086 229.991 78.7455 230.049 78.7966 230.168L80.7806 234.908C80.8317 235.028 80.7733 235.167 80.6528 235.216C80.6236 235.229 80.5926 235.235 80.5616 235.235Z" fill="#80322D"/>
<path d="M127.841 264.386L132.8 245.73L157.818 253.559L151.784 286.355L136.438 275.694L127.841 264.386Z" fill="#C18173"/>
<path d="M162.225 262.364C160.572 262.331 127.841 248.445 127.841 248.445L139.089 196.875L136.352 189.859L134.309 184.628L132.802 180.766C132.802 180.766 134.614 181.195 137.292 182.624C138.529 183.284 139.956 184.159 141.477 185.301C148.664 190.716 157.883 202.177 159.046 225.63C159.88 242.493 161.234 250.077 162.227 253.561C163.218 257.04 163.881 262.395 162.227 262.362L162.225 262.364Z" fill="#533B50"/>
</g>
<defs>
<linearGradient id="paint0_linear_701_5711" x1="84.6964" y1="0" x2="84.6964" y2="351" gradientUnits="userSpaceOnUse">
<stop stop-color="#D0D9CB" stop-opacity="0.7"/>
<stop offset="1" stop-color="#D9CECD" stop-opacity="0.35"/>
</linearGradient>
</defs>
</svg>
