<?xml version="1.0" encoding="utf-8"?>
<!-- Generator: Adobe Illustrator 27.4.0, SVG Export Plug-In . SVG Version: 6.00 Build 0)  -->
<svg version="1.1" id="Layer_1" xmlns="http://www.w3.org/2000/svg" xmlns:xlink="http://www.w3.org/1999/xlink" x="0px" y="0px"
	 viewBox="0 0 169 351" style="enable-background:new 0 0 169 351;" xml:space="preserve">
<style type="text/css">
	.st0{fill:#DEDEDE;filter:url(#Adobe_OpacityMaskFilter);}
	.st1{mask:url(#mask0_701_5711_00000106850645950531218960000000939304435843807654_);}
	.st2{fill:url(#SVGID_1_);}
</style>
<defs>
	<filter id="Adobe_OpacityMaskFilter" filterUnits="userSpaceOnUse" x="-6.9" y="0" width="175.6" height="351">
		<feColorMatrix  type="matrix" values="1 0 0 0 0  0 1 0 0 0  0 0 1 0 0  0 0 0 1 0"/>
	</filter>
</defs>
<mask maskUnits="userSpaceOnUse" x="-6.9" y="0" width="175.6" height="351" id="mask0_701_5711_00000106850645950531218960000000939304435843807654_">
	<path class="st0" d="M10.7,0h148c5.5,0,10,4.5,10,10v331c0,5.5-4.5,10-10,10h-148c-5.5,0-10-4.5-10-10V10C0.7,4.5,5.2,0,10.7,0z"/>
</mask>
<g class="st1">
	
		<linearGradient id="SVGID_1_" gradientUnits="userSpaceOnUse" x1="84.6964" y1="352" x2="84.6964" y2="1" gradientTransform="matrix(1 0 0 -1 0 352)">
		<stop  offset="0" style="stop-color:#D0D9CB;stop-opacity:0.7"/>
		<stop  offset="1" style="stop-color:#D9CECD;stop-opacity:0.35"/>
	</linearGradient>
	<path class="st2" d="M10.7,0h148c5.5,0,10,4.5,10,10v331c0,5.5-4.5,10-10,10h-148c-5.5,0-10-4.5-10-10V10C0.7,4.5,5.2,0,10.7,0z"/>
	<g id="D4GNOa_00000151537651346235595140000011606646775660313533_">
		<g transform="matrix(1 0 0 1 -4.768372e-07 0)">
			
				<image style="overflow:visible;" width="1629" height="3042" id="D4GNOa" xlink:href="2A55E463093100E8.png"  transform="matrix(0.1039 0 0 0.1039 -6.8707 25.9984)">
			</image>
		</g>
	</g>
</g>
</svg>
