<svg width="169" height="351" viewBox="0 0 169 351" fill="none" xmlns="http://www.w3.org/2000/svg">
<mask id="mask0_701_5763" style="mask-type:alpha" maskUnits="userSpaceOnUse" x="0" y="0" width="169" height="351">
<rect x="0.696411" width="168" height="351" rx="10" fill="#DEDEDE"/>
</mask>
<g mask="url(#mask0_701_5763)">
<rect x="0.696411" width="168" height="351" rx="10" fill="url(#paint0_linear_701_5763)"/>
<g clip-path="url(#clip0_701_5763)">
<path d="M-236.609 281.158L225.86 279C227.003 278.997 228.099 279.495 228.875 280.374L285.302 343.969C287.669 346.656 285.877 350.969 282.383 351H-199.94C-201.36 351.011 -202.685 350.251 -203.435 348.995L-240.011 287.558C-241.673 284.764 -239.763 281.169 -236.609 281.158Z" fill="#A18481"/>
</g>
<path d="M31.1275 278.922C28.0612 271.499 19.9416 268.585 12.0674 269.56C8.14979 270.044 4.1041 271.31 1.20067 274.014C-0.953553 276.018 -3.04263 279.356 -0.636499 281.927C0.818472 283.482 3.1486 284.561 4.95754 285.684C7.13566 287.035 9.36589 288.327 11.7047 289.406C15.9806 291.378 20.9492 293.033 25.7593 292.562C33.2491 291.828 33.3686 284.522 31.1926 279.078C31.1709 279.026 31.1492 278.972 31.1275 278.92V278.922Z" fill="white"/>
<path d="M37.6377 278.755C37.514 278.561 39.4033 278.85 39.2122 278.711C36.1676 276.503 33.1273 273.137 31.0057 270.683C30.0545 269.582 29.0295 268.529 27.8525 267.669C27.2814 267.254 26.6799 266.878 26.0436 266.574C25.5702 266.348 24.3562 266.196 24.024 265.864C22.9469 265.241 21.8524 264.704 20.7362 264.296C14.3625 261.959 6.90744 265.473 1.42198 268.631C0.431733 269.202 0.234118 271.004 1.42198 271.517C6.10612 273.538 11.7262 269.782 16.6753 270.018C23.455 270.344 38.096 279.465 37.6399 278.755H37.6377Z" fill="#E8B6AB"/>
<path d="M53.3885 279.828C50.0877 280.24 45.5013 280.486 42.22 280.199C38.3198 278.442 34.7605 276.184 31.3316 273.63C27.933 271.098 23.82 268.576 20.0631 266.563C13.7503 263.18 10.3105 265.71 5.15728 269.137C3.77398 270.055 -2.19792 274.142 -1.85481 276.064C-1.49215 278.092 0.903121 278.399 2.53834 277.854C5.2246 276.961 9.02925 273.137 11.7351 272.418C13.1813 272.034 14.5321 272.223 15.8025 272.737C15.8785 272.987 17.5658 273.606 17.8351 273.803C22.0458 276.937 26.5237 283.775 19.0881 285.274C16.3584 285.823 12.8947 283.593 10.2844 282.952C7.69806 282.318 3.69797 283.148 5.58509 286.664C6.83376 288.989 11.2443 289.904 13.5158 290.933C20.3759 294.045 27.4184 296.395 34.9603 295.674C35.4359 295.628 35.9115 295.572 36.3849 295.498C41.942 296.353 46.5262 296.086 52.2354 297.053C53.8337 297.324 54.6915 279.66 53.3885 279.823V279.828Z" fill="#E8B6AB"/>
<path d="M145.631 280.176C145.853 279.54 145.69 278.747 145.136 278.48C144.761 278.12 144.174 278.159 143.74 278.478C120.187 280.708 96.7509 284.233 73.5039 289.054C72.3247 289.297 72.4789 290.95 73.3302 291.473C74.1554 298.055 75.0175 302.172 75.9405 308.739C75.9904 311.002 76.2184 313.467 75.1761 315.387C61.343 340.84 59.4906 350.738 59.065 351.607C58.7349 352.278 58.9868 353.42 59.7686 353.552C68.7242 355.09 100.117 355.136 110.226 354.886C120.065 354.645 146.166 354.382 153.091 353.72C155.078 353.529 148.904 300.044 145.631 280.176Z" fill="#AF9CAF"/>
<path d="M124.891 141.427C120.091 145.097 113.283 145.976 107.361 145.898C104.671 146.463 102.037 147.201 99.4786 148.298C95.9345 149.82 83.2524 159.646 80.2708 157.192C78.0514 155.364 76.0427 155.153 70.592 153.123C68.2792 152.267 64.4833 151.225 63.1564 148.958C61.6667 146.424 62.3964 143.249 62.7807 140.528C63.063 138.536 63.5886 136.575 64.2162 134.653C64.5462 133.641 64.898 132.645 65.2585 131.657C65.4931 131.02 65.7298 130.395 65.9643 129.774C66.2162 129.122 66.4659 128.48 66.7178 127.845C66.8894 127.407 66.796 126.912 66.4659 126.575C65.1022 125.172 63.949 123.272 64.7634 121.557C65.3823 120.262 66.9133 120.121 68.1359 119.745C68.7787 119.55 69.4063 119.331 70.0339 119.094C70.3639 118.968 70.6289 118.718 70.7722 118.397C71.0241 117.856 71.2739 117.315 71.5323 116.766C74.5508 110.312 79.3131 103.189 86.2383 100.288C106.786 91.6927 126.849 107.504 129.477 128.13C130.129 133.205 129.123 138.184 124.888 141.431L124.891 141.427Z" fill="#E8B6AB"/>
<path d="M74.7223 154.37C80.0883 154.819 82.3902 159.617 83.185 163.716C85.7518 176.95 87.0266 180.97 83.3283 184.431C82.7377 184.197 83.9494 184.72 83.3283 184.431C84.855 185.042 86.3577 185.693 87.9452 186.13C91.5326 187.111 95.3091 187.32 99.0073 187.083C105.746 186.651 113.902 183.967 119.77 180.514C118.269 173.979 116.03 167.154 114.866 160.39C114.135 156.146 113.581 154.713 116.065 150.848C118.458 147.125 124.769 143.521 127.848 138.109C128.293 137.325 72.8243 154.211 74.7201 154.37H74.7223Z" fill="#E8B6AB"/>
<path d="M90.7379 142.662C88.3839 140.285 84.0755 145.149 82.7443 146.867C81.6237 148.313 80.336 150.988 78.4315 151.566C75.2761 152.522 74.7875 148.089 75.9254 145.879C77.4239 142.971 83.7367 136.562 85.259 132.161C86.1472 129.589 82.6379 129.526 80.8354 130.347C79.7127 130.858 78.6856 131.576 77.7149 132.363C77.6584 132.347 77.5998 132.343 77.5324 132.356C75.0655 132.838 72.1338 132.99 70.1121 134.634C68.9546 135.577 67.9492 136.808 67.0154 138.085C66.4942 138.578 65.9882 139.129 65.4974 139.757C65.4822 139.774 65.4714 139.794 65.4562 139.811C54.5656 145.989 52.8392 159.579 49.471 170.672C49.458 170.715 49.4645 170.75 49.4602 170.791C47.408 174.003 44.2831 176.533 42.1571 179.716C42.0594 179.862 42.0224 180.005 42.0268 180.138C41.751 180.548 41.8183 181.187 42.435 181.321C48.281 182.581 53.2561 183.25 59.2345 183.38C59.4951 183.386 64.5159 177.28 66.1011 175.345C66.4138 174.963 66.8286 174.691 67.2912 174.518C77.0395 170.856 85.7302 155.147 90.2428 146.719C90.8856 145.52 91.9258 143.863 90.7379 142.662Z" fill="#E8B6AB"/>
<path d="M62.4353 182.704C62.533 182.428 62.533 182.109 62.3723 181.781C59.8684 176.663 50.2396 173.01 48.0093 172.224C47.6662 172.102 47.2905 172.154 46.9974 172.372C45.5076 173.47 41.4837 177.214 39.7681 178.86C39.6204 178.904 29.2489 186.689 13.2985 205.577C6.13871 214.058 -0.226244 223.109 -1.26861 234.425C-2.21109 244.666 4.53825 254.64 14.8295 255.235C25.8373 255.874 34.6171 245.806 39.9093 236.751C40.02 236.56 40.0678 236.373 40.0721 236.193C50.6956 223.689 57.914 207.756 56.6718 191.104C56.6675 191.047 56.6545 190.997 56.6436 190.945C58.7262 188.735 60.6828 186.424 62.5351 184.018C62.9217 183.516 62.7849 183.023 62.4331 182.702L62.4353 182.704Z" fill="#533B50"/>
<path d="M97.9345 294.27C96.2254 288.857 90.8681 268.446 85.3001 269.618C71.0457 272.617 49.4644 276.78 45.6185 278.494C42.5261 279.873 37.9983 293.007 40.4783 297.736C40.6368 298.019 40.9408 298.14 41.3643 298.266C53.0562 301.747 82.7355 301.864 103.405 297.059C104.245 296.863 98.2038 295.132 97.9323 294.27H97.9345Z" fill="#533B50"/>
<path d="M136.997 189.204C131.966 183.104 124.461 175.797 118.734 170.411C117.611 165.193 116.083 159.712 115.579 159.755C115.399 159.477 115.086 159.295 114.636 159.336C103.909 160.313 93.0811 161.486 83.4718 166.728C83.0983 166.932 82.5662 168.007 82.5467 168.35C82.4403 170.394 82.4229 172.437 82.4728 174.481C73.9667 188.613 54.4418 229.633 54.305 242.586C54.1704 255.223 58.9262 276.852 72.2533 301.165C75.2349 306.605 87.3177 307.919 92.4253 308.575C105.585 310.266 119.503 309.346 132.239 305.498C136.554 304.192 147.66 299.741 148.793 293.714C154.935 261.036 151.356 206.609 137 189.204H136.997Z" fill="#533B50"/>
<path d="M96.5014 179.189C95.8868 176.34 94.6295 174.042 92.1473 173.117C92.1278 172.413 83.3697 174.381 82.4729 174.483C62.0816 176.791 21.7571 213.111 14.2803 220.438C7.90448 226.688 2.6579 233.522 3.91308 243.305C6.37133 262.463 34.7172 255.573 45.6512 250.841C54.1465 247.166 64.049 242.374 72.3185 238.235C76.5596 236.111 78.577 232.992 82.9832 231.233C86.3101 229.904 89.8433 226.289 92.4514 223.663C95.5568 220.538 96.1539 215.798 96.7577 211.648C97.5481 206.227 97.9368 200.751 97.8847 195.274C97.8326 189.969 97.6241 184.398 96.5014 179.191V179.189Z" fill="#533B50"/>
<path d="M161.704 200.385C160.62 191.71 153.984 183.959 146.78 179.308C142.546 176.574 139.095 173.028 136.632 168.624C133.314 162.684 135.091 154.938 135.597 148.462C136.559 136.16 136.635 122.028 129.781 111.241C123.935 102.04 114.419 96.609 103.574 95.2865C101.807 95.0715 100.024 94.9803 98.2429 95.0042C91.5674 95.0932 77.0481 95.951 80.7442 104.989C81.5411 106.941 83.6823 109.606 85.1851 110.918C86.0885 111.708 86.5793 112.866 86.5597 114.086C86.4598 120.423 86.9571 126.781 87.867 133.051C88.9572 140.573 91.0897 147.933 91.8975 155.496C92.6815 162.838 91.9518 170.013 88.2992 176.55C85.7584 181.097 82.451 185.425 81.8061 190.746C80.388 202.455 90.6988 216.592 102.132 219.352C110.274 221.315 118.999 216.512 126.765 220.72C130.55 222.772 134.626 225.181 139.034 225.426C143.158 225.656 146.802 223.129 150.155 221.046C157.304 216.605 162.811 209.259 161.704 200.39V200.385Z" fill="#746587"/>
<path d="M117.368 99.1582C117.257 99.13 117.14 99.1104 117.016 99.1017C102.905 98.283 93.7564 107.345 87.0461 118.672C86.9679 118.802 86.918 118.933 86.8811 119.059C86.1927 119.697 86.0037 120.968 87.0374 121.636C88.1645 122.366 87.4696 120.872 88.7313 121.259C90.2232 121.717 91.613 122.368 92.9594 123.154C93.3003 123.354 93.6348 123.406 93.9409 123.361C94.6011 123.678 95.422 123.584 95.8541 122.742C98.3775 117.808 101.689 113.369 105.941 109.784C111.194 105.356 116.749 104.967 123.377 104.683C124.949 104.615 123.312 102.789 122.847 102.381C119.016 99.017 117.74 99.093 117.37 99.156L117.368 99.1582Z" fill="white"/>
<path d="M122.845 102.384C119.014 99.02 117.737 99.096 117.368 99.159C117.257 99.1307 117.14 99.1112 117.016 99.1025C110.615 98.7312 105.24 100.401 100.647 103.387C102.128 104.293 103.516 105.368 104.971 106.321C105.976 106.979 106.936 107.648 107.844 108.367C112.541 105.272 117.544 104.935 123.377 104.686C124.949 104.618 123.312 102.792 122.847 102.386L122.845 102.384Z" fill="white"/>
<path d="M92.4099 116.755C91.133 116.412 89.7324 116.321 88.2274 116.538C79.098 117.854 72.4986 124.321 70.7439 132.944C69.1217 140.912 73.3867 151.307 84.3077 151.116C91.6825 150.988 97.4589 145.778 100.219 139.476C103.965 130.922 103.001 119.597 92.4099 116.755Z" fill="white"/>
<path d="M75.1413 136.788C72.4355 139.472 69.5907 142.143 65.9403 143.455C63.6036 144.293 59.6339 144.636 57.0866 143.181C56.7956 143.016 56.6567 142.643 56.8174 142.352C56.9477 142.113 57.0258 141.844 57.0302 141.548C57.1062 141.368 57.1474 141.164 57.1214 140.931C56.9737 139.585 55.9639 138.33 54.6436 137.965C52.8781 137.476 51.7684 138.899 51.9139 140.558C52.016 141.713 53.3754 146.829 62.3571 146.56C68.1922 146.384 72.7547 142.473 76.7049 138.554C77.7755 137.492 76.2271 135.72 75.1478 136.79L75.1413 136.788Z" fill="white"/>
<path d="M96.1734 122.662C100.471 128.143 98.6795 136.367 94.9248 141.639C90.8422 147.372 81.5304 149.761 75.7452 144.999C75.3456 144.669 74.768 145.24 75.1719 145.572C81.0743 150.43 90.6815 148.46 95.155 142.684C99.5155 137.053 101.442 128.075 96.7467 122.091C96.4254 121.68 95.8542 122.258 96.1734 122.664V122.662Z" fill="#B8A3B6"/>
<path d="M83.0679 126.551C86.4165 124.805 90.4209 126.555 90.8422 130.377C91.0768 132.505 90.219 134.788 88.7814 136.349C87.1483 138.121 84.6836 138.846 82.4664 137.661C78.0862 135.317 79.513 128.881 83.0679 126.551C83.5022 126.266 83.0961 125.565 82.6596 125.851C79.0352 128.227 77.4348 133.839 80.6444 137.268C82.8681 139.643 86.4773 139.541 88.8248 137.443C91.0312 135.474 92.2603 132.09 91.4351 129.194C90.3319 125.319 86.0343 124.092 82.6575 125.851C82.1949 126.093 82.6032 126.792 83.0657 126.551H83.0679Z" fill="#B8A3B6"/>
<path d="M90.7378 142.662C88.3838 140.285 84.0754 145.149 82.7442 146.867C81.6236 148.313 80.3359 150.988 78.4314 151.566C75.276 152.522 74.7874 148.089 75.9254 145.879C77.4238 142.971 83.7366 136.562 85.2589 132.161C86.1471 129.589 82.6378 129.526 80.8353 130.347C79.7126 130.858 78.6855 131.576 77.7148 132.363C77.6583 132.347 77.5997 132.343 77.5323 132.356C75.0654 132.838 72.1337 132.99 70.112 134.634C68.9545 135.577 67.9491 136.808 67.0153 138.085C66.4941 138.578 65.9881 139.129 65.4973 139.757C65.4821 139.774 65.4713 139.794 65.4561 139.811C54.5655 145.989 52.8391 159.579 49.4709 170.672C49.4579 170.715 49.4644 170.75 49.4601 170.791C49.3081 171.03 49.1387 171.26 48.9736 171.493C53.521 174.283 58.5113 176.285 63.1976 178.863C64.3638 177.462 65.4886 176.092 66.101 175.345C66.4137 174.963 66.8285 174.691 67.2911 174.518C77.0394 170.856 85.7301 155.147 90.2427 146.719C90.8855 145.52 91.9257 143.863 90.7378 142.662Z" fill="#E8B6AB"/>
<path d="M75.0828 148.56C74.87 150.252 77.3021 153.329 79.0394 151.744C79.426 151.392 78.8505 150.821 78.4661 151.171C77.8603 151.722 77.0329 150.921 76.629 150.487C76.1251 149.944 75.7972 149.312 75.8928 148.56C75.9579 148.043 75.1457 148.048 75.0828 148.56Z" fill="#DC8C87"/>
<path d="M77.1545 132.998C72.5377 137.161 69.0045 142.241 66.6765 148.002C66.4811 148.486 67.265 148.695 67.4583 148.217C69.7342 142.593 73.2239 137.633 77.73 133.57C78.1187 133.22 77.5432 132.649 77.1567 132.996L77.1545 132.998Z" fill="#DC8C87"/>
<path d="M69.9294 134.626C66.3593 138.167 63.9488 142.717 62.1985 147.39C62.0161 147.879 62.7979 148.089 62.9803 147.605C64.6807 143.069 67.039 138.636 70.5027 135.197C70.8741 134.83 70.3008 134.256 69.9294 134.623V134.626Z" fill="#DC8C87"/>
<path d="M66.2075 139.236C64.6136 139.798 63.2954 140.78 62.2921 142.137C61.9816 142.556 62.6852 142.962 62.9914 142.545C63.86 141.37 65.0457 140.502 66.4225 140.015C66.9111 139.844 66.7005 139.06 66.2075 139.233V139.236Z" fill="#DC8C87"/>
<path d="M87.1373 151.918C86.071 154.773 84.2599 157.195 82.4227 159.597C82.1057 160.011 82.8093 160.415 83.122 160.005C85.0048 157.542 86.8246 155.06 87.9169 152.133C88.0993 151.644 87.3175 151.431 87.1351 151.918H87.1373Z" fill="#DC8C87"/>
<path d="M97.6481 118.718C95.2571 117.206 92.5969 116.418 89.7695 116.375C89.2483 116.366 89.2483 117.176 89.7695 117.185C92.4688 117.226 94.9574 117.975 97.2376 119.417C97.6806 119.697 98.0867 118.996 97.6459 118.718H97.6481Z" fill="#B8A3B6"/>
<path d="M98.5555 116.228C100.53 112.175 103.594 108.792 107.453 106.451C111.637 103.91 116.115 103.159 120.94 103.089C121.462 103.083 121.464 102.271 120.94 102.279C115.976 102.351 111.346 103.137 107.042 105.752C103.072 108.162 99.8889 111.648 97.8541 115.819C97.6261 116.286 98.3254 116.699 98.5534 116.228H98.5555Z" fill="#B8A3B6"/>
<path d="M26.3695 270.878C24.8124 269.425 23.0143 268.261 21.1055 267.323C19.2531 266.413 17.0164 265.368 14.9599 265.121C12.9729 264.882 11.0684 265.733 9.32457 266.578C7.17686 267.616 5.13555 268.802 3.32444 270.363C2.92921 270.704 3.50468 271.275 3.89774 270.936C6.80551 268.426 11.9413 265.062 15.911 266.165C19.4746 267.158 23.0795 268.915 25.7962 271.451C26.1762 271.807 26.7517 271.234 26.3695 270.878Z" fill="#DC8C87"/>
<path d="M118.589 354.682C116.81 354.715 135.245 274.166 139.316 256.463C139.777 254.463 141.542 253.06 143.571 253.077L235.073 253.399C237.677 253.418 239.677 255.744 239.338 258.356L221.049 348.723C220.771 350.862 219.001 352.48 216.871 352.539L118.589 354.682Z" fill="#D0C2CF"/>
</g>
<defs>
<linearGradient id="paint0_linear_701_5763" x1="84.6964" y1="0" x2="84.6964" y2="351" gradientUnits="userSpaceOnUse">
<stop stop-color="#B8A3B6" stop-opacity="0.61"/>
<stop offset="1" stop-color="#D9CECD" stop-opacity="0.35"/>
</linearGradient>
<clipPath id="clip0_701_5763">
<rect width="527" height="72" fill="white" transform="translate(-240.624 279)"/>
</clipPath>
</defs>
</svg>
