<?xml version="1.0" encoding="utf-8"?>
<!-- Generator: Adobe Illustrator 27.4.0, SVG Export Plug-In . SVG Version: 6.00 Build 0)  -->
<svg version="1.1" id="Layer_1" xmlns="http://www.w3.org/2000/svg" xmlns:xlink="http://www.w3.org/1999/xlink" x="0px" y="0px"
	 viewBox="0 0 169 351" style="enable-background:new 0 0 169 351;" xml:space="preserve">
<style type="text/css">
	.st0{fill:#DEDEDE;filter:url(#Adobe_OpacityMaskFilter);}
	.st1{mask:url(#mask0_701_5803_00000006677953417668748970000011724435101836440494_);}
	.st2{fill:url(#SVGID_1_);}
</style>
<defs>
	<filter id="Adobe_OpacityMaskFilter" filterUnits="userSpaceOnUse" x="-47.3" y="-6" width="278.1" height="382.9">
		<feColorMatrix  type="matrix" values="1 0 0 0 0  0 1 0 0 0  0 0 1 0 0  0 0 0 1 0"/>
	</filter>
</defs>
<mask maskUnits="userSpaceOnUse" x="-47.3" y="-6" width="278.1" height="382.9" id="mask0_701_5803_00000006677953417668748970000011724435101836440494_">
	<path class="st0" d="M10.9,0h148c5.5,0,10,4.5,10,10v331c0,5.5-4.5,10-10,10h-148c-5.5,0-10-4.5-10-10V10C0.9,4.5,5.4,0,10.9,0z"/>
</mask>
<g class="st1">
	
		<linearGradient id="SVGID_1_" gradientUnits="userSpaceOnUse" x1="84.9413" y1="352" x2="84.9413" y2="1" gradientTransform="matrix(1 0 0 -1 0 352)">
		<stop  offset="0" style="stop-color:#B99297;stop-opacity:0.52"/>
		<stop  offset="1" style="stop-color:#D9CECD;stop-opacity:0.36"/>
	</linearGradient>
	<path class="st2" d="M10.9,0h148c5.5,0,10,4.5,10,10v331c0,5.5-4.5,10-10,10h-148c-5.5,0-10-4.5-10-10V10C0.9,4.5,5.4,0,10.9,0z"/>
	<g id="PQ16Fm_00000009556753269050639410000016119459822409750944_">
		<g>
			
				<image style="overflow:visible;" width="2480" height="3415" id="PQ16Fm" xlink:href="3B2846FF053DD3B0.png"  transform="matrix(0.1121 0 0 0.1121 -47.3067 -5.9539)">
			</image>
		</g>
	</g>
</g>
</svg>
