<svg width="169" height="351" viewBox="0 0 169 351" fill="none" xmlns="http://www.w3.org/2000/svg">
<mask id="mask0_701_5803" style="mask-type:alpha" maskUnits="userSpaceOnUse" x="0" y="0" width="169" height="351">
<rect x="0.941284" width="168" height="351" rx="10" fill="#DEDEDE"/>
</mask>
<g mask="url(#mask0_701_5803)">
<rect x="0.941284" width="168" height="351" rx="10" fill="url(#paint0_linear_701_5803)"/>
<g clip-path="url(#clip0_701_5803)">
<path d="M106.884 140.646C106.773 140.281 106.646 139.923 106.526 139.565C105.493 136.591 102.685 132.781 102.566 129.632C102.566 129.473 102.558 129.314 102.55 129.147C102.256 120.98 102.558 112.518 101.254 104.43C100.148 97.6467 96.9116 91.8015 91.0346 88.0717C89.0942 86.8391 87.0504 85.9245 84.9191 85.2804C82.7401 84.6123 80.4815 84.2306 78.1912 84.0954C75.9167 83.9443 73.6105 84.0477 71.3281 84.3419C62.445 83.5149 54.5162 87.1174 48.5597 93.0342C43.1599 96.7798 38.5633 101.448 36.2411 107.898C35.3425 110.379 34.8494 113.035 34.9448 115.675C35.0482 118.657 36.4638 121.29 36.7183 124.208C36.9887 127.334 34.9051 129.863 34.0223 132.718C33.243 135.255 33.6645 137.839 34.7142 140.233C35.8753 142.865 38.3088 145.744 40.1697 148.734C40.2174 149.975 40.1777 151.208 40.0345 152.448C39.4301 157.594 36.2093 161.093 33.9826 165.538C31.6206 170.262 33.1714 175.686 30.2846 180.163C30.2051 180.29 30.1096 180.433 30.0301 180.569C28.9008 182.414 27.8988 184.704 27.6761 186.756C28.6066 186.867 29.5132 187.082 30.3959 187.416C33.4179 188.577 35.2073 190.247 38.6428 190.549C41.4342 190.796 44.2733 190.772 47.0726 190.867C52.9734 191.058 57.8086 192.45 63.4709 193.913C63.7969 192.847 64.0673 191.766 64.29 190.676C64.3616 190.334 64.4252 190 64.4968 189.658C64.7831 188.171 65.0137 186.676 65.2523 185.189C65.9282 180.99 66.6201 176.791 67.2881 172.584C67.3597 172.147 67.4233 171.709 67.5029 171.272C67.6699 170.262 67.8369 169.236 68.0039 168.218C68.1709 167.2 68.3379 166.174 68.5208 165.164C71.1929 165.514 73.9127 165.498 76.4336 165.22C79.6624 164.862 83.6228 164.361 86.5096 162.58C86.5176 162.588 86.5176 162.596 86.5176 162.604C86.5971 162.739 86.772 162.85 86.9311 162.842C90.9392 162.548 95.3768 161.959 98.5896 159.749C100.856 161.228 103.759 161.49 105.858 159.097C109.771 154.651 108.53 145.8 106.892 140.646H106.884Z" fill="#48324E"/>
<path d="M51.6533 120.956C51.6533 120.956 57.077 141.283 58.7868 144.249C60.4966 147.207 71.9245 157.435 78.0162 154.588C84.1079 151.74 94.8121 137.815 94.8121 137.815L95.9335 116.16C95.9335 116.16 92.3548 105.536 90.7722 104.311C89.1896 103.086 70.8032 93.1774 68.7594 94.2987C66.7155 95.42 61.3555 98.1796 58.7788 102.06C56.2022 105.941 51.6453 120.956 51.6453 120.956H51.6533Z" fill="#FDAF8E"/>
<path d="M64.9819 166.317C64.9819 166.317 70.1352 164.886 72.9742 161.721C75.8133 158.556 78.0162 156.106 78.0162 156.106L98.7964 153.657C98.7964 153.657 103.393 156.822 106.972 158.866C110.55 160.91 112.793 161.212 112.793 161.212C112.793 161.212 106.582 170.508 104.22 171.327C101.858 172.147 95.7346 174.906 89.9133 174.906C84.092 174.906 81.6426 175.924 76.0201 173.069C70.4056 170.206 64.9898 166.325 64.9898 166.325L64.9819 166.317Z" fill="#FDAF8E"/>
<path d="M72.2108 152.52L77.221 173.968L93.5397 175.304L104.22 166.922L92.4582 129.234L75.9804 143.867L72.2108 152.52Z" fill="#FDAF8E"/>
<path d="M97.9455 121.234C97.532 116.057 96.8321 110.864 94.51 106.252C94.6133 105.647 95.1621 105.218 95.3529 104.629C95.5438 104.049 94.8281 103.238 94.4304 103.707C93.6829 99.818 92.9115 95.8814 91.146 92.3425C89.3805 88.8036 86.4699 85.6464 82.6844 84.4933C79.1694 83.4276 75.2805 84.207 72.0677 85.9804C70.2783 84.2706 67.3597 84.708 65.0296 85.5589C60.7113 87.1336 56.7827 89.7341 53.6176 93.0662C52.878 93.8456 52.0191 94.6806 51.5261 95.6349C51.0489 96.5495 50.1821 97.289 49.5777 98.132C48.2416 100.009 47.2635 102.124 46.5875 104.319C45.9433 106.427 45.5696 108.622 45.4344 110.816C45.0844 116.344 46.0865 121.847 47.0806 127.294C47.8599 131.565 48.6393 135.827 49.4186 140.098C49.6492 141.347 49.8878 142.635 50.5479 143.724C51.208 144.814 52.3929 145.681 53.6653 145.585C53.4188 146.11 54.0789 146.786 54.6117 146.548C55.399 141.402 54.3572 136.177 53.8641 131C53.3631 125.815 53.721 123.071 56.5442 118.69C60.9022 111.914 70.5328 109.703 74.2149 102.53C76.1315 105.401 79.734 106.506 82.7799 108.128C85.4122 109.528 87.5514 108.629 89.46 110.912C90.2712 109.966 91.8776 110.148 92.8081 110.975C93.7386 111.803 94.1203 113.075 94.3827 114.284C94.8042 116.272 94.9951 118.3 94.9474 120.328C94.9076 121.839 94.7326 123.374 94.1521 124.765C93.8658 125.457 93.4761 126.109 93.2614 126.833C93.0228 127.628 93.0069 128.479 93.0069 129.314C93.0228 131.549 95.7029 140.655 96.7367 140.718C98.868 135.589 98.526 129.807 98.1602 124.264C98.0886 123.254 98.025 122.236 97.9455 121.218V121.234Z" fill="#48324E"/>
<path d="M156.437 255.124C156.27 245.263 153.359 235.616 152.667 225.779C151.983 216.013 151.721 209.484 151.117 199.71C150.576 191.074 149.51 186.382 145.693 178.556C144.134 172.6 138.933 168.767 133.422 166.572C129.438 164.981 125.318 163.765 121.191 162.651C119.115 162.087 117.032 161.554 114.956 161.005C113.437 160.599 111.696 159.192 110.105 159.915C108.793 160.504 107.982 161.975 106.908 162.89C105.477 164.122 103.878 165.148 102.256 166.126C99.5837 167.741 96.6969 168.981 93.6908 169.816C87.6945 171.479 81.2768 171.494 75.2805 169.832C73.3719 169.307 71.5348 168.568 69.7296 167.781C69.0297 167.478 68.2663 167.232 67.5983 166.85C66.9302 166.476 66.469 165.912 65.8169 165.514C64.3854 164.639 63.4152 165.689 62.1189 166.23C60.7431 166.81 59.3673 167.383 57.9915 167.963C55.1683 169.156 52.3531 170.373 49.5856 171.701C44.1539 174.302 39.9629 178.191 36.2331 182.843C32.9169 186.978 31.9387 192.235 30.1414 197.285C28.2487 202.581 25.9186 204.649 24.678 210.144C23.5885 214.971 25.012 224.356 23.0795 229.087C21.1073 233.938 18.0057 243.028 17.6558 248.341C17.3377 253.168 18.0455 258.321 20.2086 262.695C22.4115 267.164 26.356 270.107 31.4059 270.369C32.0342 270.401 32.6545 270.393 33.2748 270.353C32.2012 270.425 29.9585 279.284 29.6404 280.429C27.7716 287.149 25.8152 295.571 27.0797 302.554C29.4496 315.644 42.2612 320.94 42.9292 319.318C43.8677 317.059 42.0783 287.086 45.0765 279.785C54.9934 275.093 66.4213 274.966 77.2368 275.133C87.957 275.3 98.6691 275.992 109.326 277.185C112.721 287.261 116.109 297.345 119.505 307.421L122.368 315.938C122.988 317.783 123.45 320.344 125.064 321.64C125.39 321.902 125.764 322.069 126.145 322.165C126.185 322.387 126.36 322.57 126.623 322.459C126.79 322.387 126.957 322.316 127.116 322.244C127.887 322.181 128.587 321.839 128.969 321.282C139.148 322.491 141.104 311.333 141.804 302.975C142.631 293.193 139.204 278.25 137.661 268.564C140.166 269.089 142.751 269.296 145.335 269.129C148.46 268.938 152.007 268.286 154.139 265.773C156.509 262.981 156.493 258.576 156.437 255.124Z" fill="#746587"/>
<path d="M67.5267 162.095C67.3518 161.57 67.145 161.085 66.9144 160.64C66.8031 158.588 66.5565 156.544 66.2941 154.524C66.2305 154.007 65.4113 153.999 65.475 154.524C65.6738 156.051 65.8646 157.618 65.9919 159.192C61.435 153.466 50.9614 156.202 45.4582 159.622C39.8278 163.121 35.6049 168.616 33.6327 174.875C29.9109 179.304 26.5151 184.291 26.8014 190.295C26.9525 193.516 28.6782 197.245 31.398 198.78C34.2768 197.723 36.774 196.005 39.788 195.233C42.985 194.422 46.0229 194.534 49.2675 194.852C50.5718 194.979 52.1702 195.186 53.6812 195.09C54.1345 194.693 54.5401 194.215 54.8662 193.651C56.3851 190.963 55.5899 187.623 56.3135 184.736C57.1724 181.292 59.8286 178.732 62.0394 176.107C64.3139 173.411 65.976 170.549 66.5963 167.033C66.8587 165.554 66.9541 164.059 66.9541 162.556C67.2404 162.667 67.6301 162.461 67.5108 162.087L67.5267 162.095Z" fill="#48324E"/>
<path d="M116.189 520.408C125.978 520.241 131.641 519.477 141.216 517.29C142.663 516.956 144.11 516.622 145.558 516.28C144.882 487.373 144.651 460.755 142.353 426.941C140.389 397.977 140.89 370.509 138.408 341.585C135.347 305.83 127.577 274.37 127.577 274.37C100.88 269.097 71.4553 266.568 45.2435 275.189C45.2435 275.189 37.6408 305.115 37.6487 317.338C37.6647 333.847 37.9748 350.357 38.5792 366.859C39.788 399.862 42.5714 432.722 46.1262 465.559C47.2635 476.096 52.0589 515.636 52.2577 516.972C52.377 517.807 52.2975 519.978 52.8701 520.591C52.9178 520.646 52.9814 520.686 53.0371 520.742C59.089 521.672 65.2523 521.68 71.344 521.211C72.6721 521.108 84.5135 519.962 84.5771 519.191C88.3785 473.885 87.8536 406.129 87.0266 360.671C93.1103 394.375 113.127 508.837 116.189 520.416V520.408Z" fill="#AF9CAF"/>
<path d="M110.479 271.03C110.479 271.03 120.42 320.877 130.09 321.425C139.76 321.966 141.136 308.415 141.136 308.415C141.136 308.415 134.448 277.296 134.313 276.883C134.178 276.469 129.136 268.302 125.191 268.302C121.247 268.302 110.479 271.03 110.479 271.03Z" fill="#746587"/>
<path d="M14.3396 201.635C14.3396 201.635 17.1151 199.249 17.8626 199.249C18.6102 199.249 42.7861 215.051 43.5337 215.051C44.2812 215.051 75.0658 193.325 75.8769 192.991C76.6961 192.649 79.9566 197.046 79.9566 197.046L44.146 226.217L16.9083 206.057L14.3396 201.627V201.635Z" fill="#AF9CAF"/>
<path d="M13.4012 201.333C14.2203 200.617 42.1022 219.616 44.0426 219.409C45.9831 219.202 79.893 194.486 80.7121 194.891C81.5313 195.297 99.1145 227.791 99.4246 228.3C99.7348 228.809 63.9639 253.017 63.1448 253.017C62.3257 253.017 35.3584 234.527 34.237 233.406C33.1157 232.284 12.5821 202.049 13.4012 201.333Z" fill="white"/>
<path d="M111.21 219.417C111.21 219.417 104.101 210.351 100.769 208.474C97.524 206.653 93.7942 205.914 90.1121 205.715C86.605 205.524 82.7241 205.58 79.2807 206.343C78.2786 206.566 75.6861 206.955 76.4813 208.602C77.1494 209.993 79.4715 209.683 80.6485 209.715C81.8971 209.747 83.1456 209.874 84.3942 209.914C84.7202 209.922 87.9888 210.176 88.0206 210.073C87.9888 210.176 81.7221 210.303 78.6365 210.812C77.372 211.019 73.1253 211.409 73.0458 213.349C72.9822 214.908 75.2407 215.401 78.1832 215.385C76.028 216.069 75.1055 216.904 75.6145 218.503C76.0519 219.878 82.5174 219.918 84.8157 219.823C84.9111 219.823 85.0145 219.823 85.1099 219.815C84.7839 219.982 80.1952 220.435 79.9407 220.69C79.2966 221.334 79.0659 221.898 79.8612 222.479C81.4756 223.656 88.0126 222.797 89.8735 223.139C93.651 223.847 97.1581 226.36 100.673 227.839C102.296 228.523 103.838 229.286 105.604 229.294C109.222 229.294 111.195 219.425 111.195 219.425L111.21 219.417Z" fill="#FDAF8E"/>
<path d="M109.532 218.232C109.532 218.232 144.174 242.52 148.612 248.452C153.049 254.385 156 266.513 143.371 269.002C130.742 271.491 103.313 226.217 103.313 226.217L109.54 218.232H109.532Z" fill="#FDAF8E"/>
<path d="M32.7181 205.85C32.7499 204.45 32.4875 202.979 31.1514 202.255C30.5629 201.937 29.9585 201.858 29.3462 201.921C29.0042 201.023 28.4634 200.236 27.533 199.774C26.6741 199.345 25.7755 199.321 24.8927 199.48C23.5964 197.738 21.7673 196.8 19.5883 198.486C17.8149 199.862 16.2959 201.58 15.0792 203.456C14.1646 204.872 12.3196 207.568 13.1387 209.294C16.1528 215.703 18.8964 222.272 21.7435 228.762C21.1391 228.929 21.3936 229.875 22.0059 229.708C22.0536 229.692 22.1093 229.676 22.157 229.66C22.3797 230.113 22.992 229.835 23.0238 229.398C25.8073 228.523 28.3203 227.282 29.4973 224.356C30.9128 220.809 29.9188 216.936 29.5609 213.278C31.5888 211.115 34.3643 208.379 32.726 205.842L32.7181 205.85Z" fill="#FDAF8E"/>
<path d="M36.7978 244.611C34.245 233.406 28.877 224.046 26.5071 214.55C26.4673 214.383 26.2685 214.208 26.0856 214.232C23.7555 214.534 21.5208 214.351 19.2941 213.675C19.2782 212.634 19.2702 211.592 19.2543 210.55C19.2543 209.985 18.3716 209.985 18.3795 210.55C18.3875 211.528 18.4034 212.514 18.4113 213.492C18.1091 213.62 18.0455 214.137 18.4193 214.304C18.5067 221.62 18.626 228.928 18.9362 236.237C19.1271 240.587 19.3815 244.937 19.7474 249.279C20.0257 252.58 20.3359 255.975 21.6639 259.053C23.7396 263.88 29.9824 269.105 35.9707 263.125C41.291 257.82 38.1497 250.56 36.7898 244.603L36.7978 244.611Z" fill="#FDAF8E"/>
<path d="M19.2941 203.663C19.0953 203.663 18.9124 203.567 18.7931 203.392C18.6102 203.114 18.6897 202.748 18.968 202.565L23.8032 199.4C24.0816 199.217 24.4474 199.297 24.6303 199.575C24.8132 199.854 24.7337 200.219 24.4553 200.402L19.6201 203.567C19.5168 203.631 19.4054 203.663 19.2941 203.663Z" fill="#ED715D"/>
<path d="M23.5169 205.261C23.2943 205.261 23.0795 205.134 22.9762 204.92C22.833 204.625 22.9602 204.267 23.2545 204.124L28.4635 201.635C28.7657 201.492 29.1156 201.619 29.2587 201.913C29.4019 202.208 29.2746 202.566 28.9804 202.709L23.7714 205.198C23.6919 205.238 23.6044 205.254 23.5169 205.254V205.261Z" fill="#ED715D"/>
<path d="M26.4753 208.259C26.2288 208.259 26.0061 208.108 25.9186 207.87C25.8073 207.56 25.9663 207.218 26.2765 207.106L31.557 205.166C31.8672 205.055 32.2091 205.214 32.3205 205.524C32.4318 205.834 32.2728 206.176 31.9626 206.287L26.6821 208.228C26.6105 208.251 26.5469 208.267 26.4753 208.267V208.259Z" fill="#ED715D"/>
<path d="M67.2404 164.759C67.2404 164.759 67.2086 164.759 67.1927 164.759C66.978 164.735 66.8189 164.536 66.8428 164.321C66.8428 164.274 67.3279 159.916 67.1529 156.854C66.978 153.792 66.8428 152.885 66.8428 152.877C66.811 152.663 66.9621 152.456 67.1768 152.424C67.3995 152.392 67.5983 152.543 67.6301 152.758C67.6301 152.798 67.7732 153.697 67.9482 156.814C68.1232 159.947 67.654 164.234 67.6301 164.409C67.6062 164.616 67.4313 164.759 67.2325 164.759H67.2404Z" fill="#AF9CAF"/>
<path d="M92.1321 215.528C92.0526 215.528 91.9731 215.512 91.8935 215.48C91.8935 215.48 90.637 214.972 86.9947 214.836C83.2411 214.693 79.058 215.512 79.0183 215.52C78.6922 215.584 78.3821 215.377 78.3184 215.051C78.2548 214.725 78.4616 214.415 78.7876 214.351C78.9626 214.319 83.1457 213.492 87.0425 213.643C90.9074 213.795 92.2355 214.327 92.3707 214.391C92.6729 214.526 92.8081 214.876 92.6809 215.178C92.5854 215.401 92.3628 215.536 92.1321 215.536V215.528Z" fill="#ED715D"/>
<path d="M92.5695 220.801C92.5218 220.801 92.474 220.801 92.4263 220.785C92.4263 220.785 91.814 220.634 89.9292 220.3C88.4103 220.029 86.5732 220.212 85.8813 220.276C85.6905 220.292 85.5632 220.308 85.5155 220.308C85.1895 220.308 84.9191 220.037 84.9191 219.711C84.9191 219.385 85.1815 219.115 85.5076 219.115C85.5553 219.115 85.6428 219.107 85.762 219.091C86.5016 219.019 88.458 218.821 90.136 219.123C92.0685 219.473 92.6888 219.624 92.7126 219.632C93.0307 219.711 93.2296 220.037 93.15 220.355C93.0864 220.626 92.8399 220.809 92.5695 220.809V220.801Z" fill="#ED715D"/>
<path d="M92.1321 211.027C92.1321 211.027 92.0605 211.027 92.0287 211.019C92.0208 211.019 91.7345 210.972 90.8995 210.852C90.0724 210.733 88.0365 210.669 88.0127 210.669C87.6866 210.662 87.4242 210.383 87.4321 210.057C87.4401 209.731 87.7105 209.477 88.0286 209.477C88.0286 209.477 88.0365 209.477 88.0445 209.477C88.132 209.477 90.1678 209.54 91.0585 209.667C91.9413 209.795 92.2275 209.842 92.2275 209.842C92.5536 209.898 92.7683 210.208 92.7127 210.534C92.6649 210.821 92.4105 211.027 92.1242 211.027H92.1321Z" fill="#ED715D"/>
<path d="M51.2875 222.399C51.2875 222.646 52.7826 225.302 53.1882 225.302C53.5937 225.302 66.31 217.262 66.3736 216.538C66.4372 215.815 64.8626 213.874 64.6161 213.787C64.3695 213.699 51.2954 222.145 51.2954 222.399H51.2875Z" fill="#746587"/>
<path d="M64.1389 244.706C64.0116 244.706 63.8844 244.643 63.8049 244.531C63.6856 244.348 63.7333 244.102 63.9162 243.983L76.044 235.879C76.2269 235.76 76.4734 235.807 76.5927 235.99C76.712 236.173 76.6643 236.42 76.4813 236.539L64.3536 244.643C64.29 244.69 64.2105 244.706 64.1309 244.706H64.1389Z" fill="#746587"/>
<path d="M65.1886 247.164C65.0614 247.164 64.9341 247.1 64.8546 246.989C64.7353 246.806 64.783 246.559 64.966 246.44L80.3384 236.173C80.5213 236.054 80.7678 236.102 80.8871 236.285C81.0064 236.468 80.9587 236.714 80.7758 236.833L65.4034 247.1C65.3318 247.148 65.2602 247.164 65.1807 247.164H65.1886Z" fill="#746587"/>
</g>
</g>
<defs>
<linearGradient id="paint0_linear_701_5803" x1="84.9413" y1="0" x2="84.9413" y2="351" gradientUnits="userSpaceOnUse">
<stop stop-color="#B99297" stop-opacity="0.52"/>
<stop offset="1" stop-color="#D9CECD" stop-opacity="0.36"/>
</linearGradient>
<clipPath id="clip0_701_5803">
<rect width="143.513" height="495.774" fill="white" transform="translate(12.9399 84)"/>
</clipPath>
</defs>
</svg>
