<svg width="36" height="36" viewBox="0 0 36 36" fill="none" xmlns="http://www.w3.org/2000/svg">
<circle cx="18.335" cy="18.0056" r="17.366" fill="#B1BFA9"/>
<path d="M15.2932 21.4779C16.3172 20.6245 17.1332 19.9152 17.7412 19.3499C18.3492 18.7739 18.8559 18.1765 19.2612 17.5579C19.6665 16.9392 19.8692 16.3312 19.8692 15.7339C19.8692 15.1899 19.7412 14.7632 19.4852 14.4539C19.2292 14.1445 18.8345 13.9899 18.3012 13.9899C17.7679 13.9899 17.3572 14.1712 17.0692 14.5339C16.7812 14.8859 16.6319 15.3712 16.6212 15.9899H14.4452C14.4879 14.7099 14.8665 13.7392 15.5812 13.0779C16.3065 12.4165 17.2239 12.0859 18.3332 12.0859C19.5492 12.0859 20.4825 12.4112 21.1332 13.0619C21.7839 13.7019 22.1092 14.5499 22.1092 15.6059C22.1092 16.4379 21.8852 17.2325 21.4372 17.9899C20.9892 18.7472 20.4772 19.4085 19.9012 19.9739C19.3252 20.5285 18.5732 21.2005 17.6452 21.9899H22.3652V23.8459H14.4612V22.1819L15.2932 21.4779Z" fill="white"/>
</svg>
