<svg width="36" height="36" viewBox="0 0 36 36" fill="none" xmlns="http://www.w3.org/2000/svg">
<circle cx="18.335" cy="18.0051" r="17.366" fill="#D88D70"/>
<path d="M14.4259 15.4134C14.4792 14.3467 14.8526 13.5254 15.5459 12.9494C16.2499 12.3627 17.1726 12.0694 18.3139 12.0694C19.0926 12.0694 19.7592 12.208 20.3139 12.4854C20.8686 12.752 21.2846 13.12 21.5619 13.5894C21.8499 14.048 21.9939 14.5707 21.9939 15.1574C21.9939 15.8294 21.8179 16.4 21.4659 16.8694C21.1246 17.328 20.7139 17.6374 20.2339 17.7974V17.8614C20.8526 18.0534 21.3326 18.3947 21.6739 18.8854C22.0259 19.376 22.2019 20.0054 22.2019 20.7734C22.2019 21.4134 22.0526 21.984 21.7539 22.4854C21.4659 22.9867 21.0339 23.3814 20.4579 23.6694C19.8926 23.9467 19.2099 24.0854 18.4099 24.0854C17.2046 24.0854 16.2232 23.7814 15.4659 23.1734C14.7086 22.5654 14.3086 21.6694 14.2659 20.4854H16.4419C16.4632 21.008 16.6392 21.4294 16.9699 21.7494C17.3112 22.0587 17.7752 22.2134 18.3619 22.2134C18.9059 22.2134 19.3219 22.064 19.6099 21.7654C19.9086 21.456 20.0579 21.0614 20.0579 20.5814C20.0579 19.9414 19.8552 19.4827 19.4499 19.2054C19.0446 18.928 18.4152 18.7894 17.5619 18.7894H17.0979V16.9494H17.5619C19.0766 16.9494 19.8339 16.4427 19.8339 15.4294C19.8339 14.9707 19.6952 14.6134 19.4179 14.3574C19.1512 14.1014 18.7619 13.9734 18.2499 13.9734C17.7486 13.9734 17.3592 14.112 17.0819 14.3894C16.8152 14.656 16.6606 14.9974 16.6179 15.4134H14.4259Z" fill="white"/>
</svg>
