<svg width="220" height="169" viewBox="0 0 220 169" fill="none" xmlns="http://www.w3.org/2000/svg">
<path d="M212.064 120.233C209.751 125.651 199.092 150.714 174.007 163.4C158.656 171.174 142.337 169.544 109.697 166.329C109.697 166.329 55.2767 160.955 23.3863 138.16C17.0434 133.623 12.7708 128.095 12.7708 128.095C8.87264 123.316 6.03157 117.965 4.60002 111.996C0.83396 96.2051 9.00477 74.1153 9.00477 74.1153C19.4881 46.4754 39.0232 30.5743 46.9737 24.2535C54.0434 18.6374 59.9677 15.2238 61.2231 14.497C64.5707 12.5809 83.4671 2.03153 108.464 0.247607C116.194 -0.302987 158.92 -2.46131 191.207 29.0987C197.682 35.4416 217.636 54.9106 219.199 84.5325C220.058 101.05 214.861 113.648 212.064 120.211V120.233Z" fill="url(#paint0_linear_701_5497)"/>
<path d="M77.3656 103.76C85.6906 110.345 94.7644 114.948 105.6 114.045C106.701 114.001 107.626 114.86 107.648 115.939C107.648 116.71 107.23 117.393 106.569 117.723C95.2929 123.405 78.9513 117.723 75.3174 105.191C74.943 104.024 76.4406 103.011 77.3876 103.76H77.3656Z" fill="#692E2E"/>
<path d="M23.4306 83.6087C27.6371 88.9384 33.1871 92.8366 39.9264 93.8938C42.1508 94.3122 44.4853 94.4443 47.018 94.5324C48.6478 94.5324 49.2865 96.8449 47.921 97.6818C40.2788 102.703 29.2669 99.9503 23.6288 93.1009C21.977 91.0747 17.0657 84.1372 21.1842 82.7938C22.0651 82.5956 22.924 82.948 23.4086 83.6087H23.4306Z" fill="#692E2E"/>
<path d="M10.8107 35.1575C16.7099 35.1575 21.4922 30.3752 21.4922 24.4759C21.4922 18.5767 16.7099 13.7944 10.8107 13.7944C4.91143 13.7944 0.12915 18.5767 0.12915 24.4759C0.12915 30.3752 4.91143 35.1575 10.8107 35.1575Z" fill="url(#paint1_linear_701_5497)"/>
<path d="M39.4848 7.0334C39.4848 10.4471 36.7098 13.2221 33.2961 13.2221C29.8824 13.2221 27.1074 10.4471 27.1074 7.0334C27.1074 3.61972 29.8824 0.844727 33.2961 0.844727C36.7098 0.844727 39.4848 3.61972 39.4848 7.0334Z" fill="url(#paint2_linear_701_5497)"/>
<defs>
<linearGradient id="paint0_linear_701_5497" x1="53.8231" y1="92.7474" x2="222.525" y2="74.754" gradientUnits="userSpaceOnUse">
<stop stop-color="#D3A262"/>
<stop offset="0.66" stop-color="#CC7A54"/>
<stop offset="1" stop-color="#B55B3F"/>
</linearGradient>
<linearGradient id="paint1_linear_701_5497" x1="0.12915" y1="24.476" x2="21.4922" y2="24.476" gradientUnits="userSpaceOnUse">
<stop stop-color="#D3A262"/>
<stop offset="0.66" stop-color="#CC7A54"/>
<stop offset="1" stop-color="#B55B3F"/>
</linearGradient>
<linearGradient id="paint2_linear_701_5497" x1="27.1074" y1="7.0334" x2="39.4848" y2="7.0334" gradientUnits="userSpaceOnUse">
<stop stop-color="#D3A262"/>
<stop offset="0.66" stop-color="#CC7A54"/>
<stop offset="1" stop-color="#B55B3F"/>
</linearGradient>
</defs>
</svg>
